<?xml version="1.0" encoding="utf-8"?>
<!-- Generator: Adobe Illustrator 23.0.2, SVG Export Plug-In . SVG Version: 6.00 Build 0)  -->
<svg version="1.1" id="Layer_1" xmlns="http://www.w3.org/2000/svg" xmlns:xlink="http://www.w3.org/1999/xlink" x="0px" y="0px"
	 viewBox="0 0 1327 524" style="enable-background:new 0 0 1327 524;" xml:space="preserve">
<style type="text/css">
	.st0{fill:#F3F3F3;}
	.st1{fill:none;stroke:#287EFB;stroke-width:10;stroke-linejoin:round;stroke-miterlimit:10;}
	.st2{fill:#2ADFC3;}
	.st3{fill:#287EFB;}
	.st4{fill:#AAF2E7;}
	.st5{fill:#20A792;}
	.st6{fill:#D1D1D1;}
	.st7{fill:#384745;}
	.st8{fill:none;stroke:#2ADFC3;stroke-width:10;stroke-linejoin:round;stroke-miterlimit:10;}
	.st9{enable-background:new    ;}
	.st10{fill:#7EB2FD;}
	.st11{fill:#D4E5FE;}
</style>
<path class="st0" d="M0,518V6c0-3.3,2.7-6,6-6h565c3.3,0,6,2.7,6,6v512c0,3.3-2.7,6-6,6H6C2.7,524,0,521.3,0,518z"/>
<path class="st0" d="M750,518V6c0-3.3,2.7-6,6-6h565c3.3,0,6,2.7,6,6v512c0,3.3-2.7,6-6,6H756C752.7,524,750,521.3,750,518z"/>
<polyline class="st1" points="664.6,253.8 579.6,338.4 536.4,338.4 "/>
<polyline class="st1" points="663.4,253.8 748.4,338.4 791.6,338.4 "/>
<polyline class="st1" points="663.4,209 748.4,124.4 791.6,124.4 "/>
<polyline class="st1" points="664.6,209 579.6,124.4 536.4,124.4 "/>
<title>how-it-works</title>
<circle class="st2" cx="73.5" cy="124.5" r="43.5"/>
<circle class="st2" cx="180.5" cy="124.5" r="43.5"/>
<circle class="st2" cx="287.5" cy="124.5" r="43.5"/>
<path class="st3" d="M502.5,168c24,0,43.5-19.5,43.5-43.5S526.5,81,502.5,81h-113c-24,0-43.5,19.5-43.5,43.5s19.5,43.5,43.5,43.5
	H502.5z"/>
<path class="st3" d="M502.5,382c24,0,43.5-19.5,43.5-43.5S526.5,295,502.5,295h-113c-24,0-43.5,19.5-43.5,43.5s19.5,43.5,43.5,43.5
	H502.5z"/>
<circle class="st4" cx="73.5" cy="231.5" r="43.5"/>
<circle class="st4" cx="180.5" cy="231.5" r="43.5"/>
<circle class="st4" cx="287.5" cy="231.5" r="43.5"/>
<g>
	<path class="st2" d="M73.5,297c22.9,0,41.5,18.6,41.5,41.5S96.4,380,73.5,380S32,361.4,32,338.5S50.6,297,73.5,297 M73.5,295
		c-24,0-43.5,19.5-43.5,43.5S49.5,382,73.5,382s43.5-19.5,43.5-43.5S97.5,295,73.5,295L73.5,295z"/>
</g>
<g>
	<path class="st2" d="M180.5,297c22.9,0,41.5,18.6,41.5,41.5S203.4,380,180.5,380S139,361.4,139,338.5S157.6,297,180.5,297
		 M180.5,295c-24,0-43.5,19.5-43.5,43.5s19.5,43.5,43.5,43.5s43.5-19.5,43.5-43.5S204.5,295,180.5,295L180.5,295z"/>
</g>
<g>
	<path class="st2" d="M287.5,297c22.9,0,41.5,18.6,41.5,41.5S310.4,380,287.5,380S246,361.4,246,338.5S264.6,297,287.5,297
		 M287.5,295c-24,0-43.5,19.5-43.5,43.5s19.5,43.5,43.5,43.5s43.5-19.5,43.5-43.5S311.5,295,287.5,295L287.5,295z"/>
</g>
<g>
	<path class="st2" d="M73.5,404c22.9,0,41.5,18.6,41.5,41.5S96.4,487,73.5,487S32,468.4,32,445.5S50.6,404,73.5,404 M73.5,402
		c-24,0-43.5,19.5-43.5,43.5S49.5,489,73.5,489s43.5-19.5,43.5-43.5S97.5,402,73.5,402L73.5,402z"/>
</g>
<g>
	<path class="st2" d="M180.5,404c22.9,0,41.5,18.6,41.5,41.5S203.4,487,180.5,487S139,468.4,139,445.5S157.6,404,180.5,404
		 M180.5,402c-24,0-43.5,19.5-43.5,43.5s19.5,43.5,43.5,43.5s43.5-19.5,43.5-43.5S204.5,402,180.5,402L180.5,402z"/>
</g>
<g>
	<path class="st2" d="M287.5,404c22.9,0,41.5,18.6,41.5,41.5S310.4,487,287.5,487S246,468.4,246,445.5S264.6,404,287.5,404
		 M287.5,402c-24,0-43.5,19.5-43.5,43.5s19.5,43.5,43.5,43.5s43.5-19.5,43.5-43.5S311.5,402,287.5,402L287.5,402z"/>
</g>
<circle class="st2" cx="1038.5" cy="124.5" r="43.5"/>
<circle class="st2" cx="1145.5" cy="124.5" r="43.5"/>
<circle class="st2" cx="1252.5" cy="124.5" r="43.5"/>
<circle class="st4" cx="1038.5" cy="231.5" r="43.5"/>
<circle class="st4" cx="1145.5" cy="231.5" r="43.5"/>
<circle class="st4" cx="1252.5" cy="231.5" r="43.5"/>
<g>
	<path class="st2" d="M1038.5,297c22.9,0,41.5,18.6,41.5,41.5s-18.6,41.5-41.5,41.5S997,361.4,997,338.5S1015.6,297,1038.5,297
		 M1038.5,295c-24,0-43.5,19.5-43.5,43.5s19.5,43.5,43.5,43.5s43.5-19.5,43.5-43.5S1062.5,295,1038.5,295L1038.5,295z"/>
</g>
<g>
	<path class="st2" d="M1145.5,297c22.9,0,41.5,18.6,41.5,41.5s-18.6,41.5-41.5,41.5s-41.5-18.6-41.5-41.5S1122.6,297,1145.5,297
		 M1145.5,295c-24,0-43.5,19.5-43.5,43.5s19.5,43.5,43.5,43.5s43.5-19.5,43.5-43.5S1169.5,295,1145.5,295L1145.5,295z"/>
</g>
<g>
	<path class="st2" d="M1252.5,297c22.9,0,41.5,18.6,41.5,41.5s-18.6,41.5-41.5,41.5s-41.5-18.6-41.5-41.5S1229.6,297,1252.5,297
		 M1252.5,295c-24,0-43.5,19.5-43.5,43.5s19.5,43.5,43.5,43.5s43.5-19.5,43.5-43.5S1276.5,295,1252.5,295L1252.5,295z"/>
</g>
<g>
	<path class="st2" d="M1038.5,404c22.9,0,41.5,18.6,41.5,41.5s-18.6,41.5-41.5,41.5S997,468.4,997,445.5S1015.6,404,1038.5,404
		 M1038.5,402c-24,0-43.5,19.5-43.5,43.5s19.5,43.5,43.5,43.5s43.5-19.5,43.5-43.5S1062.5,402,1038.5,402L1038.5,402z"/>
</g>
<g>
	<path class="st2" d="M1145.5,404c22.9,0,41.5,18.6,41.5,41.5s-18.6,41.5-41.5,41.5s-41.5-18.6-41.5-41.5S1122.6,404,1145.5,404
		 M1145.5,402c-24,0-43.5,19.5-43.5,43.5s19.5,43.5,43.5,43.5s43.5-19.5,43.5-43.5S1169.5,402,1145.5,402L1145.5,402z"/>
</g>
<g>
	<path class="st2" d="M1252.5,404c22.9,0,41.5,18.6,41.5,41.5s-18.6,41.5-41.5,41.5s-41.5-18.6-41.5-41.5S1229.6,404,1252.5,404
		 M1252.5,402c-24,0-43.5,19.5-43.5,43.5s19.5,43.5,43.5,43.5s43.5-19.5,43.5-43.5S1276.5,402,1252.5,402L1252.5,402z"/>
</g>
<g>
	<path class="st0" d="M40.4,120.2c-1.3-1.2-1.9-2.8-1.9-4.6s0.6-3.4,1.9-4.6c1.3-1.2,2.8-1.8,4.6-1.8c1.4,0,2.7,0.4,3.7,1.1
		c1.1,0.7,1.9,1.8,2.3,3.1h-3.7c-0.5-0.9-1.2-1.4-2.3-1.4c-1.1,0-1.9,0.3-2.5,1c-0.6,0.7-0.9,1.5-0.9,2.6s0.3,2,0.9,2.6
		c0.6,0.7,1.4,1,2.5,1c1.1,0,1.8-0.5,2.3-1.4H51c-0.4,1.3-1.2,2.4-2.3,3.1S46.4,122,45,122C43.2,122,41.6,121.4,40.4,120.2z"/>
	<path class="st0" d="M53.8,120.6c-1-0.9-1.5-2.2-1.5-3.7s0.5-2.8,1.5-3.7c1-0.9,2.3-1.4,3.7-1.4s2.7,0.5,3.7,1.4
		c1,0.9,1.5,2.2,1.5,3.7s-0.5,2.8-1.5,3.7S59,122,57.5,122C56,122,54.8,121.5,53.8,120.6z M59,118.7c0.4-0.4,0.6-1.1,0.6-1.9
		s-0.2-1.4-0.6-1.9c-0.4-0.4-0.9-0.6-1.5-0.6s-1.1,0.2-1.5,0.6c-0.4,0.4-0.6,1-0.6,1.9s0.2,1.4,0.6,1.9s0.9,0.6,1.5,0.6
		C58.1,119.4,58.6,119.2,59,118.7z"/>
	<path class="st0" d="M67.8,111.9v1.5c0.6-1.1,1.6-1.6,3-1.6c1.2,0,2.1,0.4,2.8,1.2c0.7,0.8,1.1,1.8,1.1,3.1v5.9h-3.1v-5.5
		c0-0.6-0.2-1.1-0.5-1.5s-0.8-0.5-1.4-0.5c-0.6,0-1.1,0.2-1.4,0.5c-0.3,0.4-0.5,0.9-0.5,1.5v5.5h-3.1v-10H67.8z"/>
	<path class="st0" d="M81.6,119.3h1.1v2.6h-1.6c-1.1,0-2-0.2-2.6-0.7c-0.6-0.5-0.9-1.4-0.9-2.6v-4.2h-0.9v-2.6h0.9v-2.4h3.1v2.4h2
		v2.6h-2v4.2C80.7,119.1,81,119.3,81.6,119.3z"/>
	<path class="st0" d="M87.9,111.9v1.9c0.7-1.3,1.7-2,2.9-2v3.1H90c-0.7,0-1.2,0.2-1.6,0.5c-0.4,0.3-0.5,0.9-0.5,1.8v4.8h-3.1v-10
		H87.9z"/>
	<path class="st0" d="M93.2,120.6c-1-0.9-1.5-2.2-1.5-3.7s0.5-2.8,1.5-3.7c1-0.9,2.3-1.4,3.7-1.4c1.5,0,2.7,0.5,3.7,1.4
		c1,0.9,1.5,2.2,1.5,3.7s-0.5,2.8-1.5,3.7S98.5,122,97,122S94.3,121.5,93.2,120.6z M98.5,118.7c0.4-0.4,0.6-1.1,0.6-1.9
		s-0.2-1.4-0.6-1.9c-0.4-0.4-0.9-0.6-1.5-0.6s-1.1,0.2-1.5,0.6c-0.4,0.4-0.6,1-0.6,1.9s0.2,1.4,0.6,1.9s0.9,0.6,1.5,0.6
		C97.6,119.4,98.1,119.2,98.5,118.7z"/>
	<path class="st0" d="M104.2,121.9v-13.3h3.1v13.3H104.2z"/>
	<path class="st0" d="M57.3,131.1c0,0.9-0.3,1.7-0.9,2.5c-0.3,0.4-0.8,0.7-1.4,1c-0.6,0.3-1.4,0.4-2.3,0.4h-1.9v4.9h-3.1v-12.6h5
		c1.5,0,2.6,0.4,3.4,1.1C56.9,129.1,57.3,130.1,57.3,131.1z M50.8,132.6h1.9c0.5,0,0.8-0.1,1.1-0.4c0.3-0.3,0.4-0.6,0.4-1.1
		c0-0.5-0.1-0.8-0.4-1.1c-0.3-0.3-0.6-0.4-1.1-0.4h-1.9V132.6z"/>
	<path class="st0" d="M59.2,139.9v-13.3h3.1v13.3H59.2z"/>
	<path class="st0" d="M65.6,138.6c-0.9-1-1.3-2.2-1.3-3.7s0.4-2.7,1.3-3.7c0.9-1,2-1.4,3.2-1.4s2.3,0.5,2.9,1.4v-1.3h3.1v10h-3.1
		v-1.5c-0.7,1.1-1.7,1.6-3,1.6S66.4,139.5,65.6,138.6z M71.1,136.7c0.4-0.4,0.7-1,0.7-1.8s-0.2-1.4-0.7-1.8c-0.4-0.4-1-0.6-1.5-0.6
		s-1.1,0.2-1.5,0.6c-0.4,0.4-0.7,1-0.7,1.8s0.2,1.4,0.7,1.8c0.4,0.4,1,0.6,1.5,0.6S70.6,137.1,71.1,136.7z"/>
	<path class="st0" d="M80.6,129.9v1.5c0.6-1.1,1.6-1.6,3-1.6c1.2,0,2.1,0.4,2.8,1.2c0.7,0.8,1.1,1.8,1.1,3.1v5.9h-3.1v-5.5
		c0-0.6-0.2-1.1-0.5-1.5s-0.8-0.5-1.4-0.5c-0.6,0-1.1,0.2-1.4,0.5c-0.3,0.4-0.5,0.9-0.5,1.5v5.5h-3.1v-10H80.6z"/>
	<path class="st0" d="M94.4,140c-1.5,0-2.7-0.5-3.6-1.4c-0.9-0.9-1.4-2.2-1.4-3.8c0-1.6,0.5-2.8,1.4-3.7c0.9-0.9,2.1-1.4,3.6-1.4
		c1.5,0,2.7,0.5,3.7,1.4c1,0.9,1.5,2.2,1.5,3.8c0,0.3,0,0.7-0.1,1h-6.9c0.1,0.4,0.3,0.8,0.6,1.1c0.3,0.3,0.7,0.4,1.1,0.4
		s0.7,0,0.9-0.1c0.2-0.1,0.3-0.2,0.4-0.2c0.1-0.1,0.2-0.2,0.4-0.4h3.3c-0.3,1-0.9,1.8-1.7,2.4C96.6,139.7,95.6,140,94.4,140z
		 M95.7,132.8c-0.4-0.3-0.8-0.4-1.3-0.4s-0.9,0.1-1.2,0.4c-0.3,0.3-0.5,0.7-0.6,1.1h3.8C96.3,133.5,96.1,133.1,95.7,132.8z"/>
</g>
<g>
	<path class="st0" d="M147.4,120.2c-1.3-1.2-1.9-2.8-1.9-4.6s0.6-3.4,1.9-4.6c1.3-1.2,2.8-1.8,4.6-1.8c1.4,0,2.7,0.4,3.7,1.1
		c1.1,0.7,1.9,1.8,2.3,3.1h-3.7c-0.5-0.9-1.2-1.4-2.3-1.4c-1.1,0-1.9,0.3-2.5,1c-0.6,0.7-0.9,1.5-0.9,2.6s0.3,2,0.9,2.6
		c0.6,0.7,1.4,1,2.5,1c1.1,0,1.8-0.5,2.3-1.4h3.7c-0.4,1.3-1.2,2.4-2.3,3.1s-2.3,1.1-3.7,1.1C150.2,122,148.6,121.4,147.4,120.2z"/>
	<path class="st0" d="M160.8,120.6c-1-0.9-1.5-2.2-1.5-3.7s0.5-2.8,1.5-3.7c1-0.9,2.3-1.4,3.7-1.4s2.7,0.5,3.7,1.4
		c1,0.9,1.5,2.2,1.5,3.7s-0.5,2.8-1.5,3.7s-2.2,1.4-3.7,1.4C163,122,161.8,121.5,160.8,120.6z M166,118.7c0.4-0.4,0.6-1.1,0.6-1.9
		s-0.2-1.4-0.6-1.9c-0.4-0.4-0.9-0.6-1.5-0.6s-1.1,0.2-1.5,0.6c-0.4,0.4-0.6,1-0.6,1.9s0.2,1.4,0.6,1.9s0.9,0.6,1.5,0.6
		C165.1,119.4,165.6,119.2,166,118.7z"/>
	<path class="st0" d="M174.8,111.9v1.5c0.6-1.1,1.6-1.6,3-1.6c1.2,0,2.1,0.4,2.8,1.2c0.7,0.8,1.1,1.8,1.1,3.1v5.9h-3.1v-5.5
		c0-0.6-0.2-1.1-0.5-1.5s-0.8-0.5-1.4-0.5c-0.6,0-1.1,0.2-1.4,0.5c-0.3,0.4-0.5,0.9-0.5,1.5v5.5h-3.1v-10H174.8z"/>
	<path class="st0" d="M188.6,119.3h1.1v2.6h-1.6c-1.1,0-2-0.2-2.6-0.7c-0.6-0.5-0.9-1.4-0.9-2.6v-4.2h-0.9v-2.6h0.9v-2.4h3.1v2.4h2
		v2.6h-2v4.2C187.7,119.1,188,119.3,188.6,119.3z"/>
	<path class="st0" d="M194.9,111.9v1.9c0.7-1.3,1.7-2,2.9-2v3.1H197c-0.7,0-1.2,0.2-1.6,0.5c-0.4,0.3-0.5,0.9-0.5,1.8v4.8h-3.1v-10
		H194.9z"/>
	<path class="st0" d="M200.2,120.6c-1-0.9-1.5-2.2-1.5-3.7s0.5-2.8,1.5-3.7c1-0.9,2.3-1.4,3.7-1.4c1.5,0,2.7,0.5,3.7,1.4
		c1,0.9,1.5,2.2,1.5,3.7s-0.5,2.8-1.5,3.7s-2.2,1.4-3.7,1.4S201.3,121.5,200.2,120.6z M205.5,118.7c0.4-0.4,0.6-1.1,0.6-1.9
		s-0.2-1.4-0.6-1.9c-0.4-0.4-0.9-0.6-1.5-0.6s-1.1,0.2-1.5,0.6c-0.4,0.4-0.6,1-0.6,1.9s0.2,1.4,0.6,1.9s0.9,0.6,1.5,0.6
		C204.6,119.4,205.1,119.2,205.5,118.7z"/>
	<path class="st0" d="M211.2,121.9v-13.3h3.1v13.3H211.2z"/>
	<path class="st0" d="M164.3,131.1c0,0.9-0.3,1.7-0.9,2.5c-0.3,0.4-0.8,0.7-1.4,1c-0.6,0.3-1.4,0.4-2.3,0.4h-1.9v4.9h-3.1v-12.6h5
		c1.5,0,2.6,0.4,3.4,1.1C163.9,129.1,164.3,130.1,164.3,131.1z M157.8,132.6h1.9c0.5,0,0.8-0.1,1.1-0.4c0.3-0.3,0.4-0.6,0.4-1.1
		c0-0.5-0.1-0.8-0.4-1.1c-0.3-0.3-0.6-0.4-1.1-0.4h-1.9V132.6z"/>
	<path class="st0" d="M166.2,139.9v-13.3h3.1v13.3H166.2z"/>
	<path class="st0" d="M172.6,138.6c-0.9-1-1.3-2.2-1.3-3.7s0.4-2.7,1.3-3.7c0.9-1,2-1.4,3.2-1.4s2.3,0.5,2.9,1.4v-1.3h3.1v10h-3.1
		v-1.5c-0.7,1.1-1.7,1.6-3,1.6S173.4,139.5,172.6,138.6z M178.1,136.7c0.4-0.4,0.7-1,0.7-1.8s-0.2-1.4-0.7-1.8
		c-0.4-0.4-1-0.6-1.5-0.6s-1.1,0.2-1.5,0.6c-0.4,0.4-0.7,1-0.7,1.8s0.2,1.4,0.7,1.8c0.4,0.4,1,0.6,1.5,0.6S177.6,137.1,178.1,136.7z
		"/>
	<path class="st0" d="M187.6,129.9v1.5c0.6-1.1,1.6-1.6,3-1.6c1.2,0,2.1,0.4,2.8,1.2c0.7,0.8,1.1,1.8,1.1,3.1v5.9h-3.1v-5.5
		c0-0.6-0.2-1.1-0.5-1.5s-0.8-0.5-1.4-0.5c-0.6,0-1.1,0.2-1.4,0.5c-0.3,0.4-0.5,0.9-0.5,1.5v5.5h-3.1v-10H187.6z"/>
	<path class="st0" d="M201.4,140c-1.5,0-2.7-0.5-3.6-1.4c-0.9-0.9-1.4-2.2-1.4-3.8c0-1.6,0.5-2.8,1.4-3.7c0.9-0.9,2.1-1.4,3.6-1.4
		c1.5,0,2.7,0.5,3.7,1.4c1,0.9,1.5,2.2,1.5,3.8c0,0.3,0,0.7-0.1,1h-6.9c0.1,0.4,0.3,0.8,0.6,1.1c0.3,0.3,0.7,0.4,1.1,0.4
		s0.7,0,0.9-0.1c0.2-0.1,0.3-0.2,0.4-0.2c0.1-0.1,0.2-0.2,0.4-0.4h3.3c-0.3,1-0.9,1.8-1.7,2.4C203.6,139.7,202.6,140,201.4,140z
		 M202.7,132.8c-0.4-0.3-0.8-0.4-1.3-0.4s-0.9,0.1-1.2,0.4c-0.3,0.3-0.5,0.7-0.6,1.1h3.8C203.3,133.5,203.1,133.1,202.7,132.8z"/>
</g>
<g>
	<path class="st0" d="M254.4,120.2c-1.3-1.2-1.9-2.8-1.9-4.6s0.6-3.4,1.9-4.6c1.3-1.2,2.8-1.8,4.6-1.8c1.4,0,2.7,0.4,3.7,1.1
		c1.1,0.7,1.9,1.8,2.3,3.1h-3.7c-0.5-0.9-1.2-1.4-2.3-1.4c-1.1,0-1.9,0.3-2.5,1c-0.6,0.7-0.9,1.5-0.9,2.6s0.3,2,0.9,2.6
		c0.6,0.7,1.4,1,2.5,1c1.1,0,1.8-0.5,2.3-1.4h3.7c-0.4,1.3-1.2,2.4-2.3,3.1s-2.3,1.1-3.7,1.1C257.2,122,255.6,121.4,254.4,120.2z"/>
	<path class="st0" d="M267.8,120.6c-1-0.9-1.5-2.2-1.5-3.7s0.5-2.8,1.5-3.7c1-0.9,2.3-1.4,3.7-1.4s2.7,0.5,3.7,1.4
		c1,0.9,1.5,2.2,1.5,3.7s-0.5,2.8-1.5,3.7s-2.2,1.4-3.7,1.4C270,122,268.8,121.5,267.8,120.6z M273,118.7c0.4-0.4,0.6-1.1,0.6-1.9
		s-0.2-1.4-0.6-1.9c-0.4-0.4-0.9-0.6-1.5-0.6s-1.1,0.2-1.5,0.6c-0.4,0.4-0.6,1-0.6,1.9s0.2,1.4,0.6,1.9s0.9,0.6,1.5,0.6
		C272.1,119.4,272.6,119.2,273,118.7z"/>
	<path class="st0" d="M281.8,111.9v1.5c0.6-1.1,1.6-1.6,3-1.6c1.2,0,2.1,0.4,2.8,1.2c0.7,0.8,1.1,1.8,1.1,3.1v5.9h-3.1v-5.5
		c0-0.6-0.2-1.1-0.5-1.5s-0.8-0.5-1.4-0.5c-0.6,0-1.1,0.2-1.4,0.5c-0.3,0.4-0.5,0.9-0.5,1.5v5.5h-3.1v-10H281.8z"/>
	<path class="st0" d="M295.6,119.3h1.1v2.6h-1.6c-1.1,0-2-0.2-2.6-0.7c-0.6-0.5-0.9-1.4-0.9-2.6v-4.2h-0.9v-2.6h0.9v-2.4h3.1v2.4h2
		v2.6h-2v4.2C294.7,119.1,295,119.3,295.6,119.3z"/>
	<path class="st0" d="M301.9,111.9v1.9c0.7-1.3,1.7-2,2.9-2v3.1H304c-0.7,0-1.2,0.2-1.6,0.5c-0.4,0.3-0.5,0.9-0.5,1.8v4.8h-3.1v-10
		H301.9z"/>
	<path class="st0" d="M307.2,120.6c-1-0.9-1.5-2.2-1.5-3.7s0.5-2.8,1.5-3.7c1-0.9,2.3-1.4,3.7-1.4c1.5,0,2.7,0.5,3.7,1.4
		c1,0.9,1.5,2.2,1.5,3.7s-0.5,2.8-1.5,3.7s-2.2,1.4-3.7,1.4S308.3,121.5,307.2,120.6z M312.5,118.7c0.4-0.4,0.6-1.1,0.6-1.9
		s-0.2-1.4-0.6-1.9c-0.4-0.4-0.9-0.6-1.5-0.6s-1.1,0.2-1.5,0.6c-0.4,0.4-0.6,1-0.6,1.9s0.2,1.4,0.6,1.9s0.9,0.6,1.5,0.6
		C311.6,119.4,312.1,119.2,312.5,118.7z"/>
	<path class="st0" d="M318.2,121.9v-13.3h3.1v13.3H318.2z"/>
	<path class="st0" d="M271.3,131.1c0,0.9-0.3,1.7-0.9,2.5c-0.3,0.4-0.8,0.7-1.4,1c-0.6,0.3-1.4,0.4-2.3,0.4h-1.9v4.9h-3.1v-12.6h5
		c1.5,0,2.6,0.4,3.4,1.1C270.9,129.1,271.3,130.1,271.3,131.1z M264.8,132.6h1.9c0.5,0,0.8-0.1,1.1-0.4c0.3-0.3,0.4-0.6,0.4-1.1
		c0-0.5-0.1-0.8-0.4-1.1c-0.3-0.3-0.6-0.4-1.1-0.4h-1.9V132.6z"/>
	<path class="st0" d="M273.2,139.9v-13.3h3.1v13.3H273.2z"/>
	<path class="st0" d="M279.6,138.6c-0.9-1-1.3-2.2-1.3-3.7s0.4-2.7,1.3-3.7c0.9-1,2-1.4,3.2-1.4s2.3,0.5,2.9,1.4v-1.3h3.1v10h-3.1
		v-1.5c-0.7,1.1-1.7,1.6-3,1.6S280.4,139.5,279.6,138.6z M285.1,136.7c0.4-0.4,0.7-1,0.7-1.8s-0.2-1.4-0.7-1.8
		c-0.4-0.4-1-0.6-1.5-0.6s-1.1,0.2-1.5,0.6c-0.4,0.4-0.7,1-0.7,1.8s0.2,1.4,0.7,1.8c0.4,0.4,1,0.6,1.5,0.6S284.6,137.1,285.1,136.7z
		"/>
	<path class="st0" d="M294.6,129.9v1.5c0.6-1.1,1.6-1.6,3-1.6c1.2,0,2.1,0.4,2.8,1.2c0.7,0.8,1.1,1.8,1.1,3.1v5.9h-3.1v-5.5
		c0-0.6-0.2-1.1-0.5-1.5s-0.8-0.5-1.4-0.5c-0.6,0-1.1,0.2-1.4,0.5c-0.3,0.4-0.5,0.9-0.5,1.5v5.5h-3.1v-10H294.6z"/>
	<path class="st0" d="M308.4,140c-1.5,0-2.7-0.5-3.6-1.4c-0.9-0.9-1.4-2.2-1.4-3.8c0-1.6,0.5-2.8,1.4-3.7c0.9-0.9,2.1-1.4,3.6-1.4
		c1.5,0,2.7,0.5,3.7,1.4c1,0.9,1.5,2.2,1.5,3.8c0,0.3,0,0.7-0.1,1h-6.9c0.1,0.4,0.3,0.8,0.6,1.1c0.3,0.3,0.7,0.4,1.1,0.4
		s0.7,0,0.9-0.1c0.2-0.1,0.3-0.2,0.4-0.2c0.1-0.1,0.2-0.2,0.4-0.4h3.3c-0.3,1-0.9,1.8-1.7,2.4C310.6,139.7,309.6,140,308.4,140z
		 M309.7,132.8c-0.4-0.3-0.8-0.4-1.3-0.4s-0.9,0.1-1.2,0.4c-0.3,0.3-0.5,0.7-0.6,1.1h3.8C310.3,133.5,310.1,133.1,309.7,132.8z"/>
</g>
<g>
	<path class="st0" d="M370.5,119.5c-0.4,0-0.7,0.1-0.9,0.3c-0.2,0.2-0.4,0.5-0.4,0.9c0,0.4,0.1,0.7,0.3,0.9c0.2,0.2,0.5,0.4,0.9,0.5
		c0.4,0.1,0.8,0.2,1.2,0.4c0.5,0.1,0.9,0.3,1.3,0.4c0.4,0.2,0.8,0.4,1.2,0.6c0.4,0.2,0.7,0.6,0.9,1s0.3,1,0.3,1.6
		c0,1.1-0.4,2-1.3,2.7c-0.9,0.8-2,1.1-3.4,1.1s-2.6-0.3-3.4-1c-0.9-0.7-1.3-1.7-1.3-2.9h3.3c0.1,1,0.6,1.5,1.5,1.5
		c0.4,0,0.8-0.1,1-0.4c0.3-0.2,0.4-0.5,0.4-0.9s-0.1-0.7-0.3-0.9c-0.2-0.2-0.5-0.4-0.9-0.5c-0.4-0.1-0.8-0.3-1.2-0.4
		c-0.5-0.1-0.9-0.3-1.3-0.4s-0.8-0.4-1.2-0.6c-0.4-0.2-0.7-0.6-0.9-1c-0.2-0.4-0.3-1-0.3-1.6c0-1.2,0.4-2.1,1.3-2.8s2-1.1,3.4-1.1
		c1.4,0,2.5,0.3,3.3,0.9c0.8,0.6,1.3,1.6,1.3,2.9h-3.3c0-0.5-0.2-0.8-0.4-1.1C371.2,119.6,370.9,119.5,370.5,119.5z"/>
	<path class="st0" d="M384.7,119.9h3.1v10h-3.1v-1.5c-0.6,1.1-1.6,1.6-3,1.6c-1.2,0-2.1-0.4-2.8-1.2c-0.7-0.8-1.1-1.8-1.1-3.1v-5.9
		h3.1v5.5c0,0.6,0.2,1.1,0.5,1.5s0.8,0.5,1.4,0.5c0.6,0,1.1-0.2,1.4-0.5s0.5-0.9,0.5-1.5V119.9z"/>
	<path class="st0" d="M393.5,121.2c0.7-0.9,1.7-1.4,2.9-1.4c1.3,0,2.4,0.5,3.2,1.4c0.9,1,1.3,2.2,1.3,3.7s-0.4,2.7-1.3,3.7
		c-0.9,1-2,1.4-3.2,1.4c-1.3,0-2.2-0.5-3-1.6v1.5h-3.1v-13.3h3.1V121.2z M397.3,126.7c0.4-0.4,0.7-1,0.7-1.8s-0.2-1.4-0.7-1.8
		c-0.4-0.4-1-0.6-1.5-0.6s-1.1,0.2-1.5,0.6c-0.4,0.4-0.7,1-0.7,1.8s0.2,1.4,0.7,1.8c0.4,0.4,1,0.6,1.5,0.6S396.8,127.1,397.3,126.7z
		"/>
	<path class="st0" d="M406.1,119.9v1.5c0.6-1.1,1.6-1.6,3-1.6c0.7,0,1.4,0.2,2,0.5s1,0.8,1.4,1.4c0.4-0.6,0.9-1.1,1.4-1.4
		c0.6-0.4,1.3-0.5,2-0.5c1.2,0,2.2,0.4,2.9,1.1s1.1,1.8,1.1,3.1v5.9h-3.1v-5.5c0-0.6-0.2-1.1-0.5-1.5s-0.8-0.5-1.4-0.5
		c-0.6,0-1.1,0.2-1.4,0.5s-0.5,0.9-0.5,1.5v5.5H410v-5.5c0-0.6-0.2-1.1-0.5-1.5s-0.8-0.5-1.4-0.5c-0.6,0-1.1,0.2-1.4,0.5
		c-0.3,0.4-0.5,0.9-0.5,1.5v5.5H403v-10H406.1z"/>
	<path class="st0" d="M423.1,128.6c-0.9-1-1.3-2.2-1.3-3.7s0.4-2.7,1.3-3.7c0.9-1,2-1.4,3.2-1.4s2.3,0.5,2.9,1.4v-1.3h3.1v10h-3.1
		v-1.5c-0.7,1.1-1.7,1.6-3,1.6S424,129.5,423.1,128.6z M428.7,126.7c0.4-0.4,0.7-1,0.7-1.8s-0.2-1.4-0.7-1.8c-0.4-0.4-1-0.6-1.5-0.6
		s-1.1,0.2-1.5,0.6c-0.4,0.4-0.7,1-0.7,1.8s0.2,1.4,0.7,1.8c0.4,0.4,1,0.6,1.5,0.6S428.2,127.1,428.7,126.7z"/>
	<path class="st0" d="M438.2,119.9v1.9c0.7-1.3,1.7-2,2.9-2v3.1h-0.8c-0.7,0-1.2,0.2-1.6,0.5c-0.4,0.3-0.5,0.9-0.5,1.8v4.8h-3.1v-10
		H438.2z"/>
	<path class="st0" d="M445.6,118.7c-0.3,0.3-0.8,0.5-1.3,0.5s-0.9-0.2-1.3-0.5c-0.3-0.3-0.5-0.8-0.5-1.3s0.2-0.9,0.5-1.3
		s0.8-0.5,1.3-0.5s0.9,0.2,1.3,0.5c0.3,0.3,0.5,0.8,0.5,1.3S445.9,118.4,445.6,118.7z M442.7,129.9v-10h3.1v10H442.7z"/>
	<path class="st0" d="M451.6,119.9v1.5c0.6-1.1,1.6-1.6,3-1.6c1.2,0,2.1,0.4,2.8,1.2c0.7,0.8,1.1,1.8,1.1,3.1v5.9h-3.1v-5.5
		c0-0.6-0.2-1.1-0.5-1.5s-0.8-0.5-1.4-0.5s-1.1,0.2-1.4,0.5s-0.5,0.9-0.5,1.5v5.5h-3.1v-10H451.6z"/>
	<path class="st0" d="M465.4,130c-1.5,0-2.7-0.5-3.6-1.4c-0.9-0.9-1.4-2.2-1.4-3.8c0-1.6,0.5-2.8,1.4-3.7c0.9-0.9,2.1-1.4,3.6-1.4
		c1.5,0,2.7,0.5,3.7,1.4c1,0.9,1.5,2.2,1.5,3.8c0,0.3,0,0.7-0.1,1h-6.9c0.1,0.4,0.3,0.8,0.6,1.1c0.3,0.3,0.7,0.4,1.1,0.4
		c0.4,0,0.7,0,0.9-0.1c0.2-0.1,0.3-0.2,0.4-0.2c0.1-0.1,0.2-0.2,0.4-0.4h3.3c-0.3,1-0.9,1.8-1.7,2.4
		C467.6,129.7,466.6,130,465.4,130z M466.7,122.8c-0.4-0.3-0.8-0.4-1.3-0.4s-0.9,0.1-1.2,0.4c-0.3,0.3-0.5,0.7-0.6,1.1h3.8
		C467.3,123.5,467.1,123.1,466.7,122.8z"/>
	<path class="st0" d="M475.6,119.9v1.9c0.7-1.3,1.7-2,2.9-2v3.1h-0.8c-0.7,0-1.2,0.2-1.6,0.5c-0.4,0.3-0.5,0.9-0.5,1.8v4.8h-3.1v-10
		H475.6z"/>
	<path class="st0" d="M493.5,117.3h3.1v12.6h-3.1v-5.2h-4.9v5.2h-3.1v-12.6h3.1v5.1h4.9V117.3z"/>
	<path class="st0" d="M500.1,128.6c-1-0.9-1.5-2.2-1.5-3.7s0.5-2.8,1.5-3.7c1-0.9,2.3-1.4,3.7-1.4c1.5,0,2.7,0.5,3.7,1.4
		c1,0.9,1.5,2.2,1.5,3.7s-0.5,2.8-1.5,3.7s-2.2,1.4-3.7,1.4C502.3,130,501.1,129.5,500.1,128.6z M505.3,126.7
		c0.4-0.4,0.6-1.1,0.6-1.9s-0.2-1.4-0.6-1.9c-0.4-0.4-0.9-0.6-1.5-0.6c-0.6,0-1.1,0.2-1.5,0.6c-0.4,0.4-0.6,1-0.6,1.9
		s0.2,1.4,0.6,1.9s0.9,0.6,1.5,0.6S504.9,127.2,505.3,126.7z"/>
	<path class="st0" d="M510.3,122.9c0-0.9,0.4-1.6,1.1-2.2c0.8-0.6,1.8-0.9,3.1-0.9c1.3,0,2.3,0.3,3.1,0.9s1.2,1.4,1.3,2.4h-3.2
		c0-0.3-0.2-0.6-0.4-0.7c-0.2-0.1-0.5-0.2-0.9-0.2c-0.8,0-1.2,0.2-1.2,0.7c0,0.4,0.5,0.8,1.5,0.9c1,0.2,1.9,0.4,2.7,0.8
		c0.4,0.2,0.8,0.4,1.1,0.8c0.3,0.4,0.4,0.9,0.4,1.4c0,0.9-0.4,1.7-1.2,2.3c-0.8,0.6-1.8,0.9-3,0.9s-2.2-0.3-3.1-0.8
		c-0.8-0.6-1.3-1.4-1.3-2.5h3.1c0.1,0.6,0.5,0.9,1.3,0.9c0.4,0,0.7-0.1,0.9-0.3c0.2-0.2,0.4-0.4,0.4-0.6c0-0.3-0.2-0.5-0.6-0.6
		s-0.9-0.3-1.4-0.4s-1.1-0.2-1.7-0.4s-1-0.4-1.4-0.8S510.3,123.5,510.3,122.9z"/>
	<path class="st0" d="M525.3,127.3h1.1v2.6h-1.6c-1.1,0-2-0.2-2.6-0.7c-0.6-0.5-0.9-1.4-0.9-2.6v-4.2h-0.9v-2.6h0.9v-2.4h3.1v2.4h2
		v2.6h-2v4.2C524.3,127.1,524.6,127.3,525.3,127.3z"/>
</g>
<g>
	<path class="st0" d="M370.5,333.5c-0.4,0-0.7,0.1-0.9,0.3c-0.2,0.2-0.4,0.5-0.4,0.9c0,0.4,0.1,0.7,0.3,0.9c0.2,0.2,0.5,0.4,0.9,0.5
		c0.4,0.1,0.8,0.2,1.2,0.4c0.5,0.1,0.9,0.3,1.3,0.4c0.4,0.2,0.8,0.4,1.2,0.6c0.4,0.2,0.7,0.6,0.9,1s0.3,1,0.3,1.6
		c0,1.1-0.4,2-1.3,2.7c-0.9,0.8-2,1.1-3.4,1.1s-2.6-0.3-3.4-1c-0.9-0.7-1.3-1.7-1.3-2.9h3.3c0.1,1,0.6,1.5,1.5,1.5
		c0.4,0,0.8-0.1,1-0.4c0.3-0.2,0.4-0.5,0.4-0.9s-0.1-0.7-0.3-0.9c-0.2-0.2-0.5-0.4-0.9-0.5c-0.4-0.1-0.8-0.3-1.2-0.4
		c-0.5-0.1-0.9-0.3-1.3-0.4s-0.8-0.4-1.2-0.6c-0.4-0.2-0.7-0.6-0.9-1c-0.2-0.4-0.3-1-0.3-1.6c0-1.2,0.4-2.1,1.3-2.8s2-1.1,3.4-1.1
		c1.4,0,2.5,0.3,3.3,0.9c0.8,0.6,1.3,1.6,1.3,2.9h-3.3c0-0.5-0.2-0.8-0.4-1.1C371.2,333.6,370.9,333.5,370.5,333.5z"/>
	<path class="st0" d="M384.7,333.9h3.1v10h-3.1v-1.5c-0.6,1.1-1.6,1.6-3,1.6c-1.2,0-2.1-0.4-2.8-1.2c-0.7-0.8-1.1-1.8-1.1-3.1v-5.9
		h3.1v5.5c0,0.6,0.2,1.1,0.5,1.5s0.8,0.5,1.4,0.5c0.6,0,1.1-0.2,1.4-0.5s0.5-0.9,0.5-1.5V333.9z"/>
	<path class="st0" d="M393.5,335.2c0.7-0.9,1.7-1.4,2.9-1.4c1.3,0,2.4,0.5,3.2,1.4c0.9,1,1.3,2.2,1.3,3.7s-0.4,2.7-1.3,3.7
		c-0.9,1-2,1.4-3.2,1.4c-1.3,0-2.2-0.5-3-1.6v1.5h-3.1v-13.3h3.1V335.2z M397.3,340.7c0.4-0.4,0.7-1,0.7-1.8s-0.2-1.4-0.7-1.8
		c-0.4-0.4-1-0.6-1.5-0.6s-1.1,0.2-1.5,0.6c-0.4,0.4-0.7,1-0.7,1.8s0.2,1.4,0.7,1.8c0.4,0.4,1,0.6,1.5,0.6S396.8,341.1,397.3,340.7z
		"/>
	<path class="st0" d="M406.1,333.9v1.5c0.6-1.1,1.6-1.6,3-1.6c0.7,0,1.4,0.2,2,0.5s1,0.8,1.4,1.4c0.4-0.6,0.9-1.1,1.4-1.4
		c0.6-0.4,1.3-0.5,2-0.5c1.2,0,2.2,0.4,2.9,1.1s1.1,1.8,1.1,3.1v5.9h-3.1v-5.5c0-0.6-0.2-1.1-0.5-1.5s-0.8-0.5-1.4-0.5
		c-0.6,0-1.1,0.2-1.4,0.5s-0.5,0.9-0.5,1.5v5.5H410v-5.5c0-0.6-0.2-1.1-0.5-1.5s-0.8-0.5-1.4-0.5c-0.6,0-1.1,0.2-1.4,0.5
		c-0.3,0.4-0.5,0.9-0.5,1.5v5.5H403v-10H406.1z"/>
	<path class="st0" d="M423.1,342.6c-0.9-1-1.3-2.2-1.3-3.7s0.4-2.7,1.3-3.7c0.9-1,2-1.4,3.2-1.4s2.3,0.5,2.9,1.4v-1.3h3.1v10h-3.1
		v-1.5c-0.7,1.1-1.7,1.6-3,1.6S424,343.5,423.1,342.6z M428.7,340.7c0.4-0.4,0.7-1,0.7-1.8s-0.2-1.4-0.7-1.8c-0.4-0.4-1-0.6-1.5-0.6
		s-1.1,0.2-1.5,0.6c-0.4,0.4-0.7,1-0.7,1.8s0.2,1.4,0.7,1.8c0.4,0.4,1,0.6,1.5,0.6S428.2,341.1,428.7,340.7z"/>
	<path class="st0" d="M438.2,333.9v1.9c0.7-1.3,1.7-2,2.9-2v3.1h-0.8c-0.7,0-1.2,0.2-1.6,0.5c-0.4,0.3-0.5,0.9-0.5,1.8v4.8h-3.1v-10
		H438.2z"/>
	<path class="st0" d="M445.6,332.7c-0.3,0.3-0.8,0.5-1.3,0.5s-0.9-0.2-1.3-0.5c-0.3-0.3-0.5-0.8-0.5-1.3s0.2-0.9,0.5-1.3
		s0.8-0.5,1.3-0.5s0.9,0.2,1.3,0.5c0.3,0.3,0.5,0.8,0.5,1.3S445.9,332.4,445.6,332.7z M442.7,343.9v-10h3.1v10H442.7z"/>
	<path class="st0" d="M451.6,333.9v1.5c0.6-1.1,1.6-1.6,3-1.6c1.2,0,2.1,0.4,2.8,1.2c0.7,0.8,1.1,1.8,1.1,3.1v5.9h-3.1v-5.5
		c0-0.6-0.2-1.1-0.5-1.5s-0.8-0.5-1.4-0.5s-1.1,0.2-1.4,0.5s-0.5,0.9-0.5,1.5v5.5h-3.1v-10H451.6z"/>
	<path class="st0" d="M465.4,344c-1.5,0-2.7-0.5-3.6-1.4c-0.9-0.9-1.4-2.2-1.4-3.8c0-1.6,0.5-2.8,1.4-3.7c0.9-0.9,2.1-1.4,3.6-1.4
		c1.5,0,2.7,0.5,3.7,1.4c1,0.9,1.5,2.2,1.5,3.8c0,0.3,0,0.7-0.1,1h-6.9c0.1,0.4,0.3,0.8,0.6,1.1c0.3,0.3,0.7,0.4,1.1,0.4
		c0.4,0,0.7,0,0.9-0.1c0.2-0.1,0.3-0.2,0.4-0.2c0.1-0.1,0.2-0.2,0.4-0.4h3.3c-0.3,1-0.9,1.8-1.7,2.4
		C467.6,343.7,466.6,344,465.4,344z M466.7,336.8c-0.4-0.3-0.8-0.4-1.3-0.4s-0.9,0.1-1.2,0.4c-0.3,0.3-0.5,0.7-0.6,1.1h3.8
		C467.3,337.5,467.1,337.1,466.7,336.8z"/>
	<path class="st0" d="M475.6,333.9v1.9c0.7-1.3,1.7-2,2.9-2v3.1h-0.8c-0.7,0-1.2,0.2-1.6,0.5c-0.4,0.3-0.5,0.9-0.5,1.8v4.8h-3.1v-10
		H475.6z"/>
	<path class="st0" d="M493.5,331.3h3.1v12.6h-3.1v-5.2h-4.9v5.2h-3.1v-12.6h3.1v5.1h4.9V331.3z"/>
	<path class="st0" d="M500.1,342.6c-1-0.9-1.5-2.2-1.5-3.7s0.5-2.8,1.5-3.7c1-0.9,2.3-1.4,3.7-1.4c1.5,0,2.7,0.5,3.7,1.4
		c1,0.9,1.5,2.2,1.5,3.7s-0.5,2.8-1.5,3.7s-2.2,1.4-3.7,1.4C502.3,344,501.1,343.5,500.1,342.6z M505.3,340.7
		c0.4-0.4,0.6-1.1,0.6-1.9s-0.2-1.4-0.6-1.9c-0.4-0.4-0.9-0.6-1.5-0.6c-0.6,0-1.1,0.2-1.5,0.6c-0.4,0.4-0.6,1-0.6,1.9
		s0.2,1.4,0.6,1.9s0.9,0.6,1.5,0.6S504.9,341.2,505.3,340.7z"/>
	<path class="st0" d="M510.3,336.9c0-0.9,0.4-1.6,1.1-2.2c0.8-0.6,1.8-0.9,3.1-0.9c1.3,0,2.3,0.3,3.1,0.9s1.2,1.4,1.3,2.4h-3.2
		c0-0.3-0.2-0.6-0.4-0.7c-0.2-0.1-0.5-0.2-0.9-0.2c-0.8,0-1.2,0.2-1.2,0.7c0,0.4,0.5,0.8,1.5,0.9c1,0.2,1.9,0.4,2.7,0.8
		c0.4,0.2,0.8,0.4,1.1,0.8c0.3,0.4,0.4,0.9,0.4,1.4c0,0.9-0.4,1.7-1.2,2.3c-0.8,0.6-1.8,0.9-3,0.9s-2.2-0.3-3.1-0.8
		c-0.8-0.6-1.3-1.4-1.3-2.5h3.1c0.1,0.6,0.5,0.9,1.3,0.9c0.4,0,0.7-0.1,0.9-0.3c0.2-0.2,0.4-0.4,0.4-0.6c0-0.3-0.2-0.5-0.6-0.6
		s-0.9-0.3-1.4-0.4s-1.1-0.2-1.7-0.4s-1-0.4-1.4-0.8S510.3,337.5,510.3,336.9z"/>
	<path class="st0" d="M525.3,341.3h1.1v2.6h-1.6c-1.1,0-2-0.2-2.6-0.7c-0.6-0.5-0.9-1.4-0.9-2.6v-4.2h-0.9v-2.6h0.9v-2.4h3.1v2.4h2
		v2.6h-2v4.2C524.3,341.1,524.6,341.3,525.3,341.3z"/>
</g>
<path class="st3" d="M933.5,168c24,0,43.5-19.5,43.5-43.5S957.5,81,933.5,81h-113c-24,0-43.5,19.5-43.5,43.5s19.5,43.5,43.5,43.5
	H933.5z"/>
<path class="st3" d="M933.5,382c24,0,43.5-19.5,43.5-43.5S957.5,295,933.5,295h-113c-24,0-43.5,19.5-43.5,43.5s19.5,43.5,43.5,43.5
	H933.5z"/>
<g>
	<path class="st0" d="M801.5,119.5c-0.4,0-0.7,0.1-0.9,0.3c-0.2,0.2-0.4,0.5-0.4,0.9c0,0.4,0.1,0.7,0.3,0.9c0.2,0.2,0.5,0.4,0.9,0.5
		c0.4,0.1,0.8,0.2,1.2,0.4c0.5,0.1,0.9,0.3,1.3,0.4c0.4,0.2,0.8,0.4,1.2,0.6c0.4,0.2,0.7,0.6,0.9,1s0.3,1,0.3,1.6
		c0,1.1-0.4,2-1.3,2.7c-0.9,0.8-2,1.1-3.4,1.1s-2.6-0.3-3.4-1c-0.9-0.7-1.3-1.7-1.3-2.9h3.3c0.1,1,0.6,1.5,1.5,1.5
		c0.4,0,0.8-0.1,1-0.4c0.3-0.2,0.4-0.5,0.4-0.9s-0.1-0.7-0.3-0.9c-0.2-0.2-0.5-0.4-0.9-0.5c-0.4-0.1-0.8-0.3-1.2-0.4
		c-0.5-0.1-0.9-0.3-1.3-0.4s-0.8-0.4-1.2-0.6c-0.4-0.2-0.7-0.6-0.9-1c-0.2-0.4-0.3-1-0.3-1.6c0-1.2,0.4-2.1,1.3-2.8s2-1.1,3.4-1.1
		c1.4,0,2.5,0.3,3.3,0.9c0.8,0.6,1.3,1.6,1.3,2.9h-3.3c0-0.5-0.2-0.8-0.4-1.1C802.2,119.6,801.9,119.5,801.5,119.5z"/>
	<path class="st0" d="M815.7,119.9h3.1v10h-3.1v-1.5c-0.6,1.1-1.6,1.6-3,1.6c-1.2,0-2.1-0.4-2.8-1.2c-0.7-0.8-1.1-1.8-1.1-3.1v-5.9
		h3.1v5.5c0,0.6,0.2,1.1,0.5,1.5s0.8,0.5,1.4,0.5c0.6,0,1.1-0.2,1.4-0.5s0.5-0.9,0.5-1.5V119.9z"/>
	<path class="st0" d="M824.5,121.2c0.7-0.9,1.7-1.4,2.9-1.4c1.3,0,2.4,0.5,3.2,1.4c0.9,1,1.3,2.2,1.3,3.7s-0.4,2.7-1.3,3.7
		c-0.9,1-2,1.4-3.2,1.4c-1.3,0-2.2-0.5-3-1.6v1.5h-3.1v-13.3h3.1V121.2z M828.3,126.7c0.4-0.4,0.7-1,0.7-1.8s-0.2-1.4-0.7-1.8
		c-0.4-0.4-1-0.6-1.5-0.6s-1.1,0.2-1.5,0.6c-0.4,0.4-0.7,1-0.7,1.8s0.2,1.4,0.7,1.8c0.4,0.4,1,0.6,1.5,0.6S827.8,127.1,828.3,126.7z
		"/>
	<path class="st0" d="M837.1,119.9v1.5c0.6-1.1,1.6-1.6,3-1.6c0.7,0,1.4,0.2,2,0.5s1,0.8,1.4,1.4c0.4-0.6,0.9-1.1,1.4-1.4
		c0.6-0.4,1.3-0.5,2-0.5c1.2,0,2.2,0.4,2.9,1.1s1.1,1.8,1.1,3.1v5.9h-3.1v-5.5c0-0.6-0.2-1.1-0.5-1.5s-0.8-0.5-1.4-0.5
		c-0.6,0-1.1,0.2-1.4,0.5s-0.5,0.9-0.5,1.5v5.5H841v-5.5c0-0.6-0.2-1.1-0.5-1.5s-0.8-0.5-1.4-0.5c-0.6,0-1.1,0.2-1.4,0.5
		c-0.3,0.4-0.5,0.9-0.5,1.5v5.5H834v-10H837.1z"/>
	<path class="st0" d="M854.1,128.6c-0.9-1-1.3-2.2-1.3-3.7s0.4-2.7,1.3-3.7c0.9-1,2-1.4,3.2-1.4s2.3,0.5,2.9,1.4v-1.3h3.1v10h-3.1
		v-1.5c-0.7,1.1-1.7,1.6-3,1.6S855,129.5,854.1,128.6z M859.7,126.7c0.4-0.4,0.7-1,0.7-1.8s-0.2-1.4-0.7-1.8c-0.4-0.4-1-0.6-1.5-0.6
		s-1.1,0.2-1.5,0.6c-0.4,0.4-0.7,1-0.7,1.8s0.2,1.4,0.7,1.8c0.4,0.4,1,0.6,1.5,0.6S859.2,127.1,859.7,126.7z"/>
	<path class="st0" d="M869.2,119.9v1.9c0.7-1.3,1.7-2,2.9-2v3.1h-0.8c-0.7,0-1.2,0.2-1.6,0.5c-0.4,0.3-0.5,0.9-0.5,1.8v4.8h-3.1v-10
		H869.2z"/>
	<path class="st0" d="M876.6,118.7c-0.3,0.3-0.8,0.5-1.3,0.5s-0.9-0.2-1.3-0.5c-0.3-0.3-0.5-0.8-0.5-1.3s0.2-0.9,0.5-1.3
		s0.8-0.5,1.3-0.5s0.9,0.2,1.3,0.5c0.3,0.3,0.5,0.8,0.5,1.3S876.9,118.4,876.6,118.7z M873.7,129.9v-10h3.1v10H873.7z"/>
	<path class="st0" d="M882.6,119.9v1.5c0.6-1.1,1.6-1.6,3-1.6c1.2,0,2.1,0.4,2.8,1.2c0.7,0.8,1.1,1.8,1.1,3.1v5.9h-3.1v-5.5
		c0-0.6-0.2-1.1-0.5-1.5s-0.8-0.5-1.4-0.5s-1.1,0.2-1.4,0.5s-0.5,0.9-0.5,1.5v5.5h-3.1v-10H882.6z"/>
	<path class="st0" d="M896.4,130c-1.5,0-2.7-0.5-3.6-1.4c-0.9-0.9-1.4-2.2-1.4-3.8c0-1.6,0.5-2.8,1.4-3.7c0.9-0.9,2.1-1.4,3.6-1.4
		c1.5,0,2.7,0.5,3.7,1.4c1,0.9,1.5,2.2,1.5,3.8c0,0.3,0,0.7-0.1,1h-6.9c0.1,0.4,0.3,0.8,0.6,1.1c0.3,0.3,0.7,0.4,1.1,0.4
		c0.4,0,0.7,0,0.9-0.1c0.2-0.1,0.3-0.2,0.4-0.2c0.1-0.1,0.2-0.2,0.4-0.4h3.3c-0.3,1-0.9,1.8-1.7,2.4
		C898.6,129.7,897.6,130,896.4,130z M897.7,122.8c-0.4-0.3-0.8-0.4-1.3-0.4s-0.9,0.1-1.2,0.4c-0.3,0.3-0.5,0.7-0.6,1.1h3.8
		C898.3,123.5,898.1,123.1,897.7,122.8z"/>
	<path class="st0" d="M906.6,119.9v1.9c0.7-1.3,1.7-2,2.9-2v3.1h-0.8c-0.7,0-1.2,0.2-1.6,0.5c-0.4,0.3-0.5,0.9-0.5,1.8v4.8h-3.1v-10
		H906.6z"/>
	<path class="st0" d="M924.5,117.3h3.1v12.6h-3.1v-5.2h-4.9v5.2h-3.1v-12.6h3.1v5.1h4.9V117.3z"/>
	<path class="st0" d="M931.1,128.6c-1-0.9-1.5-2.2-1.5-3.7s0.5-2.8,1.5-3.7c1-0.9,2.3-1.4,3.7-1.4c1.5,0,2.7,0.5,3.7,1.4
		c1,0.9,1.5,2.2,1.5,3.7s-0.5,2.8-1.5,3.7s-2.2,1.4-3.7,1.4C933.3,130,932.1,129.5,931.1,128.6z M936.3,126.7
		c0.4-0.4,0.6-1.1,0.6-1.9s-0.2-1.4-0.6-1.9c-0.4-0.4-0.9-0.6-1.5-0.6c-0.6,0-1.1,0.2-1.5,0.6c-0.4,0.4-0.6,1-0.6,1.9
		s0.2,1.4,0.6,1.9s0.9,0.6,1.5,0.6S935.9,127.2,936.3,126.7z"/>
	<path class="st0" d="M941.3,122.9c0-0.9,0.4-1.6,1.1-2.2c0.8-0.6,1.8-0.9,3.1-0.9c1.3,0,2.3,0.3,3.1,0.9s1.2,1.4,1.3,2.4h-3.2
		c0-0.3-0.2-0.6-0.4-0.7c-0.2-0.1-0.5-0.2-0.9-0.2c-0.8,0-1.2,0.2-1.2,0.7c0,0.4,0.5,0.8,1.5,0.9c1,0.2,1.9,0.4,2.7,0.8
		c0.4,0.2,0.8,0.4,1.1,0.8c0.3,0.4,0.4,0.9,0.4,1.4c0,0.9-0.4,1.7-1.2,2.3c-0.8,0.6-1.8,0.9-3,0.9s-2.2-0.3-3.1-0.8
		c-0.8-0.6-1.3-1.4-1.3-2.5h3.1c0.1,0.6,0.5,0.9,1.3,0.9c0.4,0,0.7-0.1,0.9-0.3c0.2-0.2,0.4-0.4,0.4-0.6c0-0.3-0.2-0.5-0.6-0.6
		s-0.9-0.3-1.4-0.4s-1.1-0.2-1.7-0.4s-1-0.4-1.4-0.8S941.3,123.5,941.3,122.9z"/>
	<path class="st0" d="M956.3,127.3h1.1v2.6h-1.6c-1.1,0-2-0.2-2.6-0.7c-0.6-0.5-0.9-1.4-0.9-2.6v-4.2h-0.9v-2.6h0.9v-2.4h3.1v2.4h2
		v2.6h-2v4.2C955.3,127.1,955.6,127.3,956.3,127.3z"/>
</g>
<g>
	<path class="st0" d="M801.5,333.5c-0.4,0-0.7,0.1-0.9,0.3c-0.2,0.2-0.4,0.5-0.4,0.9c0,0.4,0.1,0.7,0.3,0.9c0.2,0.2,0.5,0.4,0.9,0.5
		c0.4,0.1,0.8,0.2,1.2,0.4c0.5,0.1,0.9,0.3,1.3,0.4c0.4,0.2,0.8,0.4,1.2,0.6c0.4,0.2,0.7,0.6,0.9,1s0.3,1,0.3,1.6
		c0,1.1-0.4,2-1.3,2.7c-0.9,0.8-2,1.1-3.4,1.1s-2.6-0.3-3.4-1c-0.9-0.7-1.3-1.7-1.3-2.9h3.3c0.1,1,0.6,1.5,1.5,1.5
		c0.4,0,0.8-0.1,1-0.4c0.3-0.2,0.4-0.5,0.4-0.9s-0.1-0.7-0.3-0.9c-0.2-0.2-0.5-0.4-0.9-0.5c-0.4-0.1-0.8-0.3-1.2-0.4
		c-0.5-0.1-0.9-0.3-1.3-0.4s-0.8-0.4-1.2-0.6c-0.4-0.2-0.7-0.6-0.9-1c-0.2-0.4-0.3-1-0.3-1.6c0-1.2,0.4-2.1,1.3-2.8s2-1.1,3.4-1.1
		c1.4,0,2.5,0.3,3.3,0.9c0.8,0.6,1.3,1.6,1.3,2.9h-3.3c0-0.5-0.2-0.8-0.4-1.1C802.2,333.6,801.9,333.5,801.5,333.5z"/>
	<path class="st0" d="M815.7,333.9h3.1v10h-3.1v-1.5c-0.6,1.1-1.6,1.6-3,1.6c-1.2,0-2.1-0.4-2.8-1.2c-0.7-0.8-1.1-1.8-1.1-3.1v-5.9
		h3.1v5.5c0,0.6,0.2,1.1,0.5,1.5s0.8,0.5,1.4,0.5c0.6,0,1.1-0.2,1.4-0.5s0.5-0.9,0.5-1.5V333.9z"/>
	<path class="st0" d="M824.5,335.2c0.7-0.9,1.7-1.4,2.9-1.4c1.3,0,2.4,0.5,3.2,1.4c0.9,1,1.3,2.2,1.3,3.7s-0.4,2.7-1.3,3.7
		c-0.9,1-2,1.4-3.2,1.4c-1.3,0-2.2-0.5-3-1.6v1.5h-3.1v-13.3h3.1V335.2z M828.3,340.7c0.4-0.4,0.7-1,0.7-1.8s-0.2-1.4-0.7-1.8
		c-0.4-0.4-1-0.6-1.5-0.6s-1.1,0.2-1.5,0.6c-0.4,0.4-0.7,1-0.7,1.8s0.2,1.4,0.7,1.8c0.4,0.4,1,0.6,1.5,0.6S827.8,341.1,828.3,340.7z
		"/>
	<path class="st0" d="M837.1,333.9v1.5c0.6-1.1,1.6-1.6,3-1.6c0.7,0,1.4,0.2,2,0.5s1,0.8,1.4,1.4c0.4-0.6,0.9-1.1,1.4-1.4
		c0.6-0.4,1.3-0.5,2-0.5c1.2,0,2.2,0.4,2.9,1.1s1.1,1.8,1.1,3.1v5.9h-3.1v-5.5c0-0.6-0.2-1.1-0.5-1.5s-0.8-0.5-1.4-0.5
		c-0.6,0-1.1,0.2-1.4,0.5s-0.5,0.9-0.5,1.5v5.5H841v-5.5c0-0.6-0.2-1.1-0.5-1.5s-0.8-0.5-1.4-0.5c-0.6,0-1.1,0.2-1.4,0.5
		c-0.3,0.4-0.5,0.9-0.5,1.5v5.5H834v-10H837.1z"/>
	<path class="st0" d="M854.1,342.6c-0.9-1-1.3-2.2-1.3-3.7s0.4-2.7,1.3-3.7c0.9-1,2-1.4,3.2-1.4s2.3,0.5,2.9,1.4v-1.3h3.1v10h-3.1
		v-1.5c-0.7,1.1-1.7,1.6-3,1.6S855,343.5,854.1,342.6z M859.7,340.7c0.4-0.4,0.7-1,0.7-1.8s-0.2-1.4-0.7-1.8c-0.4-0.4-1-0.6-1.5-0.6
		s-1.1,0.2-1.5,0.6c-0.4,0.4-0.7,1-0.7,1.8s0.2,1.4,0.7,1.8c0.4,0.4,1,0.6,1.5,0.6S859.2,341.1,859.7,340.7z"/>
	<path class="st0" d="M869.2,333.9v1.9c0.7-1.3,1.7-2,2.9-2v3.1h-0.8c-0.7,0-1.2,0.2-1.6,0.5c-0.4,0.3-0.5,0.9-0.5,1.8v4.8h-3.1v-10
		H869.2z"/>
	<path class="st0" d="M876.6,332.7c-0.3,0.3-0.8,0.5-1.3,0.5s-0.9-0.2-1.3-0.5c-0.3-0.3-0.5-0.8-0.5-1.3s0.2-0.9,0.5-1.3
		s0.8-0.5,1.3-0.5s0.9,0.2,1.3,0.5c0.3,0.3,0.5,0.8,0.5,1.3S876.9,332.4,876.6,332.7z M873.7,343.9v-10h3.1v10H873.7z"/>
	<path class="st0" d="M882.6,333.9v1.5c0.6-1.1,1.6-1.6,3-1.6c1.2,0,2.1,0.4,2.8,1.2c0.7,0.8,1.1,1.8,1.1,3.1v5.9h-3.1v-5.5
		c0-0.6-0.2-1.1-0.5-1.5s-0.8-0.5-1.4-0.5s-1.1,0.2-1.4,0.5s-0.5,0.9-0.5,1.5v5.5h-3.1v-10H882.6z"/>
	<path class="st0" d="M896.4,344c-1.5,0-2.7-0.5-3.6-1.4c-0.9-0.9-1.4-2.2-1.4-3.8c0-1.6,0.5-2.8,1.4-3.7c0.9-0.9,2.1-1.4,3.6-1.4
		c1.5,0,2.7,0.5,3.7,1.4c1,0.9,1.5,2.2,1.5,3.8c0,0.3,0,0.7-0.1,1h-6.9c0.1,0.4,0.3,0.8,0.6,1.1c0.3,0.3,0.7,0.4,1.1,0.4
		c0.4,0,0.7,0,0.9-0.1c0.2-0.1,0.3-0.2,0.4-0.2c0.1-0.1,0.2-0.2,0.4-0.4h3.3c-0.3,1-0.9,1.8-1.7,2.4
		C898.6,343.7,897.6,344,896.4,344z M897.7,336.8c-0.4-0.3-0.8-0.4-1.3-0.4s-0.9,0.1-1.2,0.4c-0.3,0.3-0.5,0.7-0.6,1.1h3.8
		C898.3,337.5,898.1,337.1,897.7,336.8z"/>
	<path class="st0" d="M906.6,333.9v1.9c0.7-1.3,1.7-2,2.9-2v3.1h-0.8c-0.7,0-1.2,0.2-1.6,0.5c-0.4,0.3-0.5,0.9-0.5,1.8v4.8h-3.1v-10
		H906.6z"/>
	<path class="st0" d="M924.5,331.3h3.1v12.6h-3.1v-5.2h-4.9v5.2h-3.1v-12.6h3.1v5.1h4.9V331.3z"/>
	<path class="st0" d="M931.1,342.6c-1-0.9-1.5-2.2-1.5-3.7s0.5-2.8,1.5-3.7c1-0.9,2.3-1.4,3.7-1.4c1.5,0,2.7,0.5,3.7,1.4
		c1,0.9,1.5,2.2,1.5,3.7s-0.5,2.8-1.5,3.7s-2.2,1.4-3.7,1.4C933.3,344,932.1,343.5,931.1,342.6z M936.3,340.7
		c0.4-0.4,0.6-1.1,0.6-1.9s-0.2-1.4-0.6-1.9c-0.4-0.4-0.9-0.6-1.5-0.6c-0.6,0-1.1,0.2-1.5,0.6c-0.4,0.4-0.6,1-0.6,1.9
		s0.2,1.4,0.6,1.9s0.9,0.6,1.5,0.6S935.9,341.2,936.3,340.7z"/>
	<path class="st0" d="M941.3,336.9c0-0.9,0.4-1.6,1.1-2.2c0.8-0.6,1.8-0.9,3.1-0.9c1.3,0,2.3,0.3,3.1,0.9s1.2,1.4,1.3,2.4h-3.2
		c0-0.3-0.2-0.6-0.4-0.7c-0.2-0.1-0.5-0.2-0.9-0.2c-0.8,0-1.2,0.2-1.2,0.7c0,0.4,0.5,0.8,1.5,0.9c1,0.2,1.9,0.4,2.7,0.8
		c0.4,0.2,0.8,0.4,1.1,0.8c0.3,0.4,0.4,0.9,0.4,1.4c0,0.9-0.4,1.7-1.2,2.3c-0.8,0.6-1.8,0.9-3,0.9s-2.2-0.3-3.1-0.8
		c-0.8-0.6-1.3-1.4-1.3-2.5h3.1c0.1,0.6,0.5,0.9,1.3,0.9c0.4,0,0.7-0.1,0.9-0.3c0.2-0.2,0.4-0.4,0.4-0.6c0-0.3-0.2-0.5-0.6-0.6
		s-0.9-0.3-1.4-0.4s-1.1-0.2-1.7-0.4s-1-0.4-1.4-0.8S941.3,337.5,941.3,336.9z"/>
	<path class="st0" d="M956.3,341.3h1.1v2.6h-1.6c-1.1,0-2-0.2-2.6-0.7c-0.6-0.5-0.9-1.4-0.9-2.6v-4.2h-0.9v-2.6h0.9v-2.4h3.1v2.4h2
		v2.6h-2v4.2C955.3,341.1,955.6,341.3,956.3,341.3z"/>
</g>
<g>
	<path class="st5" d="M61.7,216.2v2.3h-4.6v2.7h4v2.3h-4v2.9h4.6v2.3H54v-12.7H61.7z"/>
	<path class="st5" d="M68.6,226.3h1.1v2.6h-1.6c-1.1,0-2-0.2-2.6-0.7c-0.6-0.5-0.9-1.4-0.9-2.6v-4.2h-0.9v-2.6h0.9v-2.4h3.1v2.4h2
		v2.6h-2v4.2C67.7,226.1,68,226.3,68.6,226.3z"/>
	<path class="st5" d="M72.5,227.6c-0.9-0.9-1.4-2.2-1.4-3.7s0.5-2.8,1.4-3.7c0.9-0.9,2.1-1.4,3.6-1.4c1.2,0,2.3,0.3,3.1,0.9
		c0.9,0.6,1.4,1.5,1.7,2.6h-3.3c-0.3-0.6-0.8-0.9-1.4-0.9c-0.7,0-1.1,0.2-1.5,0.7c-0.3,0.5-0.5,1.1-0.5,1.8s0.2,1.4,0.5,1.8
		c0.3,0.5,0.8,0.7,1.4,0.7c0.4,0,0.7-0.1,0.9-0.2c0.2-0.1,0.4-0.4,0.6-0.7h3.3c-0.3,1.1-0.8,1.9-1.7,2.6c-0.9,0.6-1.9,1-3.1,1
		C74.6,229,73.4,228.6,72.5,227.6z"/>
	<path class="st5" d="M83.2,227.6c-0.9-1-1.3-2.2-1.3-3.7s0.4-2.7,1.3-3.7c0.9-1,2-1.4,3.2-1.4c1.3,0,2.3,0.5,2.9,1.4v-4.6h3.1v13.3
		h-3.1v-1.5c-0.7,1.1-1.7,1.6-3,1.6S84.1,228.5,83.2,227.6z M88.7,225.7c0.4-0.4,0.7-1,0.7-1.8s-0.2-1.4-0.7-1.8
		c-0.4-0.4-1-0.6-1.5-0.6s-1.1,0.2-1.5,0.6c-0.4,0.4-0.7,1-0.7,1.8s0.2,1.4,0.7,1.8c0.4,0.4,1,0.6,1.5,0.6S88.3,226.1,88.7,225.7z"
		/>
	<path class="st5" d="M61.1,234.3h3.1v12.6h-3.1v-5.2h-4.9v5.2h-3.1v-12.6h3.1v5.1h4.9V234.3z"/>
	<path class="st5" d="M67.7,245.6c-1-0.9-1.5-2.2-1.5-3.7s0.5-2.8,1.5-3.7c1-0.9,2.3-1.4,3.7-1.4c1.5,0,2.7,0.5,3.7,1.4
		c1,0.9,1.5,2.2,1.5,3.7s-0.5,2.8-1.5,3.7s-2.2,1.4-3.7,1.4C69.9,247,68.7,246.5,67.7,245.6z M72.9,243.7c0.4-0.4,0.6-1.1,0.6-1.9
		s-0.2-1.4-0.6-1.9c-0.4-0.4-0.9-0.6-1.5-0.6c-0.6,0-1.1,0.2-1.5,0.6c-0.4,0.4-0.6,1-0.6,1.9s0.2,1.4,0.6,1.9s0.9,0.6,1.5,0.6
		S72.5,244.2,72.9,243.7z"/>
	<path class="st5" d="M77.9,239.9c0-0.9,0.4-1.6,1.1-2.2c0.8-0.6,1.8-0.9,3.1-0.9c1.3,0,2.3,0.3,3.1,0.9s1.2,1.4,1.3,2.4h-3.2
		c0-0.3-0.2-0.6-0.4-0.7c-0.2-0.1-0.5-0.2-0.9-0.2c-0.8,0-1.2,0.2-1.2,0.7c0,0.4,0.5,0.8,1.5,0.9c1,0.2,1.9,0.4,2.7,0.8
		c0.4,0.2,0.8,0.4,1.1,0.8c0.3,0.4,0.4,0.9,0.4,1.4c0,0.9-0.4,1.7-1.2,2.3c-0.8,0.6-1.8,0.9-3,0.9s-2.2-0.3-3.1-0.8
		c-0.8-0.6-1.3-1.4-1.3-2.5h3.1c0.1,0.6,0.5,0.9,1.3,0.9c0.4,0,0.7-0.1,0.9-0.3c0.2-0.2,0.4-0.4,0.4-0.6c0-0.3-0.2-0.5-0.6-0.6
		s-0.9-0.3-1.4-0.4s-1.1-0.2-1.7-0.4s-1-0.4-1.4-0.8S77.9,240.5,77.9,239.9z"/>
	<path class="st5" d="M92.9,244.3H94v2.6h-1.6c-1.1,0-2-0.2-2.6-0.7c-0.6-0.5-0.9-1.4-0.9-2.6v-4.2h-0.9v-2.6h0.9v-2.4h3.1v2.4h2
		v2.6h-2v4.2C91.9,244.1,92.2,244.3,92.9,244.3z"/>
</g>
<g>
	<path class="st5" d="M168.7,216.2v2.3h-4.6v2.7h4v2.3h-4v2.9h4.6v2.3H161v-12.7H168.7z"/>
	<path class="st5" d="M175.6,226.3h1.1v2.6h-1.6c-1.1,0-2-0.2-2.6-0.7c-0.6-0.5-0.9-1.4-0.9-2.6v-4.2h-0.9v-2.6h0.9v-2.4h3.1v2.4h2
		v2.6h-2v4.2C174.7,226.1,175,226.3,175.6,226.3z"/>
	<path class="st5" d="M179.5,227.6c-0.9-0.9-1.4-2.2-1.4-3.7s0.5-2.8,1.4-3.7c0.9-0.9,2.1-1.4,3.6-1.4c1.2,0,2.3,0.3,3.1,0.9
		c0.9,0.6,1.4,1.5,1.7,2.6h-3.3c-0.3-0.6-0.8-0.9-1.4-0.9c-0.7,0-1.1,0.2-1.5,0.7c-0.3,0.5-0.5,1.1-0.5,1.8s0.2,1.4,0.5,1.8
		c0.3,0.5,0.8,0.7,1.4,0.7c0.4,0,0.7-0.1,0.9-0.2c0.2-0.1,0.4-0.4,0.6-0.7h3.3c-0.3,1.1-0.8,1.9-1.7,2.6c-0.9,0.6-1.9,1-3.1,1
		C181.6,229,180.4,228.6,179.5,227.6z"/>
	<path class="st5" d="M190.2,227.6c-0.9-1-1.3-2.2-1.3-3.7s0.4-2.7,1.3-3.7c0.9-1,2-1.4,3.2-1.4c1.3,0,2.3,0.5,2.9,1.4v-4.6h3.1
		v13.3h-3.1v-1.5c-0.7,1.1-1.7,1.6-3,1.6S191.1,228.5,190.2,227.6z M195.7,225.7c0.4-0.4,0.7-1,0.7-1.8s-0.2-1.4-0.7-1.8
		c-0.4-0.4-1-0.6-1.5-0.6s-1.1,0.2-1.5,0.6c-0.4,0.4-0.7,1-0.7,1.8s0.2,1.4,0.7,1.8c0.4,0.4,1,0.6,1.5,0.6S195.3,226.1,195.7,225.7z
		"/>
	<path class="st5" d="M168.1,234.3h3.1v12.6h-3.1v-5.2h-4.9v5.2h-3.1v-12.6h3.1v5.1h4.9V234.3z"/>
	<path class="st5" d="M174.7,245.6c-1-0.9-1.5-2.2-1.5-3.7s0.5-2.8,1.5-3.7c1-0.9,2.3-1.4,3.7-1.4c1.5,0,2.7,0.5,3.7,1.4
		c1,0.9,1.5,2.2,1.5,3.7s-0.5,2.8-1.5,3.7s-2.2,1.4-3.7,1.4C176.9,247,175.7,246.5,174.7,245.6z M179.9,243.7
		c0.4-0.4,0.6-1.1,0.6-1.9s-0.2-1.4-0.6-1.9c-0.4-0.4-0.9-0.6-1.5-0.6c-0.6,0-1.1,0.2-1.5,0.6c-0.4,0.4-0.6,1-0.6,1.9
		s0.2,1.4,0.6,1.9s0.9,0.6,1.5,0.6S179.5,244.2,179.9,243.7z"/>
	<path class="st5" d="M184.9,239.9c0-0.9,0.4-1.6,1.1-2.2c0.8-0.6,1.8-0.9,3.1-0.9c1.3,0,2.3,0.3,3.1,0.9s1.2,1.4,1.3,2.4h-3.2
		c0-0.3-0.2-0.6-0.4-0.7c-0.2-0.1-0.5-0.2-0.9-0.2c-0.8,0-1.2,0.2-1.2,0.7c0,0.4,0.5,0.8,1.5,0.9c1,0.2,1.9,0.4,2.7,0.8
		c0.4,0.2,0.8,0.4,1.1,0.8c0.3,0.4,0.4,0.9,0.4,1.4c0,0.9-0.4,1.7-1.2,2.3c-0.8,0.6-1.8,0.9-3,0.9s-2.2-0.3-3.1-0.8
		c-0.8-0.6-1.3-1.4-1.3-2.5h3.1c0.1,0.6,0.5,0.9,1.3,0.9c0.4,0,0.7-0.1,0.9-0.3c0.2-0.2,0.4-0.4,0.4-0.6c0-0.3-0.2-0.5-0.6-0.6
		s-0.9-0.3-1.4-0.4s-1.1-0.2-1.7-0.4s-1-0.4-1.4-0.8S184.9,240.5,184.9,239.9z"/>
	<path class="st5" d="M199.9,244.3h1.1v2.6h-1.6c-1.1,0-2-0.2-2.6-0.7c-0.6-0.5-0.9-1.4-0.9-2.6v-4.2h-0.9v-2.6h0.9v-2.4h3.1v2.4h2
		v2.6h-2v4.2C198.9,244.1,199.2,244.3,199.9,244.3z"/>
</g>
<g>
	<path class="st5" d="M275.7,216.2v2.3h-4.6v2.7h4v2.3h-4v2.9h4.6v2.3H268v-12.7H275.7z"/>
	<path class="st5" d="M282.6,226.3h1.1v2.6h-1.6c-1.1,0-2-0.2-2.6-0.7c-0.6-0.5-0.9-1.4-0.9-2.6v-4.2h-0.9v-2.6h0.9v-2.4h3.1v2.4h2
		v2.6h-2v4.2C281.7,226.1,282,226.3,282.6,226.3z"/>
	<path class="st5" d="M286.5,227.6c-0.9-0.9-1.4-2.2-1.4-3.7s0.5-2.8,1.4-3.7c0.9-0.9,2.1-1.4,3.6-1.4c1.2,0,2.3,0.3,3.1,0.9
		c0.9,0.6,1.4,1.5,1.7,2.6h-3.3c-0.3-0.6-0.8-0.9-1.4-0.9c-0.7,0-1.1,0.2-1.5,0.7c-0.3,0.5-0.5,1.1-0.5,1.8s0.2,1.4,0.5,1.8
		c0.3,0.5,0.8,0.7,1.4,0.7c0.4,0,0.7-0.1,0.9-0.2c0.2-0.1,0.4-0.4,0.6-0.7h3.3c-0.3,1.1-0.8,1.9-1.7,2.6c-0.9,0.6-1.9,1-3.1,1
		C288.6,229,287.4,228.6,286.5,227.6z"/>
	<path class="st5" d="M297.2,227.6c-0.9-1-1.3-2.2-1.3-3.7s0.4-2.7,1.3-3.7c0.9-1,2-1.4,3.2-1.4c1.3,0,2.3,0.5,2.9,1.4v-4.6h3.1
		v13.3h-3.1v-1.5c-0.7,1.1-1.7,1.6-3,1.6S298.1,228.5,297.2,227.6z M302.7,225.7c0.4-0.4,0.7-1,0.7-1.8s-0.2-1.4-0.7-1.8
		c-0.4-0.4-1-0.6-1.5-0.6s-1.1,0.2-1.5,0.6c-0.4,0.4-0.7,1-0.7,1.8s0.2,1.4,0.7,1.8c0.4,0.4,1,0.6,1.5,0.6S302.3,226.1,302.7,225.7z
		"/>
	<path class="st5" d="M275.1,234.3h3.1v12.6h-3.1v-5.2h-4.9v5.2h-3.1v-12.6h3.1v5.1h4.9V234.3z"/>
	<path class="st5" d="M281.7,245.6c-1-0.9-1.5-2.2-1.5-3.7s0.5-2.8,1.5-3.7c1-0.9,2.3-1.4,3.7-1.4c1.5,0,2.7,0.5,3.7,1.4
		c1,0.9,1.5,2.2,1.5,3.7s-0.5,2.8-1.5,3.7s-2.2,1.4-3.7,1.4C283.9,247,282.7,246.5,281.7,245.6z M286.9,243.7
		c0.4-0.4,0.6-1.1,0.6-1.9s-0.2-1.4-0.6-1.9c-0.4-0.4-0.9-0.6-1.5-0.6c-0.6,0-1.1,0.2-1.5,0.6c-0.4,0.4-0.6,1-0.6,1.9
		s0.2,1.4,0.6,1.9s0.9,0.6,1.5,0.6S286.5,244.2,286.9,243.7z"/>
	<path class="st5" d="M291.9,239.9c0-0.9,0.4-1.6,1.1-2.2c0.8-0.6,1.8-0.9,3.1-0.9c1.3,0,2.3,0.3,3.1,0.9s1.2,1.4,1.3,2.4h-3.2
		c0-0.3-0.2-0.6-0.4-0.7c-0.2-0.1-0.5-0.2-0.9-0.2c-0.8,0-1.2,0.2-1.2,0.7c0,0.4,0.5,0.8,1.5,0.9c1,0.2,1.9,0.4,2.7,0.8
		c0.4,0.2,0.8,0.4,1.1,0.8c0.3,0.4,0.4,0.9,0.4,1.4c0,0.9-0.4,1.7-1.2,2.3c-0.8,0.6-1.8,0.9-3,0.9s-2.2-0.3-3.1-0.8
		c-0.8-0.6-1.3-1.4-1.3-2.5h3.1c0.1,0.6,0.5,0.9,1.3,0.9c0.4,0,0.7-0.1,0.9-0.3c0.2-0.2,0.4-0.4,0.4-0.6c0-0.3-0.2-0.5-0.6-0.6
		s-0.9-0.3-1.4-0.4s-1.1-0.2-1.7-0.4s-1-0.4-1.4-0.8S291.9,240.5,291.9,239.9z"/>
	<path class="st5" d="M306.9,244.3h1.1v2.6h-1.6c-1.1,0-2-0.2-2.6-0.7c-0.6-0.5-0.9-1.4-0.9-2.6v-4.2h-0.9v-2.6h0.9v-2.4h3.1v2.4h2
		v2.6h-2v4.2C305.9,244.1,306.2,244.3,306.9,244.3z"/>
</g>
<g>
	<path class="st2" d="M54.1,332.3h3.3l-3.5,12.6h-3.5l-2.2-8l-2.2,8h-3.5l-3.6-12.6h3.3l2.2,9.1l2.2-9.1h3.5l2.2,8.9L54.1,332.3z"/>
	<path class="st2" d="M59.7,343.6c-1-0.9-1.5-2.2-1.5-3.7s0.5-2.8,1.5-3.7c1-0.9,2.3-1.4,3.7-1.4s2.7,0.5,3.7,1.4
		c1,0.9,1.5,2.2,1.5,3.7s-0.5,2.8-1.5,3.7S65,345,63.5,345C62,345,60.7,344.5,59.7,343.6z M65,341.7c0.4-0.4,0.6-1.1,0.6-1.9
		s-0.2-1.4-0.6-1.9c-0.4-0.4-0.9-0.6-1.5-0.6s-1.1,0.2-1.5,0.6c-0.4,0.4-0.6,1-0.6,1.9s0.2,1.4,0.6,1.9s0.9,0.6,1.5,0.6
		C64.1,342.4,64.6,342.2,65,341.7z"/>
	<path class="st2" d="M73.8,334.9v1.9c0.7-1.3,1.7-2,2.9-2v3.1h-0.8c-0.7,0-1.2,0.2-1.6,0.5c-0.4,0.3-0.5,0.9-0.5,1.8v4.8h-3.1v-10
		H73.8z"/>
	<path class="st2" d="M81.4,344.9h-3.1v-13.3h3.1v7.5l3.1-4.2h4.1l-4.3,5.1l4.3,4.9h-4.1l-3.2-4V344.9z"/>
	<path class="st2" d="M94.3,345c-1.5,0-2.7-0.5-3.6-1.4c-0.9-0.9-1.4-2.2-1.4-3.8c0-1.6,0.5-2.8,1.4-3.7c0.9-0.9,2.1-1.4,3.6-1.4
		s2.7,0.5,3.7,1.4c1,0.9,1.5,2.2,1.5,3.8c0,0.3,0,0.7-0.1,1h-6.9c0.1,0.4,0.3,0.8,0.6,1.1c0.3,0.3,0.7,0.4,1.1,0.4
		c0.4,0,0.7,0,0.9-0.1c0.2-0.1,0.3-0.2,0.4-0.2c0.1-0.1,0.2-0.2,0.4-0.4h3.3c-0.3,1-0.9,1.8-1.7,2.4C96.6,344.7,95.5,345,94.3,345z
		 M95.7,337.8c-0.4-0.3-0.8-0.4-1.3-0.4s-0.9,0.1-1.2,0.4c-0.3,0.3-0.5,0.7-0.6,1.1h3.8C96.2,338.5,96,338.1,95.7,337.8z"/>
	<path class="st2" d="M104.5,334.9v1.9c0.7-1.3,1.7-2,2.9-2v3.1h-0.8c-0.7,0-1.2,0.2-1.6,0.5c-0.4,0.3-0.5,0.9-0.5,1.8v4.8h-3.1v-10
		H104.5z"/>
</g>
<g>
	<path class="st2" d="M161.1,332.3h3.3l-3.5,12.6h-3.5l-2.2-8l-2.2,8h-3.5l-3.6-12.6h3.3l2.2,9.1l2.2-9.1h3.5l2.2,8.9L161.1,332.3z"
		/>
	<path class="st2" d="M166.7,343.6c-1-0.9-1.5-2.2-1.5-3.7s0.5-2.8,1.5-3.7c1-0.9,2.3-1.4,3.7-1.4s2.7,0.5,3.7,1.4
		c1,0.9,1.5,2.2,1.5,3.7s-0.5,2.8-1.5,3.7s-2.2,1.4-3.7,1.4C169,345,167.7,344.5,166.7,343.6z M172,341.7c0.4-0.4,0.6-1.1,0.6-1.9
		s-0.2-1.4-0.6-1.9c-0.4-0.4-0.9-0.6-1.5-0.6s-1.1,0.2-1.5,0.6c-0.4,0.4-0.6,1-0.6,1.9s0.2,1.4,0.6,1.9s0.9,0.6,1.5,0.6
		C171.1,342.4,171.6,342.2,172,341.7z"/>
	<path class="st2" d="M180.8,334.9v1.9c0.7-1.3,1.7-2,2.9-2v3.1h-0.8c-0.7,0-1.2,0.2-1.6,0.5c-0.4,0.3-0.5,0.9-0.5,1.8v4.8h-3.1v-10
		H180.8z"/>
	<path class="st2" d="M188.4,344.9h-3.1v-13.3h3.1v7.5l3.1-4.2h4.1l-4.3,5.1l4.3,4.9h-4.1l-3.2-4V344.9z"/>
	<path class="st2" d="M201.3,345c-1.5,0-2.7-0.5-3.6-1.4c-0.9-0.9-1.4-2.2-1.4-3.8c0-1.6,0.5-2.8,1.4-3.7c0.9-0.9,2.1-1.4,3.6-1.4
		s2.7,0.5,3.7,1.4c1,0.9,1.5,2.2,1.5,3.8c0,0.3,0,0.7-0.1,1h-6.9c0.1,0.4,0.3,0.8,0.6,1.1c0.3,0.3,0.7,0.4,1.1,0.4
		c0.4,0,0.7,0,0.9-0.1c0.2-0.1,0.3-0.2,0.4-0.2c0.1-0.1,0.2-0.2,0.4-0.4h3.3c-0.3,1-0.9,1.8-1.7,2.4
		C203.6,344.7,202.5,345,201.3,345z M202.7,337.8c-0.4-0.3-0.8-0.4-1.3-0.4s-0.9,0.1-1.2,0.4c-0.3,0.3-0.5,0.7-0.6,1.1h3.8
		C203.2,338.5,203,338.1,202.7,337.8z"/>
	<path class="st2" d="M211.5,334.9v1.9c0.7-1.3,1.7-2,2.9-2v3.1h-0.8c-0.7,0-1.2,0.2-1.6,0.5c-0.4,0.3-0.5,0.9-0.5,1.8v4.8h-3.1v-10
		H211.5z"/>
</g>
<g>
	<path class="st2" d="M268.1,332.3h3.3l-3.5,12.6h-3.5l-2.2-8l-2.2,8h-3.5l-3.6-12.6h3.3l2.2,9.1l2.2-9.1h3.5l2.2,8.9L268.1,332.3z"
		/>
	<path class="st2" d="M273.7,343.6c-1-0.9-1.5-2.2-1.5-3.7s0.5-2.8,1.5-3.7c1-0.9,2.3-1.4,3.7-1.4s2.7,0.5,3.7,1.4
		c1,0.9,1.5,2.2,1.5,3.7s-0.5,2.8-1.5,3.7s-2.2,1.4-3.7,1.4C276,345,274.7,344.5,273.7,343.6z M279,341.7c0.4-0.4,0.6-1.1,0.6-1.9
		s-0.2-1.4-0.6-1.9c-0.4-0.4-0.9-0.6-1.5-0.6s-1.1,0.2-1.5,0.6c-0.4,0.4-0.6,1-0.6,1.9s0.2,1.4,0.6,1.9s0.9,0.6,1.5,0.6
		C278.1,342.4,278.6,342.2,279,341.7z"/>
	<path class="st2" d="M287.8,334.9v1.9c0.7-1.3,1.7-2,2.9-2v3.1h-0.8c-0.7,0-1.2,0.2-1.6,0.5c-0.4,0.3-0.5,0.9-0.5,1.8v4.8h-3.1v-10
		H287.8z"/>
	<path class="st2" d="M295.4,344.9h-3.1v-13.3h3.1v7.5l3.1-4.2h4.1l-4.3,5.1l4.3,4.9h-4.1l-3.2-4V344.9z"/>
	<path class="st2" d="M308.3,345c-1.5,0-2.7-0.5-3.6-1.4c-0.9-0.9-1.4-2.2-1.4-3.8c0-1.6,0.5-2.8,1.4-3.7c0.9-0.9,2.1-1.4,3.6-1.4
		s2.7,0.5,3.7,1.4c1,0.9,1.5,2.2,1.5,3.8c0,0.3,0,0.7-0.1,1h-6.9c0.1,0.4,0.3,0.8,0.6,1.1c0.3,0.3,0.7,0.4,1.1,0.4
		c0.4,0,0.7,0,0.9-0.1c0.2-0.1,0.3-0.2,0.4-0.2c0.1-0.1,0.2-0.2,0.4-0.4h3.3c-0.3,1-0.9,1.8-1.7,2.4
		C310.6,344.7,309.5,345,308.3,345z M309.7,337.8c-0.4-0.3-0.8-0.4-1.3-0.4s-0.9,0.1-1.2,0.4c-0.3,0.3-0.5,0.7-0.6,1.1h3.8
		C310.2,338.5,310,338.1,309.7,337.8z"/>
	<path class="st2" d="M318.5,334.9v1.9c0.7-1.3,1.7-2,2.9-2v3.1h-0.8c-0.7,0-1.2,0.2-1.6,0.5c-0.4,0.3-0.5,0.9-0.5,1.8v4.8h-3.1v-10
		H318.5z"/>
</g>
<g>
	<path class="st2" d="M54.1,439.3h3.3l-3.5,12.6h-3.5l-2.2-8l-2.2,8h-3.5l-3.6-12.6h3.3l2.2,9.1l2.2-9.1h3.5l2.2,8.9L54.1,439.3z"/>
	<path class="st2" d="M59.7,450.6c-1-0.9-1.5-2.2-1.5-3.7c0-1.5,0.5-2.8,1.5-3.7s2.3-1.4,3.7-1.4s2.7,0.5,3.7,1.4s1.5,2.2,1.5,3.7
		c0,1.5-0.5,2.8-1.5,3.7c-1,0.9-2.2,1.4-3.7,1.4C62,452,60.7,451.5,59.7,450.6z M65,448.7c0.4-0.4,0.6-1.1,0.6-1.9s-0.2-1.4-0.6-1.9
		c-0.4-0.4-0.9-0.6-1.5-0.6s-1.1,0.2-1.5,0.6c-0.4,0.4-0.6,1-0.6,1.9s0.2,1.4,0.6,1.9s0.9,0.6,1.5,0.6
		C64.1,449.4,64.6,449.2,65,448.7z"/>
	<path class="st2" d="M73.8,441.9v1.9c0.7-1.3,1.7-2,2.9-2v3.1h-0.8c-0.7,0-1.2,0.2-1.6,0.5c-0.4,0.3-0.5,0.9-0.5,1.8v4.8h-3.1v-10
		H73.8z"/>
	<path class="st2" d="M81.4,451.9h-3.1v-13.3h3.1v7.5l3.1-4.2h4.1l-4.3,5.1l4.3,4.9h-4.1l-3.2-4V451.9z"/>
	<path class="st2" d="M94.3,452c-1.5,0-2.7-0.5-3.6-1.4c-0.9-0.9-1.4-2.2-1.4-3.8c0-1.6,0.5-2.8,1.4-3.7c0.9-0.9,2.1-1.4,3.6-1.4
		s2.7,0.5,3.7,1.4c1,0.9,1.5,2.2,1.5,3.8c0,0.3,0,0.7-0.1,1h-6.9c0.1,0.4,0.3,0.8,0.6,1.1c0.3,0.3,0.7,0.4,1.1,0.4
		c0.4,0,0.7,0,0.9-0.1c0.2-0.1,0.3-0.2,0.4-0.2c0.1-0.1,0.2-0.2,0.4-0.4h3.3c-0.3,1-0.9,1.8-1.7,2.4C96.6,451.7,95.5,452,94.3,452z
		 M95.7,444.8c-0.4-0.3-0.8-0.4-1.3-0.4s-0.9,0.1-1.2,0.4c-0.3,0.3-0.5,0.7-0.6,1.1h3.8C96.2,445.5,96,445.1,95.7,444.8z"/>
	<path class="st2" d="M104.5,441.9v1.9c0.7-1.3,1.7-2,2.9-2v3.1h-0.8c-0.7,0-1.2,0.2-1.6,0.5c-0.4,0.3-0.5,0.9-0.5,1.8v4.8h-3.1v-10
		H104.5z"/>
</g>
<g>
	<path class="st2" d="M161.1,439.3h3.3l-3.5,12.6h-3.5l-2.2-8l-2.2,8h-3.5l-3.6-12.6h3.3l2.2,9.1l2.2-9.1h3.5l2.2,8.9L161.1,439.3z"
		/>
	<path class="st2" d="M166.7,450.6c-1-0.9-1.5-2.2-1.5-3.7c0-1.5,0.5-2.8,1.5-3.7s2.3-1.4,3.7-1.4s2.7,0.5,3.7,1.4s1.5,2.2,1.5,3.7
		c0,1.5-0.5,2.8-1.5,3.7c-1,0.9-2.2,1.4-3.7,1.4C169,452,167.7,451.5,166.7,450.6z M172,448.7c0.4-0.4,0.6-1.1,0.6-1.9
		s-0.2-1.4-0.6-1.9c-0.4-0.4-0.9-0.6-1.5-0.6s-1.1,0.2-1.5,0.6c-0.4,0.4-0.6,1-0.6,1.9s0.2,1.4,0.6,1.9s0.9,0.6,1.5,0.6
		C171.1,449.4,171.6,449.2,172,448.7z"/>
	<path class="st2" d="M180.8,441.9v1.9c0.7-1.3,1.7-2,2.9-2v3.1h-0.8c-0.7,0-1.2,0.2-1.6,0.5c-0.4,0.3-0.5,0.9-0.5,1.8v4.8h-3.1v-10
		H180.8z"/>
	<path class="st2" d="M188.4,451.9h-3.1v-13.3h3.1v7.5l3.1-4.2h4.1l-4.3,5.1l4.3,4.9h-4.1l-3.2-4V451.9z"/>
	<path class="st2" d="M201.3,452c-1.5,0-2.7-0.5-3.6-1.4c-0.9-0.9-1.4-2.2-1.4-3.8c0-1.6,0.5-2.8,1.4-3.7c0.9-0.9,2.1-1.4,3.6-1.4
		s2.7,0.5,3.7,1.4c1,0.9,1.5,2.2,1.5,3.8c0,0.3,0,0.7-0.1,1h-6.9c0.1,0.4,0.3,0.8,0.6,1.1c0.3,0.3,0.7,0.4,1.1,0.4
		c0.4,0,0.7,0,0.9-0.1c0.2-0.1,0.3-0.2,0.4-0.2c0.1-0.1,0.2-0.2,0.4-0.4h3.3c-0.3,1-0.9,1.8-1.7,2.4
		C203.6,451.7,202.5,452,201.3,452z M202.7,444.8c-0.4-0.3-0.8-0.4-1.3-0.4s-0.9,0.1-1.2,0.4c-0.3,0.3-0.5,0.7-0.6,1.1h3.8
		C203.2,445.5,203,445.1,202.7,444.8z"/>
	<path class="st2" d="M211.5,441.9v1.9c0.7-1.3,1.7-2,2.9-2v3.1h-0.8c-0.7,0-1.2,0.2-1.6,0.5c-0.4,0.3-0.5,0.9-0.5,1.8v4.8h-3.1v-10
		H211.5z"/>
</g>
<g>
	<path class="st2" d="M268.1,439.3h3.3l-3.5,12.6h-3.5l-2.2-8l-2.2,8h-3.5l-3.6-12.6h3.3l2.2,9.1l2.2-9.1h3.5l2.2,8.9L268.1,439.3z"
		/>
	<path class="st2" d="M273.7,450.6c-1-0.9-1.5-2.2-1.5-3.7c0-1.5,0.5-2.8,1.5-3.7s2.3-1.4,3.7-1.4s2.7,0.5,3.7,1.4s1.5,2.2,1.5,3.7
		c0,1.5-0.5,2.8-1.5,3.7c-1,0.9-2.2,1.4-3.7,1.4C276,452,274.7,451.5,273.7,450.6z M279,448.7c0.4-0.4,0.6-1.1,0.6-1.9
		s-0.2-1.4-0.6-1.9c-0.4-0.4-0.9-0.6-1.5-0.6s-1.1,0.2-1.5,0.6c-0.4,0.4-0.6,1-0.6,1.9s0.2,1.4,0.6,1.9s0.9,0.6,1.5,0.6
		C278.1,449.4,278.6,449.2,279,448.7z"/>
	<path class="st2" d="M287.8,441.9v1.9c0.7-1.3,1.7-2,2.9-2v3.1h-0.8c-0.7,0-1.2,0.2-1.6,0.5c-0.4,0.3-0.5,0.9-0.5,1.8v4.8h-3.1v-10
		H287.8z"/>
	<path class="st2" d="M295.4,451.9h-3.1v-13.3h3.1v7.5l3.1-4.2h4.1l-4.3,5.1l4.3,4.9h-4.1l-3.2-4V451.9z"/>
	<path class="st2" d="M308.3,452c-1.5,0-2.7-0.5-3.6-1.4c-0.9-0.9-1.4-2.2-1.4-3.8c0-1.6,0.5-2.8,1.4-3.7c0.9-0.9,2.1-1.4,3.6-1.4
		s2.7,0.5,3.7,1.4c1,0.9,1.5,2.2,1.5,3.8c0,0.3,0,0.7-0.1,1h-6.9c0.1,0.4,0.3,0.8,0.6,1.1c0.3,0.3,0.7,0.4,1.1,0.4
		c0.4,0,0.7,0,0.9-0.1c0.2-0.1,0.3-0.2,0.4-0.2c0.1-0.1,0.2-0.2,0.4-0.4h3.3c-0.3,1-0.9,1.8-1.7,2.4
		C310.6,451.7,309.5,452,308.3,452z M309.7,444.8c-0.4-0.3-0.8-0.4-1.3-0.4s-0.9,0.1-1.2,0.4c-0.3,0.3-0.5,0.7-0.6,1.1h3.8
		C310.2,445.5,310,445.1,309.7,444.8z"/>
	<path class="st2" d="M318.5,441.9v1.9c0.7-1.3,1.7-2,2.9-2v3.1h-0.8c-0.7,0-1.2,0.2-1.6,0.5c-0.4,0.3-0.5,0.9-0.5,1.8v4.8h-3.1v-10
		H318.5z"/>
</g>
<g>
	<path class="st0" d="M1005.4,120.2c-1.3-1.2-1.9-2.8-1.9-4.6s0.6-3.4,1.9-4.6c1.3-1.2,2.8-1.8,4.6-1.8c1.4,0,2.7,0.4,3.7,1.1
		c1.1,0.7,1.9,1.8,2.3,3.1h-3.7c-0.5-0.9-1.2-1.4-2.3-1.4c-1.1,0-1.9,0.3-2.5,1c-0.6,0.7-0.9,1.5-0.9,2.6s0.3,2,0.9,2.6
		c0.6,0.7,1.4,1,2.5,1c1.1,0,1.8-0.5,2.3-1.4h3.7c-0.4,1.3-1.2,2.4-2.3,3.1s-2.3,1.1-3.7,1.1C1008.2,122,1006.6,121.4,1005.4,120.2z
		"/>
	<path class="st0" d="M1018.8,120.6c-1-0.9-1.5-2.2-1.5-3.7s0.5-2.8,1.5-3.7c1-0.9,2.3-1.4,3.7-1.4s2.7,0.5,3.7,1.4
		c1,0.9,1.5,2.2,1.5,3.7s-0.5,2.8-1.5,3.7s-2.2,1.4-3.7,1.4C1021,122,1019.8,121.5,1018.8,120.6z M1024,118.7
		c0.4-0.4,0.6-1.1,0.6-1.9s-0.2-1.4-0.6-1.9c-0.4-0.4-0.9-0.6-1.5-0.6s-1.1,0.2-1.5,0.6c-0.4,0.4-0.6,1-0.6,1.9s0.2,1.4,0.6,1.9
		s0.9,0.6,1.5,0.6C1023.1,119.4,1023.6,119.2,1024,118.7z"/>
	<path class="st0" d="M1032.8,111.9v1.5c0.6-1.1,1.6-1.6,3-1.6c1.2,0,2.1,0.4,2.8,1.2c0.7,0.8,1.1,1.8,1.1,3.1v5.9h-3.1v-5.5
		c0-0.6-0.2-1.1-0.5-1.5s-0.8-0.5-1.4-0.5c-0.6,0-1.1,0.2-1.4,0.5c-0.3,0.4-0.5,0.9-0.5,1.5v5.5h-3.1v-10H1032.8z"/>
	<path class="st0" d="M1046.6,119.3h1.1v2.6h-1.6c-1.1,0-2-0.2-2.6-0.7c-0.6-0.5-0.9-1.4-0.9-2.6v-4.2h-0.9v-2.6h0.9v-2.4h3.1v2.4h2
		v2.6h-2v4.2C1045.7,119.1,1046,119.3,1046.6,119.3z"/>
	<path class="st0" d="M1052.9,111.9v1.9c0.7-1.3,1.7-2,2.9-2v3.1h-0.8c-0.7,0-1.2,0.2-1.6,0.5c-0.4,0.3-0.5,0.9-0.5,1.8v4.8h-3.1
		v-10H1052.9z"/>
	<path class="st0" d="M1058.2,120.6c-1-0.9-1.5-2.2-1.5-3.7s0.5-2.8,1.5-3.7c1-0.9,2.3-1.4,3.7-1.4c1.5,0,2.7,0.5,3.7,1.4
		c1,0.9,1.5,2.2,1.5,3.7s-0.5,2.8-1.5,3.7s-2.2,1.4-3.7,1.4S1059.3,121.5,1058.2,120.6z M1063.5,118.7c0.4-0.4,0.6-1.1,0.6-1.9
		s-0.2-1.4-0.6-1.9c-0.4-0.4-0.9-0.6-1.5-0.6s-1.1,0.2-1.5,0.6c-0.4,0.4-0.6,1-0.6,1.9s0.2,1.4,0.6,1.9s0.9,0.6,1.5,0.6
		C1062.6,119.4,1063.1,119.2,1063.5,118.7z"/>
	<path class="st0" d="M1069.2,121.9v-13.3h3.1v13.3H1069.2z"/>
	<path class="st0" d="M1022.3,131.1c0,0.9-0.3,1.7-0.9,2.5c-0.3,0.4-0.8,0.7-1.4,1c-0.6,0.3-1.4,0.4-2.3,0.4h-1.9v4.9h-3.1v-12.6h5
		c1.5,0,2.6,0.4,3.4,1.1C1021.9,129.1,1022.3,130.1,1022.3,131.1z M1015.8,132.6h1.9c0.5,0,0.8-0.1,1.1-0.4c0.3-0.3,0.4-0.6,0.4-1.1
		c0-0.5-0.1-0.8-0.4-1.1c-0.3-0.3-0.6-0.4-1.1-0.4h-1.9V132.6z"/>
	<path class="st0" d="M1024.2,139.9v-13.3h3.1v13.3H1024.2z"/>
	<path class="st0" d="M1030.6,138.6c-0.9-1-1.3-2.2-1.3-3.7s0.4-2.7,1.3-3.7c0.9-1,2-1.4,3.2-1.4s2.3,0.5,2.9,1.4v-1.3h3.1v10h-3.1
		v-1.5c-0.7,1.1-1.7,1.6-3,1.6S1031.4,139.5,1030.6,138.6z M1036.1,136.7c0.4-0.4,0.7-1,0.7-1.8s-0.2-1.4-0.7-1.8
		c-0.4-0.4-1-0.6-1.5-0.6s-1.1,0.2-1.5,0.6c-0.4,0.4-0.7,1-0.7,1.8s0.2,1.4,0.7,1.8c0.4,0.4,1,0.6,1.5,0.6
		S1035.6,137.1,1036.1,136.7z"/>
	<path class="st0" d="M1045.6,129.9v1.5c0.6-1.1,1.6-1.6,3-1.6c1.2,0,2.1,0.4,2.8,1.2c0.7,0.8,1.1,1.8,1.1,3.1v5.9h-3.1v-5.5
		c0-0.6-0.2-1.1-0.5-1.5s-0.8-0.5-1.4-0.5c-0.6,0-1.1,0.2-1.4,0.5c-0.3,0.4-0.5,0.9-0.5,1.5v5.5h-3.1v-10H1045.6z"/>
	<path class="st0" d="M1059.4,140c-1.5,0-2.7-0.5-3.6-1.4c-0.9-0.9-1.4-2.2-1.4-3.8c0-1.6,0.5-2.8,1.4-3.7c0.9-0.9,2.1-1.4,3.6-1.4
		c1.5,0,2.7,0.5,3.7,1.4c1,0.9,1.5,2.2,1.5,3.8c0,0.3,0,0.7-0.1,1h-6.9c0.1,0.4,0.3,0.8,0.6,1.1c0.3,0.3,0.7,0.4,1.1,0.4
		s0.7,0,0.9-0.1c0.2-0.1,0.3-0.2,0.4-0.2c0.1-0.1,0.2-0.2,0.4-0.4h3.3c-0.3,1-0.9,1.8-1.7,2.4C1061.6,139.7,1060.6,140,1059.4,140z
		 M1060.7,132.8c-0.4-0.3-0.8-0.4-1.3-0.4s-0.9,0.1-1.2,0.4c-0.3,0.3-0.5,0.7-0.6,1.1h3.8C1061.3,133.5,1061.1,133.1,1060.7,132.8z"
		/>
</g>
<g>
	<path class="st0" d="M1112.4,120.2c-1.3-1.2-1.9-2.8-1.9-4.6s0.6-3.4,1.9-4.6c1.3-1.2,2.8-1.8,4.6-1.8c1.4,0,2.7,0.4,3.7,1.1
		c1.1,0.7,1.9,1.8,2.3,3.1h-3.7c-0.5-0.9-1.2-1.4-2.3-1.4c-1.1,0-1.9,0.3-2.5,1c-0.6,0.7-0.9,1.5-0.9,2.6s0.3,2,0.9,2.6
		c0.6,0.7,1.4,1,2.5,1c1.1,0,1.8-0.5,2.3-1.4h3.7c-0.4,1.3-1.2,2.4-2.3,3.1s-2.3,1.1-3.7,1.1C1115.2,122,1113.6,121.4,1112.4,120.2z
		"/>
	<path class="st0" d="M1125.8,120.6c-1-0.9-1.5-2.2-1.5-3.7s0.5-2.8,1.5-3.7c1-0.9,2.3-1.4,3.7-1.4s2.7,0.5,3.7,1.4
		c1,0.9,1.5,2.2,1.5,3.7s-0.5,2.8-1.5,3.7s-2.2,1.4-3.7,1.4C1128,122,1126.8,121.5,1125.8,120.6z M1131,118.7
		c0.4-0.4,0.6-1.1,0.6-1.9s-0.2-1.4-0.6-1.9c-0.4-0.4-0.9-0.6-1.5-0.6s-1.1,0.2-1.5,0.6c-0.4,0.4-0.6,1-0.6,1.9s0.2,1.4,0.6,1.9
		s0.9,0.6,1.5,0.6C1130.1,119.4,1130.6,119.2,1131,118.7z"/>
	<path class="st0" d="M1139.8,111.9v1.5c0.6-1.1,1.6-1.6,3-1.6c1.2,0,2.1,0.4,2.8,1.2c0.7,0.8,1.1,1.8,1.1,3.1v5.9h-3.1v-5.5
		c0-0.6-0.2-1.1-0.5-1.5s-0.8-0.5-1.4-0.5c-0.6,0-1.1,0.2-1.4,0.5c-0.3,0.4-0.5,0.9-0.5,1.5v5.5h-3.1v-10H1139.8z"/>
	<path class="st0" d="M1153.6,119.3h1.1v2.6h-1.6c-1.1,0-2-0.2-2.6-0.7c-0.6-0.5-0.9-1.4-0.9-2.6v-4.2h-0.9v-2.6h0.9v-2.4h3.1v2.4h2
		v2.6h-2v4.2C1152.7,119.1,1153,119.3,1153.6,119.3z"/>
	<path class="st0" d="M1159.9,111.9v1.9c0.7-1.3,1.7-2,2.9-2v3.1h-0.8c-0.7,0-1.2,0.2-1.6,0.5c-0.4,0.3-0.5,0.9-0.5,1.8v4.8h-3.1
		v-10H1159.9z"/>
	<path class="st0" d="M1165.2,120.6c-1-0.9-1.5-2.2-1.5-3.7s0.5-2.8,1.5-3.7c1-0.9,2.3-1.4,3.7-1.4c1.5,0,2.7,0.5,3.7,1.4
		c1,0.9,1.5,2.2,1.5,3.7s-0.5,2.8-1.5,3.7s-2.2,1.4-3.7,1.4S1166.3,121.5,1165.2,120.6z M1170.5,118.7c0.4-0.4,0.6-1.1,0.6-1.9
		s-0.2-1.4-0.6-1.9c-0.4-0.4-0.9-0.6-1.5-0.6s-1.1,0.2-1.5,0.6c-0.4,0.4-0.6,1-0.6,1.9s0.2,1.4,0.6,1.9s0.9,0.6,1.5,0.6
		C1169.6,119.4,1170.1,119.2,1170.5,118.7z"/>
	<path class="st0" d="M1176.2,121.9v-13.3h3.1v13.3H1176.2z"/>
	<path class="st0" d="M1129.3,131.1c0,0.9-0.3,1.7-0.9,2.5c-0.3,0.4-0.8,0.7-1.4,1c-0.6,0.3-1.4,0.4-2.3,0.4h-1.9v4.9h-3.1v-12.6h5
		c1.5,0,2.6,0.4,3.4,1.1C1128.9,129.1,1129.3,130.1,1129.3,131.1z M1122.8,132.6h1.9c0.5,0,0.8-0.1,1.1-0.4c0.3-0.3,0.4-0.6,0.4-1.1
		c0-0.5-0.1-0.8-0.4-1.1c-0.3-0.3-0.6-0.4-1.1-0.4h-1.9V132.6z"/>
	<path class="st0" d="M1131.2,139.9v-13.3h3.1v13.3H1131.2z"/>
	<path class="st0" d="M1137.6,138.6c-0.9-1-1.3-2.2-1.3-3.7s0.4-2.7,1.3-3.7c0.9-1,2-1.4,3.2-1.4s2.3,0.5,2.9,1.4v-1.3h3.1v10h-3.1
		v-1.5c-0.7,1.1-1.7,1.6-3,1.6S1138.4,139.5,1137.6,138.6z M1143.1,136.7c0.4-0.4,0.7-1,0.7-1.8s-0.2-1.4-0.7-1.8
		c-0.4-0.4-1-0.6-1.5-0.6s-1.1,0.2-1.5,0.6c-0.4,0.4-0.7,1-0.7,1.8s0.2,1.4,0.7,1.8c0.4,0.4,1,0.6,1.5,0.6
		S1142.6,137.1,1143.1,136.7z"/>
	<path class="st0" d="M1152.6,129.9v1.5c0.6-1.1,1.6-1.6,3-1.6c1.2,0,2.1,0.4,2.8,1.2c0.7,0.8,1.1,1.8,1.1,3.1v5.9h-3.1v-5.5
		c0-0.6-0.2-1.1-0.5-1.5s-0.8-0.5-1.4-0.5c-0.6,0-1.1,0.2-1.4,0.5c-0.3,0.4-0.5,0.9-0.5,1.5v5.5h-3.1v-10H1152.6z"/>
	<path class="st0" d="M1166.4,140c-1.5,0-2.7-0.5-3.6-1.4c-0.9-0.9-1.4-2.2-1.4-3.8c0-1.6,0.5-2.8,1.4-3.7c0.9-0.9,2.1-1.4,3.6-1.4
		c1.5,0,2.7,0.5,3.7,1.4c1,0.9,1.5,2.2,1.5,3.8c0,0.3,0,0.7-0.1,1h-6.9c0.1,0.4,0.3,0.8,0.6,1.1c0.3,0.3,0.7,0.4,1.1,0.4
		s0.7,0,0.9-0.1c0.2-0.1,0.3-0.2,0.4-0.2c0.1-0.1,0.2-0.2,0.4-0.4h3.3c-0.3,1-0.9,1.8-1.7,2.4C1168.6,139.7,1167.6,140,1166.4,140z
		 M1167.7,132.8c-0.4-0.3-0.8-0.4-1.3-0.4s-0.9,0.1-1.2,0.4c-0.3,0.3-0.5,0.7-0.6,1.1h3.8C1168.3,133.5,1168.1,133.1,1167.7,132.8z"
		/>
</g>
<g>
	<path class="st0" d="M1219.4,120.2c-1.3-1.2-1.9-2.8-1.9-4.6s0.6-3.4,1.9-4.6c1.3-1.2,2.8-1.8,4.6-1.8c1.4,0,2.7,0.4,3.7,1.1
		c1.1,0.7,1.9,1.8,2.3,3.1h-3.7c-0.5-0.9-1.2-1.4-2.3-1.4c-1.1,0-1.9,0.3-2.5,1c-0.6,0.7-0.9,1.5-0.9,2.6s0.3,2,0.9,2.6
		c0.6,0.7,1.4,1,2.5,1c1.1,0,1.8-0.5,2.3-1.4h3.7c-0.4,1.3-1.2,2.4-2.3,3.1s-2.3,1.1-3.7,1.1C1222.2,122,1220.6,121.4,1219.4,120.2z
		"/>
	<path class="st0" d="M1232.8,120.6c-1-0.9-1.5-2.2-1.5-3.7s0.5-2.8,1.5-3.7c1-0.9,2.3-1.4,3.7-1.4s2.7,0.5,3.7,1.4
		c1,0.9,1.5,2.2,1.5,3.7s-0.5,2.8-1.5,3.7s-2.2,1.4-3.7,1.4C1235,122,1233.8,121.5,1232.8,120.6z M1238,118.7
		c0.4-0.4,0.6-1.1,0.6-1.9s-0.2-1.4-0.6-1.9c-0.4-0.4-0.9-0.6-1.5-0.6s-1.1,0.2-1.5,0.6c-0.4,0.4-0.6,1-0.6,1.9s0.2,1.4,0.6,1.9
		s0.9,0.6,1.5,0.6C1237.1,119.4,1237.6,119.2,1238,118.7z"/>
	<path class="st0" d="M1246.8,111.9v1.5c0.6-1.1,1.6-1.6,3-1.6c1.2,0,2.1,0.4,2.8,1.2c0.7,0.8,1.1,1.8,1.1,3.1v5.9h-3.1v-5.5
		c0-0.6-0.2-1.1-0.5-1.5s-0.8-0.5-1.4-0.5c-0.6,0-1.1,0.2-1.4,0.5c-0.3,0.4-0.5,0.9-0.5,1.5v5.5h-3.1v-10H1246.8z"/>
	<path class="st0" d="M1260.6,119.3h1.1v2.6h-1.6c-1.1,0-2-0.2-2.6-0.7c-0.6-0.5-0.9-1.4-0.9-2.6v-4.2h-0.9v-2.6h0.9v-2.4h3.1v2.4h2
		v2.6h-2v4.2C1259.7,119.1,1260,119.3,1260.6,119.3z"/>
	<path class="st0" d="M1266.9,111.9v1.9c0.7-1.3,1.7-2,2.9-2v3.1h-0.8c-0.7,0-1.2,0.2-1.6,0.5c-0.4,0.3-0.5,0.9-0.5,1.8v4.8h-3.1
		v-10H1266.9z"/>
	<path class="st0" d="M1272.2,120.6c-1-0.9-1.5-2.2-1.5-3.7s0.5-2.8,1.5-3.7c1-0.9,2.3-1.4,3.7-1.4c1.5,0,2.7,0.5,3.7,1.4
		c1,0.9,1.5,2.2,1.5,3.7s-0.5,2.8-1.5,3.7s-2.2,1.4-3.7,1.4S1273.3,121.5,1272.2,120.6z M1277.5,118.7c0.4-0.4,0.6-1.1,0.6-1.9
		s-0.2-1.4-0.6-1.9c-0.4-0.4-0.9-0.6-1.5-0.6s-1.1,0.2-1.5,0.6c-0.4,0.4-0.6,1-0.6,1.9s0.2,1.4,0.6,1.9s0.9,0.6,1.5,0.6
		C1276.6,119.4,1277.1,119.2,1277.5,118.7z"/>
	<path class="st0" d="M1283.2,121.9v-13.3h3.1v13.3H1283.2z"/>
	<path class="st0" d="M1236.3,131.1c0,0.9-0.3,1.7-0.9,2.5c-0.3,0.4-0.8,0.7-1.4,1c-0.6,0.3-1.4,0.4-2.3,0.4h-1.9v4.9h-3.1v-12.6h5
		c1.5,0,2.6,0.4,3.4,1.1C1235.9,129.1,1236.3,130.1,1236.3,131.1z M1229.8,132.6h1.9c0.5,0,0.8-0.1,1.1-0.4c0.3-0.3,0.4-0.6,0.4-1.1
		c0-0.5-0.1-0.8-0.4-1.1c-0.3-0.3-0.6-0.4-1.1-0.4h-1.9V132.6z"/>
	<path class="st0" d="M1238.2,139.9v-13.3h3.1v13.3H1238.2z"/>
	<path class="st0" d="M1244.6,138.6c-0.9-1-1.3-2.2-1.3-3.7s0.4-2.7,1.3-3.7c0.9-1,2-1.4,3.2-1.4s2.3,0.5,2.9,1.4v-1.3h3.1v10h-3.1
		v-1.5c-0.7,1.1-1.7,1.6-3,1.6S1245.4,139.5,1244.6,138.6z M1250.1,136.7c0.4-0.4,0.7-1,0.7-1.8s-0.2-1.4-0.7-1.8
		c-0.4-0.4-1-0.6-1.5-0.6s-1.1,0.2-1.5,0.6c-0.4,0.4-0.7,1-0.7,1.8s0.2,1.4,0.7,1.8c0.4,0.4,1,0.6,1.5,0.6
		S1249.6,137.1,1250.1,136.7z"/>
	<path class="st0" d="M1259.6,129.9v1.5c0.6-1.1,1.6-1.6,3-1.6c1.2,0,2.1,0.4,2.8,1.2c0.7,0.8,1.1,1.8,1.1,3.1v5.9h-3.1v-5.5
		c0-0.6-0.2-1.1-0.5-1.5s-0.8-0.5-1.4-0.5c-0.6,0-1.1,0.2-1.4,0.5c-0.3,0.4-0.5,0.9-0.5,1.5v5.5h-3.1v-10H1259.6z"/>
	<path class="st0" d="M1273.4,140c-1.5,0-2.7-0.5-3.6-1.4c-0.9-0.9-1.4-2.2-1.4-3.8c0-1.6,0.5-2.8,1.4-3.7c0.9-0.9,2.1-1.4,3.6-1.4
		c1.5,0,2.7,0.5,3.7,1.4c1,0.9,1.5,2.2,1.5,3.8c0,0.3,0,0.7-0.1,1h-6.9c0.1,0.4,0.3,0.8,0.6,1.1c0.3,0.3,0.7,0.4,1.1,0.4
		s0.7,0,0.9-0.1c0.2-0.1,0.3-0.2,0.4-0.2c0.1-0.1,0.2-0.2,0.4-0.4h3.3c-0.3,1-0.9,1.8-1.7,2.4C1275.6,139.7,1274.6,140,1273.4,140z
		 M1274.7,132.8c-0.4-0.3-0.8-0.4-1.3-0.4s-0.9,0.1-1.2,0.4c-0.3,0.3-0.5,0.7-0.6,1.1h3.8C1275.3,133.5,1275.1,133.1,1274.7,132.8z"
		/>
</g>
<g>
	<path class="st5" d="M1026.7,216.2v2.3h-4.6v2.7h4v2.3h-4v2.9h4.6v2.3h-7.7v-12.7H1026.7z"/>
	<path class="st5" d="M1033.6,226.3h1.1v2.6h-1.6c-1.1,0-2-0.2-2.6-0.7c-0.6-0.5-0.9-1.4-0.9-2.6v-4.2h-0.9v-2.6h0.9v-2.4h3.1v2.4h2
		v2.6h-2v4.2C1032.7,226.1,1033,226.3,1033.6,226.3z"/>
	<path class="st5" d="M1037.5,227.6c-0.9-0.9-1.4-2.2-1.4-3.7s0.5-2.8,1.4-3.7c0.9-0.9,2.1-1.4,3.6-1.4c1.2,0,2.3,0.3,3.1,0.9
		c0.9,0.6,1.4,1.5,1.7,2.6h-3.3c-0.3-0.6-0.8-0.9-1.4-0.9c-0.7,0-1.1,0.2-1.5,0.7c-0.3,0.5-0.5,1.1-0.5,1.8s0.2,1.4,0.5,1.8
		c0.3,0.5,0.8,0.7,1.4,0.7c0.4,0,0.7-0.1,0.9-0.2c0.2-0.1,0.4-0.4,0.6-0.7h3.3c-0.3,1.1-0.8,1.9-1.7,2.6c-0.9,0.6-1.9,1-3.1,1
		C1039.6,229,1038.4,228.6,1037.5,227.6z"/>
	<path class="st5" d="M1048.2,227.6c-0.9-1-1.3-2.2-1.3-3.7s0.4-2.7,1.3-3.7c0.9-1,2-1.4,3.2-1.4c1.3,0,2.3,0.5,2.9,1.4v-4.6h3.1
		v13.3h-3.1v-1.5c-0.7,1.1-1.7,1.6-3,1.6S1049.1,228.5,1048.2,227.6z M1053.7,225.7c0.4-0.4,0.7-1,0.7-1.8s-0.2-1.4-0.7-1.8
		c-0.4-0.4-1-0.6-1.5-0.6s-1.1,0.2-1.5,0.6c-0.4,0.4-0.7,1-0.7,1.8s0.2,1.4,0.7,1.8c0.4,0.4,1,0.6,1.5,0.6
		S1053.3,226.1,1053.7,225.7z"/>
	<path class="st5" d="M1026.1,234.3h3.1v12.6h-3.1v-5.2h-4.9v5.2h-3.1v-12.6h3.1v5.1h4.9V234.3z"/>
	<path class="st5" d="M1032.7,245.6c-1-0.9-1.5-2.2-1.5-3.7s0.5-2.8,1.5-3.7c1-0.9,2.3-1.4,3.7-1.4c1.5,0,2.7,0.5,3.7,1.4
		c1,0.9,1.5,2.2,1.5,3.7s-0.5,2.8-1.5,3.7s-2.2,1.4-3.7,1.4C1034.9,247,1033.7,246.5,1032.7,245.6z M1037.9,243.7
		c0.4-0.4,0.6-1.1,0.6-1.9s-0.2-1.4-0.6-1.9c-0.4-0.4-0.9-0.6-1.5-0.6c-0.6,0-1.1,0.2-1.5,0.6c-0.4,0.4-0.6,1-0.6,1.9
		s0.2,1.4,0.6,1.9s0.9,0.6,1.5,0.6S1037.5,244.2,1037.9,243.7z"/>
	<path class="st5" d="M1042.9,239.9c0-0.9,0.4-1.6,1.1-2.2c0.8-0.6,1.8-0.9,3.1-0.9c1.3,0,2.3,0.3,3.1,0.9s1.2,1.4,1.3,2.4h-3.2
		c0-0.3-0.2-0.6-0.4-0.7c-0.2-0.1-0.5-0.2-0.9-0.2c-0.8,0-1.2,0.2-1.2,0.7c0,0.4,0.5,0.8,1.5,0.9c1,0.2,1.9,0.4,2.7,0.8
		c0.4,0.2,0.8,0.4,1.1,0.8c0.3,0.4,0.4,0.9,0.4,1.4c0,0.9-0.4,1.7-1.2,2.3c-0.8,0.6-1.8,0.9-3,0.9s-2.2-0.3-3.1-0.8
		c-0.8-0.6-1.3-1.4-1.3-2.5h3.1c0.1,0.6,0.5,0.9,1.3,0.9c0.4,0,0.7-0.1,0.9-0.3c0.2-0.2,0.4-0.4,0.4-0.6c0-0.3-0.2-0.5-0.6-0.6
		s-0.9-0.3-1.4-0.4s-1.1-0.2-1.7-0.4s-1-0.4-1.4-0.8S1042.9,240.5,1042.9,239.9z"/>
	<path class="st5" d="M1057.9,244.3h1.1v2.6h-1.6c-1.1,0-2-0.2-2.6-0.7c-0.6-0.5-0.9-1.4-0.9-2.6v-4.2h-0.9v-2.6h0.9v-2.4h3.1v2.4h2
		v2.6h-2v4.2C1056.9,244.1,1057.2,244.3,1057.9,244.3z"/>
</g>
<g>
	<path class="st5" d="M1133.7,216.2v2.3h-4.6v2.7h4v2.3h-4v2.9h4.6v2.3h-7.7v-12.7H1133.7z"/>
	<path class="st5" d="M1140.6,226.3h1.1v2.6h-1.6c-1.1,0-2-0.2-2.6-0.7c-0.6-0.5-0.9-1.4-0.9-2.6v-4.2h-0.9v-2.6h0.9v-2.4h3.1v2.4h2
		v2.6h-2v4.2C1139.7,226.1,1140,226.3,1140.6,226.3z"/>
	<path class="st5" d="M1144.5,227.6c-0.9-0.9-1.4-2.2-1.4-3.7s0.5-2.8,1.4-3.7c0.9-0.9,2.1-1.4,3.6-1.4c1.2,0,2.3,0.3,3.1,0.9
		c0.9,0.6,1.4,1.5,1.7,2.6h-3.3c-0.3-0.6-0.8-0.9-1.4-0.9c-0.7,0-1.1,0.2-1.5,0.7c-0.3,0.5-0.5,1.1-0.5,1.8s0.2,1.4,0.5,1.8
		c0.3,0.5,0.8,0.7,1.4,0.7c0.4,0,0.7-0.1,0.9-0.2c0.2-0.1,0.4-0.4,0.6-0.7h3.3c-0.3,1.1-0.8,1.9-1.7,2.6c-0.9,0.6-1.9,1-3.1,1
		C1146.6,229,1145.4,228.6,1144.5,227.6z"/>
	<path class="st5" d="M1155.2,227.6c-0.9-1-1.3-2.2-1.3-3.7s0.4-2.7,1.3-3.7c0.9-1,2-1.4,3.2-1.4c1.3,0,2.3,0.5,2.9,1.4v-4.6h3.1
		v13.3h-3.1v-1.5c-0.7,1.1-1.7,1.6-3,1.6S1156.1,228.5,1155.2,227.6z M1160.7,225.7c0.4-0.4,0.7-1,0.7-1.8s-0.2-1.4-0.7-1.8
		c-0.4-0.4-1-0.6-1.5-0.6s-1.1,0.2-1.5,0.6c-0.4,0.4-0.7,1-0.7,1.8s0.2,1.4,0.7,1.8c0.4,0.4,1,0.6,1.5,0.6
		S1160.3,226.1,1160.7,225.7z"/>
	<path class="st5" d="M1133.1,234.3h3.1v12.6h-3.1v-5.2h-4.9v5.2h-3.1v-12.6h3.1v5.1h4.9V234.3z"/>
	<path class="st5" d="M1139.7,245.6c-1-0.9-1.5-2.2-1.5-3.7s0.5-2.8,1.5-3.7c1-0.9,2.3-1.4,3.7-1.4c1.5,0,2.7,0.5,3.7,1.4
		c1,0.9,1.5,2.2,1.5,3.7s-0.5,2.8-1.5,3.7s-2.2,1.4-3.7,1.4C1141.9,247,1140.7,246.5,1139.7,245.6z M1144.9,243.7
		c0.4-0.4,0.6-1.1,0.6-1.9s-0.2-1.4-0.6-1.9c-0.4-0.4-0.9-0.6-1.5-0.6c-0.6,0-1.1,0.2-1.5,0.6c-0.4,0.4-0.6,1-0.6,1.9
		s0.2,1.4,0.6,1.9s0.9,0.6,1.5,0.6S1144.5,244.2,1144.9,243.7z"/>
	<path class="st5" d="M1149.9,239.9c0-0.9,0.4-1.6,1.1-2.2c0.8-0.6,1.8-0.9,3.1-0.9c1.3,0,2.3,0.3,3.1,0.9s1.2,1.4,1.3,2.4h-3.2
		c0-0.3-0.2-0.6-0.4-0.7c-0.2-0.1-0.5-0.2-0.9-0.2c-0.8,0-1.2,0.2-1.2,0.7c0,0.4,0.5,0.8,1.5,0.9c1,0.2,1.9,0.4,2.7,0.8
		c0.4,0.2,0.8,0.4,1.1,0.8c0.3,0.4,0.4,0.9,0.4,1.4c0,0.9-0.4,1.7-1.2,2.3c-0.8,0.6-1.8,0.9-3,0.9s-2.2-0.3-3.1-0.8
		c-0.8-0.6-1.3-1.4-1.3-2.5h3.1c0.1,0.6,0.5,0.9,1.3,0.9c0.4,0,0.7-0.1,0.9-0.3c0.2-0.2,0.4-0.4,0.4-0.6c0-0.3-0.2-0.5-0.6-0.6
		s-0.9-0.3-1.4-0.4s-1.1-0.2-1.7-0.4s-1-0.4-1.4-0.8S1149.9,240.5,1149.9,239.9z"/>
	<path class="st5" d="M1164.9,244.3h1.1v2.6h-1.6c-1.1,0-2-0.2-2.6-0.7c-0.6-0.5-0.9-1.4-0.9-2.6v-4.2h-0.9v-2.6h0.9v-2.4h3.1v2.4h2
		v2.6h-2v4.2C1163.9,244.1,1164.2,244.3,1164.9,244.3z"/>
</g>
<g>
	<path class="st5" d="M1240.7,216.2v2.3h-4.6v2.7h4v2.3h-4v2.9h4.6v2.3h-7.7v-12.7H1240.7z"/>
	<path class="st5" d="M1247.6,226.3h1.1v2.6h-1.6c-1.1,0-2-0.2-2.6-0.7c-0.6-0.5-0.9-1.4-0.9-2.6v-4.2h-0.9v-2.6h0.9v-2.4h3.1v2.4h2
		v2.6h-2v4.2C1246.7,226.1,1247,226.3,1247.6,226.3z"/>
	<path class="st5" d="M1251.5,227.6c-0.9-0.9-1.4-2.2-1.4-3.7s0.5-2.8,1.4-3.7c0.9-0.9,2.1-1.4,3.6-1.4c1.2,0,2.3,0.3,3.1,0.9
		c0.9,0.6,1.4,1.5,1.7,2.6h-3.3c-0.3-0.6-0.8-0.9-1.4-0.9c-0.7,0-1.1,0.2-1.5,0.7c-0.3,0.5-0.5,1.1-0.5,1.8s0.2,1.4,0.5,1.8
		c0.3,0.5,0.8,0.7,1.4,0.7c0.4,0,0.7-0.1,0.9-0.2c0.2-0.1,0.4-0.4,0.6-0.7h3.3c-0.3,1.1-0.8,1.9-1.7,2.6c-0.9,0.6-1.9,1-3.1,1
		C1253.6,229,1252.4,228.6,1251.5,227.6z"/>
	<path class="st5" d="M1262.2,227.6c-0.9-1-1.3-2.2-1.3-3.7s0.4-2.7,1.3-3.7c0.9-1,2-1.4,3.2-1.4c1.3,0,2.3,0.5,2.9,1.4v-4.6h3.1
		v13.3h-3.1v-1.5c-0.7,1.1-1.7,1.6-3,1.6S1263.1,228.5,1262.2,227.6z M1267.7,225.7c0.4-0.4,0.7-1,0.7-1.8s-0.2-1.4-0.7-1.8
		c-0.4-0.4-1-0.6-1.5-0.6s-1.1,0.2-1.5,0.6c-0.4,0.4-0.7,1-0.7,1.8s0.2,1.4,0.7,1.8c0.4,0.4,1,0.6,1.5,0.6
		S1267.3,226.1,1267.7,225.7z"/>
	<path class="st5" d="M1240.1,234.3h3.1v12.6h-3.1v-5.2h-4.9v5.2h-3.1v-12.6h3.1v5.1h4.9V234.3z"/>
	<path class="st5" d="M1246.7,245.6c-1-0.9-1.5-2.2-1.5-3.7s0.5-2.8,1.5-3.7c1-0.9,2.3-1.4,3.7-1.4c1.5,0,2.7,0.5,3.7,1.4
		c1,0.9,1.5,2.2,1.5,3.7s-0.5,2.8-1.5,3.7s-2.2,1.4-3.7,1.4C1248.9,247,1247.7,246.5,1246.7,245.6z M1251.9,243.7
		c0.4-0.4,0.6-1.1,0.6-1.9s-0.2-1.4-0.6-1.9c-0.4-0.4-0.9-0.6-1.5-0.6c-0.6,0-1.1,0.2-1.5,0.6c-0.4,0.4-0.6,1-0.6,1.9
		s0.2,1.4,0.6,1.9s0.9,0.6,1.5,0.6S1251.5,244.2,1251.9,243.7z"/>
	<path class="st5" d="M1256.9,239.9c0-0.9,0.4-1.6,1.1-2.2c0.8-0.6,1.8-0.9,3.1-0.9c1.3,0,2.3,0.3,3.1,0.9s1.2,1.4,1.3,2.4h-3.2
		c0-0.3-0.2-0.6-0.4-0.7c-0.2-0.1-0.5-0.2-0.9-0.2c-0.8,0-1.2,0.2-1.2,0.7c0,0.4,0.5,0.8,1.5,0.9c1,0.2,1.9,0.4,2.7,0.8
		c0.4,0.2,0.8,0.4,1.1,0.8c0.3,0.4,0.4,0.9,0.4,1.4c0,0.9-0.4,1.7-1.2,2.3c-0.8,0.6-1.8,0.9-3,0.9s-2.2-0.3-3.1-0.8
		c-0.8-0.6-1.3-1.4-1.3-2.5h3.1c0.1,0.6,0.5,0.9,1.3,0.9c0.4,0,0.7-0.1,0.9-0.3c0.2-0.2,0.4-0.4,0.4-0.6c0-0.3-0.2-0.5-0.6-0.6
		s-0.9-0.3-1.4-0.4s-1.1-0.2-1.7-0.4s-1-0.4-1.4-0.8S1256.9,240.5,1256.9,239.9z"/>
	<path class="st5" d="M1271.9,244.3h1.1v2.6h-1.6c-1.1,0-2-0.2-2.6-0.7c-0.6-0.5-0.9-1.4-0.9-2.6v-4.2h-0.9v-2.6h0.9v-2.4h3.1v2.4h2
		v2.6h-2v4.2C1270.9,244.1,1271.2,244.3,1271.9,244.3z"/>
</g>
<g>
	<path class="st2" d="M1019.1,332.3h3.3l-3.5,12.6h-3.5l-2.2-8l-2.2,8h-3.5l-3.6-12.6h3.3l2.2,9.1l2.2-9.1h3.5l2.2,8.9L1019.1,332.3
		z"/>
	<path class="st2" d="M1024.7,343.6c-1-0.9-1.5-2.2-1.5-3.7s0.5-2.8,1.5-3.7c1-0.9,2.3-1.4,3.7-1.4s2.7,0.5,3.7,1.4
		c1,0.9,1.5,2.2,1.5,3.7s-0.5,2.8-1.5,3.7s-2.2,1.4-3.7,1.4C1027,345,1025.7,344.5,1024.7,343.6z M1030,341.7
		c0.4-0.4,0.6-1.1,0.6-1.9s-0.2-1.4-0.6-1.9c-0.4-0.4-0.9-0.6-1.5-0.6s-1.1,0.2-1.5,0.6c-0.4,0.4-0.6,1-0.6,1.9s0.2,1.4,0.6,1.9
		s0.9,0.6,1.5,0.6C1029.1,342.4,1029.6,342.2,1030,341.7z"/>
	<path class="st2" d="M1038.8,334.9v1.9c0.7-1.3,1.7-2,2.9-2v3.1h-0.8c-0.7,0-1.2,0.2-1.6,0.5c-0.4,0.3-0.5,0.9-0.5,1.8v4.8h-3.1
		v-10H1038.8z"/>
	<path class="st2" d="M1046.4,344.9h-3.1v-13.3h3.1v7.5l3.1-4.2h4.1l-4.3,5.1l4.3,4.9h-4.1l-3.2-4V344.9z"/>
	<path class="st2" d="M1059.3,345c-1.5,0-2.7-0.5-3.6-1.4c-0.9-0.9-1.4-2.2-1.4-3.8c0-1.6,0.5-2.8,1.4-3.7c0.9-0.9,2.1-1.4,3.6-1.4
		s2.7,0.5,3.7,1.4c1,0.9,1.5,2.2,1.5,3.8c0,0.3,0,0.7-0.1,1h-6.9c0.1,0.4,0.3,0.8,0.6,1.1c0.3,0.3,0.7,0.4,1.1,0.4
		c0.4,0,0.7,0,0.9-0.1c0.2-0.1,0.3-0.2,0.4-0.2c0.1-0.1,0.2-0.2,0.4-0.4h3.3c-0.3,1-0.9,1.8-1.7,2.4
		C1061.6,344.7,1060.5,345,1059.3,345z M1060.7,337.8c-0.4-0.3-0.8-0.4-1.3-0.4s-0.9,0.1-1.2,0.4c-0.3,0.3-0.5,0.7-0.6,1.1h3.8
		C1061.2,338.5,1061,338.1,1060.7,337.8z"/>
	<path class="st2" d="M1069.5,334.9v1.9c0.7-1.3,1.7-2,2.9-2v3.1h-0.8c-0.7,0-1.2,0.2-1.6,0.5c-0.4,0.3-0.5,0.9-0.5,1.8v4.8h-3.1
		v-10H1069.5z"/>
</g>
<g>
	<path class="st2" d="M1126.1,332.3h3.3l-3.5,12.6h-3.5l-2.2-8l-2.2,8h-3.5l-3.6-12.6h3.3l2.2,9.1l2.2-9.1h3.5l2.2,8.9L1126.1,332.3
		z"/>
	<path class="st2" d="M1131.7,343.6c-1-0.9-1.5-2.2-1.5-3.7s0.5-2.8,1.5-3.7c1-0.9,2.3-1.4,3.7-1.4s2.7,0.5,3.7,1.4
		c1,0.9,1.5,2.2,1.5,3.7s-0.5,2.8-1.5,3.7s-2.2,1.4-3.7,1.4C1134,345,1132.7,344.5,1131.7,343.6z M1137,341.7
		c0.4-0.4,0.6-1.1,0.6-1.9s-0.2-1.4-0.6-1.9c-0.4-0.4-0.9-0.6-1.5-0.6s-1.1,0.2-1.5,0.6c-0.4,0.4-0.6,1-0.6,1.9s0.2,1.4,0.6,1.9
		s0.9,0.6,1.5,0.6C1136.1,342.4,1136.6,342.2,1137,341.7z"/>
	<path class="st2" d="M1145.8,334.9v1.9c0.7-1.3,1.7-2,2.9-2v3.1h-0.8c-0.7,0-1.2,0.2-1.6,0.5c-0.4,0.3-0.5,0.9-0.5,1.8v4.8h-3.1
		v-10H1145.8z"/>
	<path class="st2" d="M1153.4,344.9h-3.1v-13.3h3.1v7.5l3.1-4.2h4.1l-4.3,5.1l4.3,4.9h-4.1l-3.2-4V344.9z"/>
	<path class="st2" d="M1166.3,345c-1.5,0-2.7-0.5-3.6-1.4c-0.9-0.9-1.4-2.2-1.4-3.8c0-1.6,0.5-2.8,1.4-3.7c0.9-0.9,2.1-1.4,3.6-1.4
		s2.7,0.5,3.7,1.4c1,0.9,1.5,2.2,1.5,3.8c0,0.3,0,0.7-0.1,1h-6.9c0.1,0.4,0.3,0.8,0.6,1.1c0.3,0.3,0.7,0.4,1.1,0.4
		c0.4,0,0.7,0,0.9-0.1c0.2-0.1,0.3-0.2,0.4-0.2c0.1-0.1,0.2-0.2,0.4-0.4h3.3c-0.3,1-0.9,1.8-1.7,2.4
		C1168.6,344.7,1167.5,345,1166.3,345z M1167.7,337.8c-0.4-0.3-0.8-0.4-1.3-0.4s-0.9,0.1-1.2,0.4c-0.3,0.3-0.5,0.7-0.6,1.1h3.8
		C1168.2,338.5,1168,338.1,1167.7,337.8z"/>
	<path class="st2" d="M1176.5,334.9v1.9c0.7-1.3,1.7-2,2.9-2v3.1h-0.8c-0.7,0-1.2,0.2-1.6,0.5c-0.4,0.3-0.5,0.9-0.5,1.8v4.8h-3.1
		v-10H1176.5z"/>
</g>
<g>
	<path class="st2" d="M1233.1,332.3h3.3l-3.5,12.6h-3.5l-2.2-8l-2.2,8h-3.5l-3.6-12.6h3.3l2.2,9.1l2.2-9.1h3.5l2.2,8.9L1233.1,332.3
		z"/>
	<path class="st2" d="M1238.7,343.6c-1-0.9-1.5-2.2-1.5-3.7s0.5-2.8,1.5-3.7c1-0.9,2.3-1.4,3.7-1.4s2.7,0.5,3.7,1.4
		c1,0.9,1.5,2.2,1.5,3.7s-0.5,2.8-1.5,3.7s-2.2,1.4-3.7,1.4C1241,345,1239.7,344.5,1238.7,343.6z M1244,341.7
		c0.4-0.4,0.6-1.1,0.6-1.9s-0.2-1.4-0.6-1.9c-0.4-0.4-0.9-0.6-1.5-0.6s-1.1,0.2-1.5,0.6c-0.4,0.4-0.6,1-0.6,1.9s0.2,1.4,0.6,1.9
		s0.9,0.6,1.5,0.6C1243.1,342.4,1243.6,342.2,1244,341.7z"/>
	<path class="st2" d="M1252.8,334.9v1.9c0.7-1.3,1.7-2,2.9-2v3.1h-0.8c-0.7,0-1.2,0.2-1.6,0.5c-0.4,0.3-0.5,0.9-0.5,1.8v4.8h-3.1
		v-10H1252.8z"/>
	<path class="st2" d="M1260.4,344.9h-3.1v-13.3h3.1v7.5l3.1-4.2h4.1l-4.3,5.1l4.3,4.9h-4.1l-3.2-4V344.9z"/>
	<path class="st2" d="M1273.3,345c-1.5,0-2.7-0.5-3.6-1.4c-0.9-0.9-1.4-2.2-1.4-3.8c0-1.6,0.5-2.8,1.4-3.7c0.9-0.9,2.1-1.4,3.6-1.4
		s2.7,0.5,3.7,1.4c1,0.9,1.5,2.2,1.5,3.8c0,0.3,0,0.7-0.1,1h-6.9c0.1,0.4,0.3,0.8,0.6,1.1c0.3,0.3,0.7,0.4,1.1,0.4
		c0.4,0,0.7,0,0.9-0.1c0.2-0.1,0.3-0.2,0.4-0.2c0.1-0.1,0.2-0.2,0.4-0.4h3.3c-0.3,1-0.9,1.8-1.7,2.4
		C1275.6,344.7,1274.5,345,1273.3,345z M1274.7,337.8c-0.4-0.3-0.8-0.4-1.3-0.4s-0.9,0.1-1.2,0.4c-0.3,0.3-0.5,0.7-0.6,1.1h3.8
		C1275.2,338.5,1275,338.1,1274.7,337.8z"/>
	<path class="st2" d="M1283.5,334.9v1.9c0.7-1.3,1.7-2,2.9-2v3.1h-0.8c-0.7,0-1.2,0.2-1.6,0.5c-0.4,0.3-0.5,0.9-0.5,1.8v4.8h-3.1
		v-10H1283.5z"/>
</g>
<g>
	<path class="st2" d="M1019.1,439.3h3.3l-3.5,12.6h-3.5l-2.2-8l-2.2,8h-3.5l-3.6-12.6h3.3l2.2,9.1l2.2-9.1h3.5l2.2,8.9L1019.1,439.3
		z"/>
	<path class="st2" d="M1024.7,450.6c-1-0.9-1.5-2.2-1.5-3.7c0-1.5,0.5-2.8,1.5-3.7s2.3-1.4,3.7-1.4s2.7,0.5,3.7,1.4s1.5,2.2,1.5,3.7
		c0,1.5-0.5,2.8-1.5,3.7c-1,0.9-2.2,1.4-3.7,1.4C1027,452,1025.7,451.5,1024.7,450.6z M1030,448.7c0.4-0.4,0.6-1.1,0.6-1.9
		s-0.2-1.4-0.6-1.9c-0.4-0.4-0.9-0.6-1.5-0.6s-1.1,0.2-1.5,0.6c-0.4,0.4-0.6,1-0.6,1.9s0.2,1.4,0.6,1.9s0.9,0.6,1.5,0.6
		C1029.1,449.4,1029.6,449.2,1030,448.7z"/>
	<path class="st2" d="M1038.8,441.9v1.9c0.7-1.3,1.7-2,2.9-2v3.1h-0.8c-0.7,0-1.2,0.2-1.6,0.5c-0.4,0.3-0.5,0.9-0.5,1.8v4.8h-3.1
		v-10H1038.8z"/>
	<path class="st2" d="M1046.4,451.9h-3.1v-13.3h3.1v7.5l3.1-4.2h4.1l-4.3,5.1l4.3,4.9h-4.1l-3.2-4V451.9z"/>
	<path class="st2" d="M1059.3,452c-1.5,0-2.7-0.5-3.6-1.4c-0.9-0.9-1.4-2.2-1.4-3.8c0-1.6,0.5-2.8,1.4-3.7c0.9-0.9,2.1-1.4,3.6-1.4
		s2.7,0.5,3.7,1.4c1,0.9,1.5,2.2,1.5,3.8c0,0.3,0,0.7-0.1,1h-6.9c0.1,0.4,0.3,0.8,0.6,1.1c0.3,0.3,0.7,0.4,1.1,0.4
		c0.4,0,0.7,0,0.9-0.1c0.2-0.1,0.3-0.2,0.4-0.2c0.1-0.1,0.2-0.2,0.4-0.4h3.3c-0.3,1-0.9,1.8-1.7,2.4
		C1061.6,451.7,1060.5,452,1059.3,452z M1060.7,444.8c-0.4-0.3-0.8-0.4-1.3-0.4s-0.9,0.1-1.2,0.4c-0.3,0.3-0.5,0.7-0.6,1.1h3.8
		C1061.2,445.5,1061,445.1,1060.7,444.8z"/>
	<path class="st2" d="M1069.5,441.9v1.9c0.7-1.3,1.7-2,2.9-2v3.1h-0.8c-0.7,0-1.2,0.2-1.6,0.5c-0.4,0.3-0.5,0.9-0.5,1.8v4.8h-3.1
		v-10H1069.5z"/>
</g>
<g>
	<path class="st2" d="M1126.1,439.3h3.3l-3.5,12.6h-3.5l-2.2-8l-2.2,8h-3.5l-3.6-12.6h3.3l2.2,9.1l2.2-9.1h3.5l2.2,8.9L1126.1,439.3
		z"/>
	<path class="st2" d="M1131.7,450.6c-1-0.9-1.5-2.2-1.5-3.7c0-1.5,0.5-2.8,1.5-3.7s2.3-1.4,3.7-1.4s2.7,0.5,3.7,1.4s1.5,2.2,1.5,3.7
		c0,1.5-0.5,2.8-1.5,3.7c-1,0.9-2.2,1.4-3.7,1.4C1134,452,1132.7,451.5,1131.7,450.6z M1137,448.7c0.4-0.4,0.6-1.1,0.6-1.9
		s-0.2-1.4-0.6-1.9c-0.4-0.4-0.9-0.6-1.5-0.6s-1.1,0.2-1.5,0.6c-0.4,0.4-0.6,1-0.6,1.9s0.2,1.4,0.6,1.9s0.9,0.6,1.5,0.6
		C1136.1,449.4,1136.6,449.2,1137,448.7z"/>
	<path class="st2" d="M1145.8,441.9v1.9c0.7-1.3,1.7-2,2.9-2v3.1h-0.8c-0.7,0-1.2,0.2-1.6,0.5c-0.4,0.3-0.5,0.9-0.5,1.8v4.8h-3.1
		v-10H1145.8z"/>
	<path class="st2" d="M1153.4,451.9h-3.1v-13.3h3.1v7.5l3.1-4.2h4.1l-4.3,5.1l4.3,4.9h-4.1l-3.2-4V451.9z"/>
	<path class="st2" d="M1166.3,452c-1.5,0-2.7-0.5-3.6-1.4c-0.9-0.9-1.4-2.2-1.4-3.8c0-1.6,0.5-2.8,1.4-3.7c0.9-0.9,2.1-1.4,3.6-1.4
		s2.7,0.5,3.7,1.4c1,0.9,1.5,2.2,1.5,3.8c0,0.3,0,0.7-0.1,1h-6.9c0.1,0.4,0.3,0.8,0.6,1.1c0.3,0.3,0.7,0.4,1.1,0.4
		c0.4,0,0.7,0,0.9-0.1c0.2-0.1,0.3-0.2,0.4-0.2c0.1-0.1,0.2-0.2,0.4-0.4h3.3c-0.3,1-0.9,1.8-1.7,2.4
		C1168.6,451.7,1167.5,452,1166.3,452z M1167.7,444.8c-0.4-0.3-0.8-0.4-1.3-0.4s-0.9,0.1-1.2,0.4c-0.3,0.3-0.5,0.7-0.6,1.1h3.8
		C1168.2,445.5,1168,445.1,1167.7,444.8z"/>
	<path class="st2" d="M1176.5,441.9v1.9c0.7-1.3,1.7-2,2.9-2v3.1h-0.8c-0.7,0-1.2,0.2-1.6,0.5c-0.4,0.3-0.5,0.9-0.5,1.8v4.8h-3.1
		v-10H1176.5z"/>
</g>
<g>
	<path class="st2" d="M1233.1,439.3h3.3l-3.5,12.6h-3.5l-2.2-8l-2.2,8h-3.5l-3.6-12.6h3.3l2.2,9.1l2.2-9.1h3.5l2.2,8.9L1233.1,439.3
		z"/>
	<path class="st2" d="M1238.7,450.6c-1-0.9-1.5-2.2-1.5-3.7c0-1.5,0.5-2.8,1.5-3.7s2.3-1.4,3.7-1.4s2.7,0.5,3.7,1.4s1.5,2.2,1.5,3.7
		c0,1.5-0.5,2.8-1.5,3.7c-1,0.9-2.2,1.4-3.7,1.4C1241,452,1239.7,451.5,1238.7,450.6z M1244,448.7c0.4-0.4,0.6-1.1,0.6-1.9
		s-0.2-1.4-0.6-1.9c-0.4-0.4-0.9-0.6-1.5-0.6s-1.1,0.2-1.5,0.6c-0.4,0.4-0.6,1-0.6,1.9s0.2,1.4,0.6,1.9s0.9,0.6,1.5,0.6
		C1243.1,449.4,1243.6,449.2,1244,448.7z"/>
	<path class="st2" d="M1252.8,441.9v1.9c0.7-1.3,1.7-2,2.9-2v3.1h-0.8c-0.7,0-1.2,0.2-1.6,0.5c-0.4,0.3-0.5,0.9-0.5,1.8v4.8h-3.1
		v-10H1252.8z"/>
	<path class="st2" d="M1260.4,451.9h-3.1v-13.3h3.1v7.5l3.1-4.2h4.1l-4.3,5.1l4.3,4.9h-4.1l-3.2-4V451.9z"/>
	<path class="st2" d="M1273.3,452c-1.5,0-2.7-0.5-3.6-1.4c-0.9-0.9-1.4-2.2-1.4-3.8c0-1.6,0.5-2.8,1.4-3.7c0.9-0.9,2.1-1.4,3.6-1.4
		s2.7,0.5,3.7,1.4c1,0.9,1.5,2.2,1.5,3.8c0,0.3,0,0.7-0.1,1h-6.9c0.1,0.4,0.3,0.8,0.6,1.1c0.3,0.3,0.7,0.4,1.1,0.4
		c0.4,0,0.7,0,0.9-0.1c0.2-0.1,0.3-0.2,0.4-0.2c0.1-0.1,0.2-0.2,0.4-0.4h3.3c-0.3,1-0.9,1.8-1.7,2.4
		C1275.6,451.7,1274.5,452,1273.3,452z M1274.7,444.8c-0.4-0.3-0.8-0.4-1.3-0.4s-0.9,0.1-1.2,0.4c-0.3,0.3-0.5,0.7-0.6,1.1h3.8
		C1275.2,445.5,1275,445.1,1274.7,444.8z"/>
	<path class="st2" d="M1283.5,441.9v1.9c0.7-1.3,1.7-2,2.9-2v3.1h-0.8c-0.7,0-1.2,0.2-1.6,0.5c-0.4,0.3-0.5,0.9-0.5,1.8v4.8h-3.1
		v-10H1283.5z"/>
</g>
<path class="st6" d="M0,48.4V1.6C0,0.7,0.7,0,1.6,0h573.9c0.9,0,1.6,0.7,1.6,1.6v46.9c0,0.9-0.7,1.6-1.6,1.6H1.6
	C0.7,50,0,49.3,0,48.4z"/>
<path class="st6" d="M750,48.4V1.6c0-0.9,0.7-1.6,1.6-1.6h573.9c0.9,0,1.6,0.7,1.6,1.6v46.9c0,0.9-0.7,1.6-1.6,1.6H751.6
	C750.7,50,750,49.3,750,48.4z"/>
<g>
	<path class="st7" d="M212.1,32.5H209V19.9h3.1v5.5l4.2-5.5h4l-5.2,6.3l5.2,6.3h-4l-4.2-5.6V32.5z"/>
	<path class="st7" d="M221.9,22.5c0-1,0.4-1.8,1.2-2.5s1.9-1.1,3.4-1.1s2.6,0.4,3.4,1.1c0.8,0.7,1.2,1.6,1.2,2.5
		c0,1.2-0.6,2.2-1.7,2.8c1.3,0.6,2,1.7,2,3.3c0,1.3-0.5,2.3-1.4,3s-2.1,1.1-3.5,1.1c-1.4,0-2.5-0.4-3.5-1.1c-0.9-0.8-1.4-1.8-1.4-3
		c0-1.5,0.7-2.6,2-3.3C222.5,24.7,221.9,23.8,221.9,22.5z M228.2,28.4c0-0.5-0.2-0.9-0.5-1.3c-0.3-0.3-0.7-0.5-1.3-0.5
		c-0.6,0-1,0.2-1.4,0.5c-0.3,0.3-0.5,0.7-0.5,1.3c0,0.5,0.2,1,0.5,1.3s0.8,0.5,1.4,0.5c0.6,0,1-0.2,1.3-0.5
		C228.1,29.4,228.2,28.9,228.2,28.4z M228,23c0-0.5-0.1-0.8-0.4-1.1c-0.3-0.3-0.7-0.4-1.1-0.4c-0.5,0-0.8,0.1-1.1,0.4
		c-0.3,0.3-0.4,0.7-0.4,1.1c0,0.5,0.2,0.9,0.4,1.1c0.3,0.3,0.7,0.4,1.1,0.4s0.8-0.1,1.1-0.4C227.9,23.8,228,23.4,228,23z"/>
	<path class="st7" d="M233,25.5c0-0.9,0.4-1.6,1.1-2.2s1.8-0.9,3.1-0.9s2.3,0.3,3.1,0.9s1.2,1.4,1.3,2.4h-3.1c0-0.3-0.2-0.6-0.4-0.7
		s-0.5-0.2-0.9-0.2c-0.8,0-1.2,0.2-1.2,0.7c0,0.4,0.5,0.8,1.5,0.9c1,0.2,1.9,0.4,2.7,0.8c0.4,0.2,0.8,0.4,1.1,0.8
		c0.3,0.4,0.4,0.9,0.4,1.4c0,0.9-0.4,1.7-1.2,2.3c-0.8,0.6-1.8,0.9-3,0.9s-2.2-0.3-3.1-0.8s-1.3-1.4-1.3-2.5h3.2
		c0.1,0.6,0.5,0.9,1.3,0.9c0.4,0,0.7-0.1,0.9-0.3s0.4-0.4,0.4-0.6c0-0.3-0.2-0.5-0.6-0.6c-0.4-0.2-0.9-0.3-1.4-0.4s-1.1-0.2-1.7-0.4
		c-0.6-0.2-1-0.4-1.4-0.8C233.2,26.6,233,26.1,233,25.5z"/>
	<path class="st7" d="M250.2,30.8c-1.3-1.2-1.9-2.8-1.9-4.6s0.6-3.4,1.9-4.6c1.3-1.2,2.8-1.8,4.6-1.8c1.4,0,2.7,0.4,3.7,1.1
		c1.1,0.7,1.9,1.8,2.3,3.1h-3.7c-0.5-0.9-1.2-1.4-2.3-1.4c-1.1,0-1.9,0.3-2.5,1c-0.6,0.7-0.9,1.5-0.9,2.6s0.3,2,0.9,2.6
		c0.6,0.7,1.4,1,2.5,1c1.1,0,1.8-0.5,2.3-1.4h3.7c-0.4,1.3-1.2,2.4-2.3,3.1s-2.3,1.1-3.7,1.1C253,32.6,251.4,32,250.2,30.8z"/>
	<path class="st7" d="M262.8,32.5V19.2h3.1v13.3H262.8z"/>
	<path class="st7" d="M275.4,22.4h3.1v10h-3.1V31c-0.6,1.1-1.6,1.6-3,1.6c-1.2,0-2.1-0.4-2.8-1.2c-0.7-0.8-1.1-1.8-1.1-3.1v-5.9h3.1
		v5.5c0,0.6,0.2,1.1,0.5,1.5s0.8,0.5,1.4,0.5s1.1-0.2,1.4-0.5c0.3-0.4,0.5-0.9,0.5-1.5V22.4z"/>
	<path class="st7" d="M280.5,25.5c0-0.9,0.4-1.6,1.1-2.2s1.8-0.9,3.1-0.9s2.3,0.3,3.1,0.9s1.2,1.4,1.3,2.4h-3.1
		c0-0.3-0.2-0.6-0.4-0.7s-0.5-0.2-0.9-0.2c-0.8,0-1.2,0.2-1.2,0.7c0,0.4,0.5,0.8,1.5,0.9c1,0.2,1.9,0.4,2.7,0.8
		c0.4,0.2,0.8,0.4,1.1,0.8c0.3,0.4,0.4,0.9,0.4,1.4c0,0.9-0.4,1.7-1.2,2.3c-0.8,0.6-1.8,0.9-3,0.9s-2.2-0.3-3.1-0.8
		s-1.3-1.4-1.3-2.5h3.2c0.1,0.6,0.5,0.9,1.3,0.9c0.4,0,0.7-0.1,0.9-0.3s0.4-0.4,0.4-0.6c0-0.3-0.2-0.5-0.6-0.6
		c-0.4-0.2-0.9-0.3-1.4-0.4s-1.1-0.2-1.7-0.4c-0.6-0.2-1-0.4-1.4-0.8C280.7,26.6,280.5,26.1,280.5,25.5z"/>
	<path class="st7" d="M295.4,29.9h1.1v2.6H295c-1.1,0-2-0.2-2.6-0.7c-0.6-0.5-0.9-1.4-0.9-2.6V25h-0.9v-2.6h0.9V20h3.1v2.4h2V25h-2
		v4.2C294.5,29.6,294.8,29.9,295.4,29.9z"/>
	<path class="st7" d="M302.9,32.6c-1.5,0-2.7-0.5-3.6-1.4c-0.9-0.9-1.4-2.2-1.4-3.8c0-1.6,0.5-2.8,1.4-3.7c0.9-0.9,2.1-1.4,3.6-1.4
		c1.5,0,2.7,0.5,3.7,1.4c1,0.9,1.5,2.2,1.5,3.8c0,0.3,0,0.7-0.1,1H301c0.1,0.4,0.3,0.8,0.6,1.1c0.3,0.3,0.7,0.4,1.1,0.4
		s0.7,0,0.9-0.1c0.2-0.1,0.3-0.2,0.4-0.2c0.1-0.1,0.2-0.2,0.4-0.4h3.3c-0.3,1-0.9,1.8-1.7,2.4C305.1,32.3,304.1,32.6,302.9,32.6z
		 M304.2,25.4c-0.4-0.3-0.8-0.4-1.3-0.4s-0.9,0.1-1.2,0.4c-0.3,0.3-0.5,0.7-0.6,1.1h3.8C304.8,26.1,304.6,25.7,304.2,25.4z"/>
	<path class="st7" d="M313.1,22.4v1.9c0.7-1.3,1.7-2,2.9-2v3.1h-0.8c-0.7,0-1.2,0.2-1.6,0.5c-0.4,0.3-0.5,0.9-0.5,1.8v4.8H310v-10
		H313.1z"/>
	<path class="st7" d="M337.1,19.9h3.3l-3.5,12.6h-3.5l-2.2-8l-2.2,8h-3.5l-3.6-12.6h3.3l2.2,9.1l2.2-9.1h3.5l2.2,8.9L337.1,19.9z"/>
	<path class="st7" d="M346.1,32.6c-1.5,0-2.7-0.5-3.6-1.4c-0.9-0.9-1.4-2.2-1.4-3.8c0-1.6,0.5-2.8,1.4-3.7c0.9-0.9,2.1-1.4,3.6-1.4
		c1.5,0,2.7,0.5,3.7,1.4c1,0.9,1.5,2.2,1.5,3.8c0,0.3,0,0.7-0.1,1h-6.9c0.1,0.4,0.3,0.8,0.6,1.1c0.3,0.3,0.7,0.4,1.1,0.4
		s0.7,0,0.9-0.1c0.2-0.1,0.3-0.2,0.4-0.2c0.1-0.1,0.2-0.2,0.3-0.4h3.3c-0.3,1-0.9,1.8-1.7,2.4S347.3,32.6,346.1,32.6z M347.4,25.4
		c-0.4-0.3-0.8-0.4-1.3-0.4s-0.9,0.1-1.2,0.4c-0.3,0.3-0.5,0.7-0.6,1.1h3.8C348,26.1,347.8,25.7,347.4,25.4z"/>
	<path class="st7" d="M352.5,25.5c0-0.9,0.4-1.6,1.1-2.2c0.8-0.6,1.8-0.9,3.1-0.9c1.3,0,2.3,0.3,3.1,0.9c0.8,0.6,1.2,1.4,1.3,2.4
		H358c0-0.3-0.2-0.6-0.4-0.7c-0.2-0.1-0.5-0.2-0.9-0.2c-0.8,0-1.2,0.2-1.2,0.7c0,0.4,0.5,0.8,1.5,0.9c1,0.2,1.9,0.4,2.7,0.8
		c0.4,0.2,0.8,0.4,1.1,0.8c0.3,0.4,0.4,0.9,0.4,1.4c0,0.9-0.4,1.7-1.2,2.3c-0.8,0.6-1.8,0.9-3,0.9c-1.2,0-2.2-0.3-3.1-0.8
		c-0.8-0.6-1.3-1.4-1.3-2.5h3.1c0.1,0.6,0.5,0.9,1.3,0.9c0.4,0,0.7-0.1,0.9-0.3s0.4-0.4,0.4-0.6c0-0.3-0.2-0.5-0.6-0.6
		c-0.4-0.2-0.9-0.3-1.4-0.4c-0.6-0.1-1.1-0.2-1.7-0.4c-0.6-0.2-1-0.4-1.4-0.8C352.7,26.6,352.5,26.1,352.5,25.5z"/>
	<path class="st7" d="M367.5,29.9h1.1v2.6H367c-1.1,0-2-0.2-2.6-0.7c-0.6-0.5-0.9-1.4-0.9-2.6V25h-0.9v-2.6h0.9V20h3.1v2.4h2V25h-2
		v4.2C366.5,29.6,366.8,29.9,367.5,29.9z"/>
</g>
<g>
	<path class="st7" d="M965.8,32.5h-3.1V19.9h3.1v5.5l4.2-5.5h4l-5.2,6.3l5.2,6.3h-4l-4.2-5.6V32.5z"/>
	<path class="st7" d="M975.6,22.5c0-1,0.4-1.8,1.2-2.5s1.9-1.1,3.4-1.1c1.5,0,2.6,0.4,3.4,1.1c0.8,0.7,1.2,1.6,1.2,2.5
		c0,1.2-0.6,2.2-1.7,2.8c1.3,0.6,2,1.7,2,3.3c0,1.3-0.5,2.3-1.4,3c-0.9,0.8-2.1,1.1-3.5,1.1s-2.5-0.4-3.5-1.1
		c-0.9-0.8-1.4-1.8-1.4-3c0-1.5,0.7-2.6,2-3.3C976.1,24.7,975.6,23.8,975.6,22.5z M981.9,28.4c0-0.5-0.2-0.9-0.5-1.3
		c-0.3-0.3-0.7-0.5-1.3-0.5c-0.6,0-1,0.2-1.4,0.5c-0.3,0.3-0.5,0.7-0.5,1.3c0,0.5,0.2,1,0.5,1.3s0.8,0.5,1.4,0.5s1-0.2,1.3-0.5
		C981.7,29.4,981.9,28.9,981.9,28.4z M981.7,23c0-0.5-0.1-0.8-0.4-1.1c-0.3-0.3-0.7-0.4-1.1-0.4c-0.5,0-0.8,0.1-1.1,0.4
		c-0.3,0.3-0.4,0.7-0.4,1.1c0,0.5,0.1,0.9,0.5,1.1c0.3,0.3,0.7,0.4,1.1,0.4s0.8-0.1,1.1-0.4C981.5,23.8,981.7,23.4,981.7,23z"/>
	<path class="st7" d="M986.6,25.5c0-0.9,0.4-1.6,1.1-2.2c0.8-0.6,1.8-0.9,3.1-0.9c1.3,0,2.3,0.3,3.1,0.9s1.2,1.4,1.3,2.4h-3.2
		c0-0.3-0.2-0.6-0.4-0.7c-0.2-0.1-0.5-0.2-0.9-0.2c-0.8,0-1.2,0.2-1.2,0.7c0,0.4,0.5,0.8,1.5,0.9c1,0.2,1.9,0.4,2.7,0.8
		c0.4,0.2,0.8,0.4,1.1,0.8c0.3,0.4,0.4,0.9,0.4,1.4c0,0.9-0.4,1.7-1.2,2.3c-0.8,0.6-1.8,0.9-3,0.9s-2.2-0.3-3.1-0.8
		c-0.8-0.6-1.3-1.4-1.3-2.5h3.1c0.1,0.6,0.5,0.9,1.3,0.9c0.4,0,0.7-0.1,0.9-0.3c0.2-0.2,0.4-0.4,0.4-0.6c0-0.3-0.2-0.5-0.6-0.6
		s-0.9-0.3-1.4-0.4s-1.1-0.2-1.7-0.4s-1-0.4-1.4-0.8S986.6,26.1,986.6,25.5z"/>
	<path class="st7" d="M1003.8,30.8c-1.3-1.2-1.9-2.8-1.9-4.6s0.6-3.4,1.9-4.6c1.3-1.2,2.8-1.8,4.6-1.8c1.4,0,2.7,0.4,3.7,1.1
		c1.1,0.7,1.9,1.8,2.3,3.1h-3.7c-0.5-0.9-1.2-1.4-2.3-1.4c-1.1,0-1.9,0.3-2.5,1c-0.6,0.7-0.9,1.5-0.9,2.6s0.3,2,0.9,2.6
		c0.6,0.7,1.4,1,2.5,1c1.1,0,1.8-0.5,2.3-1.4h3.7c-0.4,1.3-1.2,2.4-2.3,3.1s-2.3,1.1-3.7,1.1C1006.6,32.6,1005.1,32,1003.8,30.8z"/>
	<path class="st7" d="M1016.5,32.5V19.2h3.1v13.3H1016.5z"/>
	<path class="st7" d="M1029.1,22.4h3.1v10h-3.1V31c-0.6,1.1-1.7,1.6-3,1.6c-1.2,0-2.1-0.4-2.8-1.2c-0.7-0.8-1.1-1.8-1.1-3.1v-5.9
		h3.1v5.5c0,0.6,0.2,1.1,0.5,1.5s0.8,0.5,1.4,0.5c0.6,0,1.1-0.2,1.4-0.5s0.5-0.9,0.5-1.5V22.4z"/>
	<path class="st7" d="M1034.1,25.5c0-0.9,0.4-1.6,1.1-2.2c0.8-0.6,1.8-0.9,3.1-0.9c1.3,0,2.3,0.3,3.1,0.9s1.2,1.4,1.3,2.4h-3.2
		c0-0.3-0.2-0.6-0.4-0.7c-0.2-0.1-0.5-0.2-0.9-0.2c-0.8,0-1.2,0.2-1.2,0.7c0,0.4,0.5,0.8,1.5,0.9c1,0.2,1.9,0.4,2.7,0.8
		c0.4,0.2,0.8,0.4,1.1,0.8c0.3,0.4,0.4,0.9,0.4,1.4c0,0.9-0.4,1.7-1.2,2.3c-0.8,0.6-1.8,0.9-3,0.9s-2.2-0.3-3.1-0.8
		c-0.8-0.6-1.3-1.4-1.3-2.5h3.1c0.1,0.6,0.5,0.9,1.3,0.9c0.4,0,0.7-0.1,0.9-0.3c0.2-0.2,0.4-0.4,0.4-0.6c0-0.3-0.2-0.5-0.6-0.6
		s-0.9-0.3-1.4-0.4s-1.1-0.2-1.7-0.4s-1-0.4-1.4-0.8S1034.1,26.1,1034.1,25.5z"/>
	<path class="st7" d="M1049.1,29.9h1.1v2.6h-1.6c-1.1,0-2-0.2-2.6-0.7c-0.6-0.5-0.9-1.4-0.9-2.6V25h-0.9v-2.6h0.9V20h3.1v2.4h2V25
		h-2v4.2C1048.1,29.6,1048.5,29.9,1049.1,29.9z"/>
	<path class="st7" d="M1056.6,32.6c-1.5,0-2.7-0.5-3.6-1.4c-0.9-0.9-1.4-2.2-1.4-3.8c0-1.6,0.5-2.8,1.4-3.7c0.9-0.9,2.1-1.4,3.6-1.4
		c1.5,0,2.7,0.5,3.7,1.4c1,0.9,1.5,2.2,1.5,3.8c0,0.3,0,0.7-0.1,1h-6.9c0.1,0.4,0.3,0.8,0.6,1.1c0.3,0.3,0.7,0.4,1.1,0.4
		s0.7,0,0.9-0.1c0.2-0.1,0.3-0.2,0.4-0.2c0.1-0.1,0.2-0.2,0.3-0.4h3.3c-0.3,1-0.9,1.8-1.7,2.4S1057.7,32.6,1056.6,32.6z
		 M1057.9,25.4c-0.4-0.3-0.8-0.4-1.3-0.4s-0.9,0.1-1.2,0.4c-0.3,0.3-0.5,0.7-0.6,1.1h3.8C1058.4,26.1,1058.2,25.7,1057.9,25.4z"/>
	<path class="st7" d="M1066.7,22.4v1.9c0.7-1.3,1.7-2,2.9-2v3.1h-0.8c-0.7,0-1.2,0.2-1.6,0.5c-0.4,0.3-0.5,0.9-0.5,1.8v4.8h-3.1v-10
		H1066.7z"/>
	<path class="st7" d="M1084.3,19.8v2.3h-4.6v2.7h4v2.3h-4v2.9h4.6v2.3h-7.7V19.8H1084.3z"/>
	<path class="st7" d="M1087.6,31.2c-0.9-1-1.3-2.2-1.3-3.7s0.4-2.7,1.3-3.7c0.9-1,2-1.4,3.2-1.4c1.3,0,2.3,0.5,2.9,1.4v-1.3h3.1v10
		h-3.1V31c-0.7,1.1-1.7,1.6-3,1.6S1088.5,32.1,1087.6,31.2z M1093.1,29.3c0.4-0.4,0.7-1,0.7-1.8s-0.2-1.4-0.7-1.8
		c-0.4-0.4-1-0.6-1.5-0.6s-1.1,0.2-1.5,0.6c-0.4,0.4-0.7,1-0.7,1.8s0.2,1.4,0.7,1.8c0.4,0.4,1,0.6,1.5,0.6S1092.7,29.7,1093.1,29.3z
		"/>
	<path class="st7" d="M1098.9,25.5c0-0.9,0.4-1.6,1.1-2.2s1.8-0.9,3.1-0.9c1.3,0,2.3,0.3,3.1,0.9c0.8,0.6,1.2,1.4,1.3,2.4h-3.1
		c0-0.3-0.2-0.6-0.4-0.7s-0.5-0.2-0.9-0.2c-0.8,0-1.2,0.2-1.2,0.7c0,0.4,0.5,0.8,1.5,0.9c1,0.2,1.9,0.4,2.7,0.8
		c0.4,0.2,0.8,0.4,1.1,0.8c0.3,0.4,0.4,0.9,0.4,1.4c0,0.9-0.4,1.7-1.2,2.3c-0.8,0.6-1.8,0.9-3,0.9c-1.2,0-2.2-0.3-3.1-0.8
		s-1.3-1.4-1.3-2.5h3.2c0.1,0.6,0.5,0.9,1.3,0.9c0.4,0,0.7-0.1,0.9-0.3c0.2-0.2,0.4-0.4,0.4-0.6c0-0.3-0.2-0.5-0.6-0.6
		c-0.4-0.2-0.9-0.3-1.4-0.4c-0.6-0.1-1.1-0.2-1.7-0.4c-0.6-0.2-1-0.4-1.4-0.8C1099.1,26.6,1098.9,26.1,1098.9,25.5z"/>
	<path class="st7" d="M1113.8,29.9h1.1v2.6h-1.6c-1.1,0-2-0.2-2.6-0.7c-0.6-0.5-0.9-1.4-0.9-2.6V25h-0.9v-2.6h0.9V20h3.1v2.4h2V25
		h-2v4.2C1112.9,29.6,1113.2,29.9,1113.8,29.9z"/>
</g>
<g>
	<polyline class="st8" points="663.5,338.4 576.4,232.5 533.2,232.5 	"/>
	<polyline class="st8" points="663.5,338.4 750.6,232.5 793.8,232.5 	"/>
</g>
<g>
	<g>
		<g class="st9">
			<g>
				<polygon class="st3" points="663.2,377.1 663.1,417.9 627.6,397.4 627.7,356.6 				"/>
			</g>
			<g>
				<polygon class="st10" points="663.2,377.1 698.4,356.6 698.3,397.4 663.1,417.9 				"/>
			</g>
			<g>
				<polygon class="st11" points="627.7,356.6 662.9,336.1 698.4,356.6 663.2,377.1 				"/>
			</g>
		</g>
	</g>
	<g>
		<path class="st0" d="M645.4,373.6c2.5,1.4,4.5,3.2,6,5.4c1.5,2.2,2.3,4.7,2.4,7.5l-6.1-3.5c-0.1-1-0.3-1.9-0.8-2.7
			c-0.4-0.8-1-1.4-1.7-1.8c-0.7-0.4-1.3-0.5-1.7-0.3c-0.4,0.2-0.7,0.6-0.7,1.4c0,0.8,0.2,1.6,0.6,2.3c0.4,0.7,0.9,1.4,1.6,2.1
			c0.7,0.6,1.4,1.3,2.2,2c0.8,0.7,1.6,1.5,2.4,2.3c0.8,0.8,1.5,1.6,2.2,2.5c0.7,0.9,1.2,1.9,1.6,3.1c0.4,1.1,0.6,2.4,0.6,3.6
			c0,2.2-0.8,3.7-2.4,4.4c-1.6,0.7-3.7,0.3-6.3-1.2c-2.6-1.5-4.7-3.4-6.2-5.7c-1.6-2.3-2.4-4.8-2.4-7.4l5.9,3.4
			c0.1,2.2,1.1,3.8,2.8,4.8c0.8,0.5,1.4,0.6,1.9,0.4c0.5-0.2,0.7-0.7,0.7-1.5c0-0.7-0.2-1.5-0.6-2.2c-0.4-0.7-0.9-1.4-1.6-2.1
			c-0.7-0.7-1.4-1.3-2.2-2.1c-0.8-0.7-1.6-1.5-2.4-2.3c-0.8-0.8-1.5-1.7-2.2-2.5c-0.7-0.9-1.2-1.9-1.6-3c-0.4-1.2-0.6-2.4-0.6-3.6
			c0-2.5,0.8-4,2.4-4.5C640.8,371.7,642.9,372.1,645.4,373.6z"/>
	</g>
	<g>
		<path class="st0" d="M681.1,373.5c2.4-1.4,4.3-1.8,5.7-1.2c1.4,0.6,2,2,2,4.1c0,1.7-0.3,3.3-1.1,4.7c-0.7,1.5-1.4,2.6-2.2,3.4
			l0,0.2c2.4-0.3,3.7,1.1,3.7,4.4c0,2.5-0.7,4.8-2.1,7c-1.4,2.2-3.4,4.1-5.9,5.5s-4.6,1.9-6.2,1.3c-1.6-0.6-2.4-2.3-2.4-5.2l5.4-3.1
			c0,1.1,0.3,1.8,0.8,2.1c0.5,0.3,1.2,0.2,2.2-0.3c0.9-0.5,1.6-1.2,2.1-2.1c0.5-0.8,0.7-1.8,0.7-2.9c0-1.1-0.3-1.7-1-1.8
			c-0.7-0.1-1.7,0.2-3.2,1.1l-1,0.6l0-5.2l1-0.6c2.5-1.4,3.7-3.2,3.7-5.2c0-0.8-0.2-1.3-0.7-1.5c-0.4-0.2-1-0.1-1.8,0.3
			c-1.5,0.9-2.3,2.3-2.5,4.2l-5.4,3.1c0-2.6,0.7-5.1,2.2-7.4C676.7,376.8,678.7,374.9,681.1,373.5z"/>
	</g>
</g>
<path class="st3" d="M502.5,275c24,0,43.5-19.5,43.5-43.5S526.5,188,502.5,188h-113c-24,0-43.5,19.5-43.5,43.5s19.5,43.5,43.5,43.5
	H502.5z"/>
<g>
	<path class="st0" d="M370.5,226.5c-0.4,0-0.7,0.1-0.9,0.3c-0.2,0.2-0.4,0.5-0.4,0.9c0,0.4,0.1,0.7,0.3,0.9c0.2,0.2,0.5,0.4,0.9,0.5
		c0.4,0.1,0.8,0.2,1.2,0.4c0.5,0.1,0.9,0.3,1.3,0.4c0.4,0.2,0.8,0.4,1.2,0.6c0.4,0.2,0.7,0.6,0.9,1s0.3,1,0.3,1.6
		c0,1.1-0.4,2-1.3,2.7c-0.9,0.8-2,1.1-3.4,1.1s-2.6-0.3-3.4-1c-0.9-0.7-1.3-1.7-1.3-2.9h3.3c0.1,1,0.6,1.5,1.5,1.5
		c0.4,0,0.8-0.1,1-0.4c0.3-0.2,0.4-0.5,0.4-0.9s-0.1-0.7-0.3-0.9c-0.2-0.2-0.5-0.4-0.9-0.5c-0.4-0.1-0.8-0.3-1.2-0.4
		c-0.5-0.1-0.9-0.3-1.3-0.4s-0.8-0.4-1.2-0.6c-0.4-0.2-0.7-0.6-0.9-1c-0.2-0.4-0.3-1-0.3-1.6c0-1.2,0.4-2.1,1.3-2.8s2-1.1,3.4-1.1
		c1.4,0,2.5,0.3,3.3,0.9c0.8,0.6,1.3,1.6,1.3,2.9h-3.3c0-0.5-0.2-0.8-0.4-1.1C371.2,226.6,370.9,226.5,370.5,226.5z"/>
	<path class="st0" d="M384.7,226.9h3.1v10h-3.1v-1.5c-0.6,1.1-1.6,1.6-3,1.6c-1.2,0-2.1-0.4-2.8-1.2c-0.7-0.8-1.1-1.8-1.1-3.1v-5.9
		h3.1v5.5c0,0.6,0.2,1.1,0.5,1.5s0.8,0.5,1.4,0.5c0.6,0,1.1-0.2,1.4-0.5s0.5-0.9,0.5-1.5V226.9z"/>
	<path class="st0" d="M393.5,228.2c0.7-0.9,1.7-1.4,2.9-1.4c1.3,0,2.4,0.5,3.2,1.4c0.9,1,1.3,2.2,1.3,3.7s-0.4,2.7-1.3,3.7
		c-0.9,1-2,1.4-3.2,1.4c-1.3,0-2.2-0.5-3-1.6v1.5h-3.1v-13.3h3.1V228.2z M397.3,233.7c0.4-0.4,0.7-1,0.7-1.8s-0.2-1.4-0.7-1.8
		c-0.4-0.4-1-0.6-1.5-0.6s-1.1,0.2-1.5,0.6c-0.4,0.4-0.7,1-0.7,1.8s0.2,1.4,0.7,1.8c0.4,0.4,1,0.6,1.5,0.6S396.8,234.1,397.3,233.7z
		"/>
	<path class="st0" d="M406.1,226.9v1.5c0.6-1.1,1.6-1.6,3-1.6c0.7,0,1.4,0.2,2,0.5s1,0.8,1.4,1.4c0.4-0.6,0.9-1.1,1.4-1.4
		c0.6-0.4,1.3-0.5,2-0.5c1.2,0,2.2,0.4,2.9,1.1s1.1,1.8,1.1,3.1v5.9h-3.1v-5.5c0-0.6-0.2-1.1-0.5-1.5s-0.8-0.5-1.4-0.5
		c-0.6,0-1.1,0.2-1.4,0.5s-0.5,0.9-0.5,1.5v5.5H410v-5.5c0-0.6-0.2-1.1-0.5-1.5s-0.8-0.5-1.4-0.5c-0.6,0-1.1,0.2-1.4,0.5
		c-0.3,0.4-0.5,0.9-0.5,1.5v5.5H403v-10H406.1z"/>
	<path class="st0" d="M423.1,235.6c-0.9-1-1.3-2.2-1.3-3.7s0.4-2.7,1.3-3.7c0.9-1,2-1.4,3.2-1.4s2.3,0.5,2.9,1.4v-1.3h3.1v10h-3.1
		v-1.5c-0.7,1.1-1.7,1.6-3,1.6S424,236.5,423.1,235.6z M428.7,233.7c0.4-0.4,0.7-1,0.7-1.8s-0.2-1.4-0.7-1.8c-0.4-0.4-1-0.6-1.5-0.6
		s-1.1,0.2-1.5,0.6c-0.4,0.4-0.7,1-0.7,1.8s0.2,1.4,0.7,1.8c0.4,0.4,1,0.6,1.5,0.6S428.2,234.1,428.7,233.7z"/>
	<path class="st0" d="M438.2,226.9v1.9c0.7-1.3,1.7-2,2.9-2v3.1h-0.8c-0.7,0-1.2,0.2-1.6,0.5c-0.4,0.3-0.5,0.9-0.5,1.8v4.8h-3.1v-10
		H438.2z"/>
	<path class="st0" d="M445.6,225.7c-0.3,0.3-0.8,0.5-1.3,0.5s-0.9-0.2-1.3-0.5c-0.3-0.3-0.5-0.8-0.5-1.3s0.2-0.9,0.5-1.3
		s0.8-0.5,1.3-0.5s0.9,0.2,1.3,0.5c0.3,0.3,0.5,0.8,0.5,1.3S445.9,225.4,445.6,225.7z M442.7,236.9v-10h3.1v10H442.7z"/>
	<path class="st0" d="M451.6,226.9v1.5c0.6-1.1,1.6-1.6,3-1.6c1.2,0,2.1,0.4,2.8,1.2c0.7,0.8,1.1,1.8,1.1,3.1v5.9h-3.1v-5.5
		c0-0.6-0.2-1.1-0.5-1.5s-0.8-0.5-1.4-0.5s-1.1,0.2-1.4,0.5s-0.5,0.9-0.5,1.5v5.5h-3.1v-10H451.6z"/>
	<path class="st0" d="M465.4,237c-1.5,0-2.7-0.5-3.6-1.4c-0.9-0.9-1.4-2.2-1.4-3.8c0-1.6,0.5-2.8,1.4-3.7c0.9-0.9,2.1-1.4,3.6-1.4
		c1.5,0,2.7,0.5,3.7,1.4c1,0.9,1.5,2.2,1.5,3.8c0,0.3,0,0.7-0.1,1h-6.9c0.1,0.4,0.3,0.8,0.6,1.1c0.3,0.3,0.7,0.4,1.1,0.4
		c0.4,0,0.7,0,0.9-0.1c0.2-0.1,0.3-0.2,0.4-0.2c0.1-0.1,0.2-0.2,0.4-0.4h3.3c-0.3,1-0.9,1.8-1.7,2.4
		C467.6,236.7,466.6,237,465.4,237z M466.7,229.8c-0.4-0.3-0.8-0.4-1.3-0.4s-0.9,0.1-1.2,0.4c-0.3,0.3-0.5,0.7-0.6,1.1h3.8
		C467.3,230.5,467.1,230.1,466.7,229.8z"/>
	<path class="st0" d="M475.6,226.9v1.9c0.7-1.3,1.7-2,2.9-2v3.1h-0.8c-0.7,0-1.2,0.2-1.6,0.5c-0.4,0.3-0.5,0.9-0.5,1.8v4.8h-3.1v-10
		H475.6z"/>
	<path class="st0" d="M493.5,224.3h3.1v12.6h-3.1v-5.2h-4.9v5.2h-3.1v-12.6h3.1v5.1h4.9V224.3z"/>
	<path class="st0" d="M500.1,235.6c-1-0.9-1.5-2.2-1.5-3.7s0.5-2.8,1.5-3.7c1-0.9,2.3-1.4,3.7-1.4c1.5,0,2.7,0.5,3.7,1.4
		c1,0.9,1.5,2.2,1.5,3.7s-0.5,2.8-1.5,3.7s-2.2,1.4-3.7,1.4C502.3,237,501.1,236.5,500.1,235.6z M505.3,233.7
		c0.4-0.4,0.6-1.1,0.6-1.9s-0.2-1.4-0.6-1.9c-0.4-0.4-0.9-0.6-1.5-0.6c-0.6,0-1.1,0.2-1.5,0.6c-0.4,0.4-0.6,1-0.6,1.9
		s0.2,1.4,0.6,1.9s0.9,0.6,1.5,0.6S504.9,234.2,505.3,233.7z"/>
	<path class="st0" d="M510.3,229.9c0-0.9,0.4-1.6,1.1-2.2c0.8-0.6,1.8-0.9,3.1-0.9c1.3,0,2.3,0.3,3.1,0.9s1.2,1.4,1.3,2.4h-3.2
		c0-0.3-0.2-0.6-0.4-0.7c-0.2-0.1-0.5-0.2-0.9-0.2c-0.8,0-1.2,0.2-1.2,0.7c0,0.4,0.5,0.8,1.5,0.9c1,0.2,1.9,0.4,2.7,0.8
		c0.4,0.2,0.8,0.4,1.1,0.8c0.3,0.4,0.4,0.9,0.4,1.4c0,0.9-0.4,1.7-1.2,2.3c-0.8,0.6-1.8,0.9-3,0.9s-2.2-0.3-3.1-0.8
		c-0.8-0.6-1.3-1.4-1.3-2.5h3.1c0.1,0.6,0.5,0.9,1.3,0.9c0.4,0,0.7-0.1,0.9-0.3c0.2-0.2,0.4-0.4,0.4-0.6c0-0.3-0.2-0.5-0.6-0.6
		s-0.9-0.3-1.4-0.4s-1.1-0.2-1.7-0.4s-1-0.4-1.4-0.8S510.3,230.5,510.3,229.9z"/>
	<path class="st0" d="M525.3,234.3h1.1v2.6h-1.6c-1.1,0-2-0.2-2.6-0.7c-0.6-0.5-0.9-1.4-0.9-2.6v-4.2h-0.9v-2.6h0.9v-2.4h3.1v2.4h2
		v2.6h-2v4.2C524.3,234.1,524.6,234.3,525.3,234.3z"/>
</g>
<path class="st3" d="M933.5,275c24,0,43.5-19.5,43.5-43.5S957.5,188,933.5,188h-113c-24,0-43.5,19.5-43.5,43.5s19.5,43.5,43.5,43.5
	H933.5z"/>
<g>
	<path class="st0" d="M801.5,226.5c-0.4,0-0.7,0.1-0.9,0.3c-0.2,0.2-0.4,0.5-0.4,0.9c0,0.4,0.1,0.7,0.3,0.9c0.2,0.2,0.5,0.4,0.9,0.5
		c0.4,0.1,0.8,0.2,1.2,0.4c0.5,0.1,0.9,0.3,1.3,0.4c0.4,0.2,0.8,0.4,1.2,0.6c0.4,0.2,0.7,0.6,0.9,1s0.3,1,0.3,1.6
		c0,1.1-0.4,2-1.3,2.7c-0.9,0.8-2,1.1-3.4,1.1s-2.6-0.3-3.4-1c-0.9-0.7-1.3-1.7-1.3-2.9h3.3c0.1,1,0.6,1.5,1.5,1.5
		c0.4,0,0.8-0.1,1-0.4c0.3-0.2,0.4-0.5,0.4-0.9s-0.1-0.7-0.3-0.9c-0.2-0.2-0.5-0.4-0.9-0.5c-0.4-0.1-0.8-0.3-1.2-0.4
		c-0.5-0.1-0.9-0.3-1.3-0.4s-0.8-0.4-1.2-0.6c-0.4-0.2-0.7-0.6-0.9-1c-0.2-0.4-0.3-1-0.3-1.6c0-1.2,0.4-2.1,1.3-2.8s2-1.1,3.4-1.1
		c1.4,0,2.5,0.3,3.3,0.9c0.8,0.6,1.3,1.6,1.3,2.9h-3.3c0-0.5-0.2-0.8-0.4-1.1C802.2,226.6,801.9,226.5,801.5,226.5z"/>
	<path class="st0" d="M815.7,226.9h3.1v10h-3.1v-1.5c-0.6,1.1-1.6,1.6-3,1.6c-1.2,0-2.1-0.4-2.8-1.2c-0.7-0.8-1.1-1.8-1.1-3.1v-5.9
		h3.1v5.5c0,0.6,0.2,1.1,0.5,1.5s0.8,0.5,1.4,0.5c0.6,0,1.1-0.2,1.4-0.5s0.5-0.9,0.5-1.5V226.9z"/>
	<path class="st0" d="M824.5,228.2c0.7-0.9,1.7-1.4,2.9-1.4c1.3,0,2.4,0.5,3.2,1.4c0.9,1,1.3,2.2,1.3,3.7s-0.4,2.7-1.3,3.7
		c-0.9,1-2,1.4-3.2,1.4c-1.3,0-2.2-0.5-3-1.6v1.5h-3.1v-13.3h3.1V228.2z M828.3,233.7c0.4-0.4,0.7-1,0.7-1.8s-0.2-1.4-0.7-1.8
		c-0.4-0.4-1-0.6-1.5-0.6s-1.1,0.2-1.5,0.6c-0.4,0.4-0.7,1-0.7,1.8s0.2,1.4,0.7,1.8c0.4,0.4,1,0.6,1.5,0.6S827.8,234.1,828.3,233.7z
		"/>
	<path class="st0" d="M837.1,226.9v1.5c0.6-1.1,1.6-1.6,3-1.6c0.7,0,1.4,0.2,2,0.5s1,0.8,1.4,1.4c0.4-0.6,0.9-1.1,1.4-1.4
		c0.6-0.4,1.3-0.5,2-0.5c1.2,0,2.2,0.4,2.9,1.1s1.1,1.8,1.1,3.1v5.9h-3.1v-5.5c0-0.6-0.2-1.1-0.5-1.5s-0.8-0.5-1.4-0.5
		c-0.6,0-1.1,0.2-1.4,0.5s-0.5,0.9-0.5,1.5v5.5H841v-5.5c0-0.6-0.2-1.1-0.5-1.5s-0.8-0.5-1.4-0.5c-0.6,0-1.1,0.2-1.4,0.5
		c-0.3,0.4-0.5,0.9-0.5,1.5v5.5H834v-10H837.1z"/>
	<path class="st0" d="M854.1,235.6c-0.9-1-1.3-2.2-1.3-3.7s0.4-2.7,1.3-3.7c0.9-1,2-1.4,3.2-1.4s2.3,0.5,2.9,1.4v-1.3h3.1v10h-3.1
		v-1.5c-0.7,1.1-1.7,1.6-3,1.6S855,236.5,854.1,235.6z M859.7,233.7c0.4-0.4,0.7-1,0.7-1.8s-0.2-1.4-0.7-1.8c-0.4-0.4-1-0.6-1.5-0.6
		s-1.1,0.2-1.5,0.6c-0.4,0.4-0.7,1-0.7,1.8s0.2,1.4,0.7,1.8c0.4,0.4,1,0.6,1.5,0.6S859.2,234.1,859.7,233.7z"/>
	<path class="st0" d="M869.2,226.9v1.9c0.7-1.3,1.7-2,2.9-2v3.1h-0.8c-0.7,0-1.2,0.2-1.6,0.5c-0.4,0.3-0.5,0.9-0.5,1.8v4.8h-3.1v-10
		H869.2z"/>
	<path class="st0" d="M876.6,225.7c-0.3,0.3-0.8,0.5-1.3,0.5s-0.9-0.2-1.3-0.5c-0.3-0.3-0.5-0.8-0.5-1.3s0.2-0.9,0.5-1.3
		s0.8-0.5,1.3-0.5s0.9,0.2,1.3,0.5c0.3,0.3,0.5,0.8,0.5,1.3S876.9,225.4,876.6,225.7z M873.7,236.9v-10h3.1v10H873.7z"/>
	<path class="st0" d="M882.6,226.9v1.5c0.6-1.1,1.6-1.6,3-1.6c1.2,0,2.1,0.4,2.8,1.2c0.7,0.8,1.1,1.8,1.1,3.1v5.9h-3.1v-5.5
		c0-0.6-0.2-1.1-0.5-1.5s-0.8-0.5-1.4-0.5s-1.1,0.2-1.4,0.5s-0.5,0.9-0.5,1.5v5.5h-3.1v-10H882.6z"/>
	<path class="st0" d="M896.4,237c-1.5,0-2.7-0.5-3.6-1.4c-0.9-0.9-1.4-2.2-1.4-3.8c0-1.6,0.5-2.8,1.4-3.7c0.9-0.9,2.1-1.4,3.6-1.4
		c1.5,0,2.7,0.5,3.7,1.4c1,0.9,1.5,2.2,1.5,3.8c0,0.3,0,0.7-0.1,1h-6.9c0.1,0.4,0.3,0.8,0.6,1.1c0.3,0.3,0.7,0.4,1.1,0.4
		c0.4,0,0.7,0,0.9-0.1c0.2-0.1,0.3-0.2,0.4-0.2c0.1-0.1,0.2-0.2,0.4-0.4h3.3c-0.3,1-0.9,1.8-1.7,2.4
		C898.6,236.7,897.6,237,896.4,237z M897.7,229.8c-0.4-0.3-0.8-0.4-1.3-0.4s-0.9,0.1-1.2,0.4c-0.3,0.3-0.5,0.7-0.6,1.1h3.8
		C898.3,230.5,898.1,230.1,897.7,229.8z"/>
	<path class="st0" d="M906.6,226.9v1.9c0.7-1.3,1.7-2,2.9-2v3.1h-0.8c-0.7,0-1.2,0.2-1.6,0.5c-0.4,0.3-0.5,0.9-0.5,1.8v4.8h-3.1v-10
		H906.6z"/>
	<path class="st0" d="M924.5,224.3h3.1v12.6h-3.1v-5.2h-4.9v5.2h-3.1v-12.6h3.1v5.1h4.9V224.3z"/>
	<path class="st0" d="M931.1,235.6c-1-0.9-1.5-2.2-1.5-3.7s0.5-2.8,1.5-3.7c1-0.9,2.3-1.4,3.7-1.4c1.5,0,2.7,0.5,3.7,1.4
		c1,0.9,1.5,2.2,1.5,3.7s-0.5,2.8-1.5,3.7s-2.2,1.4-3.7,1.4C933.3,237,932.1,236.5,931.1,235.6z M936.3,233.7
		c0.4-0.4,0.6-1.1,0.6-1.9s-0.2-1.4-0.6-1.9c-0.4-0.4-0.9-0.6-1.5-0.6c-0.6,0-1.1,0.2-1.5,0.6c-0.4,0.4-0.6,1-0.6,1.9
		s0.2,1.4,0.6,1.9s0.9,0.6,1.5,0.6S935.9,234.2,936.3,233.7z"/>
	<path class="st0" d="M941.3,229.9c0-0.9,0.4-1.6,1.1-2.2c0.8-0.6,1.8-0.9,3.1-0.9c1.3,0,2.3,0.3,3.1,0.9s1.2,1.4,1.3,2.4h-3.2
		c0-0.3-0.2-0.6-0.4-0.7c-0.2-0.1-0.5-0.2-0.9-0.2c-0.8,0-1.2,0.2-1.2,0.7c0,0.4,0.5,0.8,1.5,0.9c1,0.2,1.9,0.4,2.7,0.8
		c0.4,0.2,0.8,0.4,1.1,0.8c0.3,0.4,0.4,0.9,0.4,1.4c0,0.9-0.4,1.7-1.2,2.3c-0.8,0.6-1.8,0.9-3,0.9s-2.2-0.3-3.1-0.8
		c-0.8-0.6-1.3-1.4-1.3-2.5h3.1c0.1,0.6,0.5,0.9,1.3,0.9c0.4,0,0.7-0.1,0.9-0.3c0.2-0.2,0.4-0.4,0.4-0.6c0-0.3-0.2-0.5-0.6-0.6
		s-0.9-0.3-1.4-0.4s-1.1-0.2-1.7-0.4s-1-0.4-1.4-0.8S941.3,230.5,941.3,229.9z"/>
	<path class="st0" d="M956.3,234.3h1.1v2.6h-1.6c-1.1,0-2-0.2-2.6-0.7c-0.6-0.5-0.9-1.4-0.9-2.6v-4.2h-0.9v-2.6h0.9v-2.4h3.1v2.4h2
		v2.6h-2v4.2C955.3,234.1,955.6,234.3,956.3,234.3z"/>
</g>
<line class="st8" x1="777" y1="231.5" x2="546" y2="231.5"/>
<path class="st2" d="M704,254.9c13,0,23.5-10.5,23.5-23.5S717,207.9,704,207.9h-82c-13,0-23.5,10.5-23.5,23.5s10.5,23.5,23.5,23.5
	H704z"/>
<g>
	<path class="st7" d="M626.2,237v-12.6h3.1V237H626.2z"/>
	<path class="st7" d="M635.1,227v1.5c0.6-1.1,1.6-1.6,3-1.6c1.2,0,2.1,0.4,2.8,1.2c0.7,0.8,1.1,1.8,1.1,3.1v5.9h-3.1v-5.5
		c0-0.6-0.2-1.1-0.5-1.5s-0.8-0.5-1.4-0.5s-1.1,0.2-1.4,0.5s-0.5,0.9-0.5,1.5v5.5H632v-10H635.1z"/>
	<path class="st7" d="M648.8,234.4h1.1v2.6h-1.6c-1.1,0-2-0.2-2.6-0.7c-0.6-0.5-0.9-1.4-0.9-2.6v-4.2h-0.9V227h0.9v-2.4h3.1v2.4h2
		v2.6h-2v4.2C647.9,234.2,648.2,234.4,648.8,234.4z"/>
	<path class="st7" d="M656.3,237.1c-1.5,0-2.7-0.5-3.6-1.4c-0.9-0.9-1.4-2.2-1.4-3.8c0-1.6,0.5-2.8,1.4-3.7c0.9-0.9,2.1-1.4,3.6-1.4
		s2.7,0.5,3.7,1.4c1,0.9,1.5,2.2,1.5,3.8c0,0.3,0,0.7-0.1,1h-6.9c0.1,0.4,0.3,0.8,0.6,1.1c0.3,0.3,0.7,0.4,1.1,0.4
		c0.4,0,0.7,0,0.9-0.1c0.2-0.1,0.3-0.2,0.4-0.2c0.1-0.1,0.2-0.2,0.4-0.4h3.3c-0.3,1-0.9,1.8-1.7,2.4
		C658.5,236.8,657.5,237.1,656.3,237.1z M657.6,229.9c-0.4-0.3-0.8-0.4-1.3-0.4s-0.9,0.1-1.2,0.4c-0.3,0.3-0.5,0.7-0.6,1.1h3.8
		C658.2,230.6,658,230.2,657.6,229.9z"/>
	<path class="st7" d="M666.5,227v1.9c0.7-1.3,1.7-2,2.9-2v3.1h-0.8c-0.7,0-1.2,0.2-1.6,0.5c-0.4,0.3-0.5,0.9-0.5,1.8v4.8h-3.1v-10
		H666.5z"/>
	<path class="st7" d="M674.1,227v1.5c0.6-1.1,1.7-1.6,3-1.6c1.2,0,2.1,0.4,2.8,1.2c0.7,0.8,1.1,1.8,1.1,3.1v5.9H678v-5.5
		c0-0.6-0.2-1.1-0.5-1.5c-0.3-0.4-0.8-0.5-1.4-0.5c-0.6,0-1.1,0.2-1.4,0.5s-0.5,0.9-0.5,1.5v5.5h-3.1v-10H674.1z"/>
	<path class="st7" d="M687.9,237.1c-1.5,0-2.7-0.5-3.6-1.4c-0.9-0.9-1.4-2.2-1.4-3.8c0-1.6,0.5-2.8,1.4-3.7c0.9-0.9,2.1-1.4,3.6-1.4
		c1.5,0,2.7,0.5,3.7,1.4c1,0.9,1.5,2.2,1.5,3.8c0,0.3,0,0.7-0.1,1h-6.9c0.1,0.4,0.3,0.8,0.6,1.1c0.3,0.3,0.7,0.4,1.1,0.4
		s0.7,0,0.9-0.1c0.2-0.1,0.3-0.2,0.4-0.2c0.1-0.1,0.2-0.2,0.3-0.4h3.3c-0.3,1-0.9,1.8-1.7,2.4S689.1,237.1,687.9,237.1z
		 M689.2,229.9c-0.4-0.3-0.8-0.4-1.3-0.4s-0.9,0.1-1.2,0.4c-0.3,0.3-0.5,0.7-0.6,1.1h3.8C689.8,230.6,689.6,230.2,689.2,229.9z"/>
	<path class="st7" d="M699.3,234.4h1.1v2.6h-1.6c-1.1,0-2-0.2-2.6-0.7c-0.6-0.5-0.9-1.4-0.9-2.6v-4.2h-0.9V227h0.9v-2.4h3.1v2.4h2
		v2.6h-2v4.2C698.4,234.2,698.7,234.4,699.3,234.4z"/>
</g>
</svg>
