<svg xmlns="http://www.w3.org/2000/svg" viewBox="0 0 38.26561 44.9997"><defs><style>.cls-1{fill:aqua;}</style></defs><title>icon</title><g id="Layer_1" data-name="Layer 1"><path class="cls-1" d="M16.485,10.31892c-.48428.05164-.31714.49714-.58671.50678C15.63282,10.83545,15.68693,10.25849,16.485,10.31892Zm1.45993.0735c.47132-.12107.47378.35346.73114.2671C18.92627,10.57563,18.67213,10.05663,17.945,10.39242Zm16.24323,31.0813a21.36137,21.36137,0,0,0-4.065,3.032,4.63644,4.63644,0,0,1-3.92538.12193c-1.44054-.74164-.67629-1.899-2.90057-1.95375-1.10549-.02582-2.18056-.03557-3.25788-.0226-.95314.01285-1.90542.042-2.8771.09278-3.33963.029-3.66642,2.21282-5.79373,2.13289-1.456-.054-3.29346-1.20246-6.449-1.86342C2.70189,42.5519.57286,42.44218.11686,41.46087c-.45524-.97811.56175-2.07493.62947-3.04982.083-1.271-.96279-2.99967-.18975-3.66952.63835-.55457,2.037-.14775,2.93849-.65132a2.06946,2.06946,0,0,0,1.34367-2.14264,2.21772,2.21772,0,0,1-.8086,2.6656,3.77128,3.77128,0,0,1-2.06839.36236c-.57064-.054-.9241.03868-1.09757.256-.22114.28243-.1501.77636.12825,1.43411a3.69987,3.69987,0,0,1,.57139,1.8796c-.04521.80539-.93053,1.76163-.78921,2.43878.05486.25992.31061.477.924.65046,1.01689.28575,2.83188.54482,4.62277.98132,1.99092.48836,4.04645,1.40839,5.32392,1.2316,3.81973-.53185,1.64153-4.62834,1.02342-5.60248-3.22413-5.07545-5.35627-8.39794-7.06316-7.07923-.4455.343-.46242-.86357-.443-1.32836.0735-1.6681.92089-2.2517,1.42446-3.55017.94264-2.4316,1.67774-5.21666,3.13617-6.65644,1.08546-1.38889,2.77863-3.67521,3.10306-4.88174-.27278-2.6236-.35668-5.3853-.39878-7.80394-.04115-2.57281.36642-4.83009,3.27181-6.40862A5.65834,5.65834,0,0,1,18.30431.00056a8.519,8.519,0,0,1,4.89781,1.38,8.63612,8.63612,0,0,1,3.04735,6.76788,15.28454,15.28454,0,0,0,.74089,5.34984,12.96172,12.96172,0,0,0,3.34756,5.4813c1.99007,2.11039,3.53881,6.26827,3.97467,8.90162.41078,2.45989-.12429,3.98034-.66418,4.057-.80378.11861-1.305,2.672-3.82295,2.55342-1.60682-.07746-1.76421-1.02653-2.2096-1.83513-.71593-1.29289-1.44386-.88854-1.736.45921a5.55823,5.55823,0,0,0,.18,2.44692,11.185,11.185,0,0,1,.02667,4.88163c-.51407,3.47753,2.43,4.13528,4.4161,2.4825a11.21153,11.21153,0,0,1,4.85924-2.73825c3.7397-1.28078,2.48324-2.41306.47207-3.08935-1.80289-.6061-1.87714-3.6527-1.2315-4.22731.14368,3.27171,1.8465,3.74624,2.56885,4.1926C40.2651,38.9848,36.00233,40.56012,34.18819,41.47372Zm-8.32776-9.58347a1.479,1.479,0,0,1,1.27018-.45922c.08068-1.99413,3.18535-1.84724,4.20224-1.01281,0-.46232-.97564-.87643-1.36629-1.07175.677-2.2516.35914-3.15631-.08957-5.28288a8.269,8.269,0,0,0-2.97717-4.49023,8.78183,8.78183,0,0,1,1.43411,2.09335c1.01046,1.88121,2.00785,4.66145,1.34367,6.99619A1.29024,1.29024,0,0,1,28.43646,29.712c-1.78039.18557-.73371-2.104-1.47289-5.25781-.82317-3.50581-1.66735-3.76884-1.87949-4.044-1.0201-4.56138-2.15485-4.10613-2.476-5.82834-.2881-1.52378,1.32825-2.7842-.86925-3.21042-.66985-.13157-1.62846-.81107-2.01106-.85949-.37853-.05165-.56421-2.51475.82467-2.61482,1.38889-.10253,1.65439,1.56889,1.38171,2.22664-.39471.65132.029.895.71582.68282.56175-.17271.19939-1.636.33332-1.85293C22.621,6.85864,21.74616,6.55682,20.835,6.38089c-3.45813.2655-1.90542,4.09574-2.25567,3.72685-.48986-.51975-1.96275-.029-1.95546-.36236.0315-1.9531-.623-3.08528-1.52453-3.10874-1.00393-.029-1.41793,1.37689-1.47857,2.16846-.05732.76028.452,2.34449.82393,2.22342.24375-.08068.661-.57053.21471-.56818-.23079.00322-.57943-.53828-.61575-1.19689-.03471-.65689.20582-1.31785,1.05889-1.28314,1.00071.03879.991,1.99339.882,2.06925a4.49415,4.49415,0,0,0-.7755.72546c-.318.53271-.95635.66418-1.19035.89828-.4455.4454-.53593.949-.20186,1.14193,1.1445.65689.77239,1.388,2.37353,1.45585a7.28249,7.28249,0,0,0,2.5591-.3825c.55767-.16864,2.34845-.55039,2.72613-1.208.16382-.27921.36965-.289.50679-.209.24043.13874.29218.60364-.32689.76992A24.0029,24.0029,0,0,0,19.09235,14.268a7.27573,7.27573,0,0,1-1.76989.57461c-1.66253.29775-2.89-.60043-1.7746.47775a1.91068,1.91068,0,0,0,1.68181.54482c2.09432-.08314,4.44106-2.59789,4.67271-1.472.04842.23078-.66332.54471-1.21853.82071-1.9635.9661-3.346,2.87389-4.60338,2.21367-1.125-.59314-2.24432-3.38388-2.225-2.13374.0315,1.92792-2.54142,3.64381-1.3575,5.83809-.7666.20893-2.51474,3.89709-2.76567,5.81784a24.73261,24.73261,0,0,1-.15653,3.2177c-.37854,1.10325-2.09743-1.0516-1.54875-3.69223.09857-.46489.01543-.56336-.109-.339-.69879,1.23481-.31479,2.95713.23646,4.166.24139.523.8055.75375,1.2226,1.21939.90064,1.00714,4.34678,3.56313,4.97142,4.17567a1.54949,1.54949,0,0,1-1.06457,2.614c.82478,1.55593,1.62856,1.70357,1.61646,4.24746.933-.50122.55767-1.59718.16714-2.31943-.27279-.49382-.62946-.71817-.552-.83357.05818-.0871.53829-.50035.82725-.17678.84985.95239,2.45421,1.12275,4.17963.908,1.72221-.21867,3.56956-.82071,4.42338-2.19353.40029-.64489.68925-.87321.87482-.76028.18321.11539.26314.57054.24364,1.30167a8.863,8.863,0,0,1-.573,2.32907c-.23817.7635-.31146,1.305.43254,1.334.22114-1.4116.60942-2.80049.7215-4.2046C25.77075,36.34577,24.61351,33.37192,25.86043,31.89025Zm-10.556-22.6809c-.05732.31479-.03472.51086.18321.51086.03546,0,.07339-.00729.08711-.08711a1.11423,1.11423,0,0,0-.35036-1.117c-.30739-.07672-.26871.36235-.109.32764C15.21228,8.82428,15.34311,8.98489,15.30443,9.20935Zm5.68466-.8595c-.31479.029-.22436.18557-.06782.23079.205.06128.39792.40992.44228.78932.00322.03471.263-.05486.263-.138A.84785.84785,0,0,0,20.98909,8.34985Z"/></g></svg>