<svg xmlns="http://www.w3.org/2000/svg" viewBox="0 0 37.67379 44.99987"><defs><style>.cls-1{fill:aqua;}</style></defs><title>icon</title><g id="Layer_1" data-name="Layer 1"><path class="cls-1" d="M21.28451,10.49408a15.22714,15.22714,0,0,1-2.8126.45857,12.2807,12.2807,0,0,1,2.112-6.948Q22.58238,1.10652,27.33967,0a1.83357,1.83357,0,0,1,.06964.29861,1.87507,1.87507,0,0,0,.06911.29625c0,.07135.00482.16253.01468.27074.005.10918.00985.19779.00985.27236a10.30936,10.30936,0,0,1-.78428,3.67585,11.0611,11.0611,0,0,1-2.51239,3.73156A7.71221,7.71221,0,0,1,21.28451,10.49408ZM33.39976,29.44984a10.29885,10.29885,0,0,1-1.86492-6.03062,9.602,9.602,0,0,1,1.75671-5.59649,17.39977,17.39977,0,0,1,3.08409-3.19252,13.98264,13.98264,0,0,0-2.81249-2.70439,9.91662,9.91662,0,0,0-5.76394-1.75746,15.25743,15.25743,0,0,0-4.67367.91811,13.41763,13.41763,0,0,1-3.86924.91982,17.31743,17.31743,0,0,1-3.73092-.81064,17.96938,17.96938,0,0,0-4.7867-.8099A9.34337,9.34337,0,0,0,3.05474,14.279,16.03878,16.03878,0,0,0,0,24.39079,27.73243,27.73243,0,0,0,3.97777,37.99693q4.02717,7.00295,8.13769,7.00294a9.77235,9.77235,0,0,0,3.56839-.9181,10.40116,10.40116,0,0,1,3.84384-.89357,11.98,11.98,0,0,1,4.08128.86389,12.4533,12.4533,0,0,0,3.78578.86571q3.4645,0,6.9528-5.2996a26.29416,26.29416,0,0,0,3.32624-6.75844A8.2187,8.2187,0,0,1,33.39976,29.44984Z"/></g></svg>