<svg xmlns="http://www.w3.org/2000/svg" viewBox="0 0 144.94 140.11"><defs><style>.cls-1{fill:#010101;}</style></defs><title>Manage-Apps</title><g id="Layer_2" data-name="Layer 2"><g id="Layer_1-2" data-name="Layer 1"><path class="cls-1" d="M135.28,0H9.67A9.68,9.68,0,0,0,0,9.67V89.38A2.42,2.42,0,0,0,2.42,91.8H142.53a2.41,2.41,0,0,0,2.41-2.42V9.67A9.68,9.68,0,0,0,135.28,0Zm4.83,87H4.83V9.67A4.84,4.84,0,0,1,9.67,4.83H135.28a4.84,4.84,0,0,1,4.83,4.84Z"/><path class="cls-1" d="M142.53,87H2.42A2.41,2.41,0,0,0,0,89.38v12.08a9.68,9.68,0,0,0,9.67,9.66H135.28a9.67,9.67,0,0,0,9.66-9.66V89.38A2.41,2.41,0,0,0,142.53,87Zm-2.42,14.49a4.83,4.83,0,0,1-4.83,4.83H9.67a4.84,4.84,0,0,1-4.84-4.83V91.8H140.11v9.66Z"/><path class="cls-1" d="M79.72,96.63H65.22a2.42,2.42,0,0,0,0,4.83h14.5a2.42,2.42,0,0,0,0-4.83Z"/><path class="cls-1" d="M132.86,9.66H12.08a2.43,2.43,0,0,0-2.42,2.42v77.3a2.42,2.42,0,0,0,2.42,2.42H132.86a2.42,2.42,0,0,0,2.42-2.42V12.08A2.42,2.42,0,0,0,132.86,9.66ZM130.45,87h-116V14.49h116V87Z"/><path class="cls-1" d="M103.88,125.62H41.07a7.25,7.25,0,1,0,0,14.49h62.81a7.25,7.25,0,0,0,0-14.49Zm0,9.66H41.07a2.42,2.42,0,1,1,0-4.83h62.81a2.42,2.42,0,0,1,0,4.83Z"/><path class="cls-1" d="M99,125.62c-8,0-12.07-5.69-12.07-16.91a2.42,2.42,0,0,0-2.42-2.42H60.39A2.41,2.41,0,0,0,58,108.71c0,11.22-4.07,16.91-12.08,16.91a2.42,2.42,0,1,0,0,4.83H99a2.42,2.42,0,1,0,0-4.83Zm-41.37,0c3-3.3,4.72-8.2,5.07-14.5H82.2c.35,6.3,2.1,11.2,5.08,14.5Z"/><path class="cls-1" d="M115.43,71.18l-5.83-5.83,3.25-3.25a2.42,2.42,0,0,0-1-4L87.68,50.83a2.41,2.41,0,0,0-2.4.61,2.38,2.38,0,0,0-.61,2.4L91.92,78a2.41,2.41,0,0,0,1.72,1.65,2.45,2.45,0,0,0,2.3-.64l3.41-3.42,5.84,5.84a2.43,2.43,0,0,0,3.41,0l6.83-6.84A2.4,2.4,0,0,0,115.43,71.18Zm-8.54,5.12L101.58,71a3.11,3.11,0,0,0-2.23-.92,3.17,3.17,0,0,0-2.23.92l-1.74,1.74-4.8-16,16,4.79-1.87,1.87a2.76,2.76,0,0,0-.8,1.94,2.72,2.72,0,0,0,.8,1.93l5.61,5.6Z"/><path class="cls-1" d="M101.46,19.33H33.82a2.42,2.42,0,0,0-2.42,2.41V33.82a2.43,2.43,0,0,0,2.42,2.42h67.64a2.43,2.43,0,0,0,2.42-2.42V21.74A2.42,2.42,0,0,0,101.46,19.33ZM99,31.4H36.24V24.16H99Z"/><path class="cls-1" d="M62.81,45.9H43.48a2.41,2.41,0,0,0-2.41,2.41V58a2.41,2.41,0,0,0,2.41,2.41H62.81A2.41,2.41,0,0,0,65.22,58V48.31A2.41,2.41,0,0,0,62.81,45.9Zm-2.42,9.66H45.9V50.73H60.39Z"/><path class="cls-1" d="M101.46,19.33H33.82a2.42,2.42,0,0,0-2.42,2.41v45.9a2.43,2.43,0,0,0,2.42,2.42H91.33a2.42,2.42,0,0,0,2.31-3.12l-3-10.19,10.18,3a2.41,2.41,0,0,0,3.11-2.31V21.74A2.42,2.42,0,0,0,101.46,19.33ZM99,54.24,87.67,50.83a2.42,2.42,0,0,0-2.4.61,2.4,2.4,0,0,0-.6,2.4l3.41,11.38H36.24V24.16H99Z"/></g></g></svg>