<?xml version="1.0" encoding="utf-8"?>
<!-- Generator: Adobe Illustrator 22.1.0, SVG Export Plug-In . SVG Version: 6.00 Build 0)  -->
<svg version="1.1" id="Layer_1" xmlns="http://www.w3.org/2000/svg" xmlns:xlink="http://www.w3.org/1999/xlink" x="0px" y="0px"
	 viewBox="0 0 32.5791054 31.7746105" style="enable-background:new 0 0 32.5791054 31.7746105;" xml:space="preserve">
<style type="text/css">
	.st0{fill-rule:evenodd;clip-rule:evenodd;fill:#FFFFFF;}
</style>
<path class="st0" d="M16.2884998,0C7.2939,0,0,7.2930002,0,16.2905006c0,7.1962986,4.6669998,13.3017998,11.1405993,15.4560986
	c0.8145065,0.1494007,1.1118002-0.3534985,1.1118002-0.7852001c0-0.3866997-0.0141001-1.4110985-0.0219994-2.7704983
	c-4.5312004,0.9843998-5.4872947-2.1836014-5.4872947-2.1836014c-0.7407055-1.8817997-1.8086057-2.3827991-1.8086057-2.3827991
	c-1.4789999-1.0107002,0.1119003-0.9902,0.1119003-0.9902c1.6347055,0.1152,2.4950995,1.6786995,2.4950995,1.6786995
	c1.4530997,2.4892998,3.8125005,1.7705002,4.7407002,1.3535004c0.1479998-1.0527,0.5688-1.7705002,1.0341997-2.1777
	c-3.6171999-0.4111004-7.4198999-1.8085995-7.4198999-8.0508003c0-1.7782993,0.6347003-3.2323999,1.6767001-4.3710995
	c-0.1675-0.4120998-0.7265-2.0683002,0.1596999-4.3110003c0,0,1.3677006-0.4379997,4.4794998,1.6699004
	C13.5116997,8.0644999,14.9052,7.8838,16.2904987,7.8775001c1.3833008,0.0063,2.7769012,0.1869998,4.0781002,0.5483003
	c3.1098995-2.1079001,4.4750996-1.6699004,4.4750996-1.6699004c0.8887005,2.2427001,0.3296013,3.8989005,0.1621017,4.3110003
	c1.0439987,1.1386995,1.6743984,2.5928001,1.6743984,4.3710995c0,6.2578011-3.8085995,7.6348-7.4375,8.0381012
	c0.5848999,0.5028992,1.1059017,1.4970989,1.1059017,3.0165997c0,2.1777-0.0200005,3.9345989-0.0200005,4.4686985
	c0,0.4356003,0.2933998,0.9424,1.1201,0.7833004c6.4672985-2.1583004,11.1304054-8.2598,11.1304054-15.4541988
	C32.5791054,7.2930002,25.2851048,0,16.2884998,0z"/>
</svg>
