<svg xmlns="http://www.w3.org/2000/svg" viewBox="0 0 125.56 147.45"><defs><style>.cls-1{fill:#010101;}</style></defs><title>shield</title><g id="Layer_2" data-name="Layer 2"><g id="Layer_1-2" data-name="Layer 1"><g id="surface1"><path class="cls-1" d="M125.42,40v-.12c-.06-1.41-.11-2.91-.13-4.58A15.63,15.63,0,0,0,110.56,20c-17-.95-30.06-6.47-41.27-17.4l-.09-.09a9.45,9.45,0,0,0-12.83,0l-.1.09C45.07,13.53,32,19.05,15,20A15.63,15.63,0,0,0,.29,35.31c0,1.66-.07,3.16-.14,4.58v.27C-.18,57.45-.59,79,6.61,98.49a74.23,74.23,0,0,0,17.81,27.75c8.95,8.74,20.68,15.67,34.86,20.62a10.76,10.76,0,0,0,5.58.39,9.75,9.75,0,0,0,1.43-.4c14.16-4.95,25.88-11.89,34.82-20.63a74.3,74.3,0,0,0,17.82-27.75C126.15,78.88,125.74,57.33,125.42,40ZM110.81,95.48c-7.59,20.58-23.09,34.71-47.37,43.21l-.28.07a1.94,1.94,0,0,1-.76,0l-.27-.07c-24.31-8.48-39.82-22.61-47.41-43.19C8.09,77.5,8.47,57.75,8.8,40.32v-.09c.07-1.5.11-3.07.14-4.79a6.94,6.94,0,0,1,6.54-6.8A75.71,75.71,0,0,0,41.25,23a67.6,67.6,0,0,0,21-14.1.79.79,0,0,1,1.07,0,67.37,67.37,0,0,0,21,14.1,75.7,75.7,0,0,0,25.76,5.67,6.94,6.94,0,0,1,6.55,6.8c0,1.73.07,3.3.14,4.79C117.1,57.67,117.46,77.44,110.81,95.48Z"/><path class="cls-1" d="M62.78,37A36.75,36.75,0,1,0,99.53,73.73,36.8,36.8,0,0,0,62.78,37Zm0,64.84A28.1,28.1,0,1,1,90.87,73.73,28.12,28.12,0,0,1,62.78,101.82Z"/><path class="cls-1" d="M73.34,62.32,56.27,79.39l-4.63-4.63a4.32,4.32,0,1,0-6.12,6.11l7.7,7.7a4.33,4.33,0,0,0,6.11,0L79.46,68.44a4.33,4.33,0,1,0-6.12-6.12Z"/></g></g></g></svg>