<svg xmlns="http://www.w3.org/2000/svg" viewBox="0 0 135.53 74.22"><defs><style>.cls-1,.cls-2,.cls-5{fill:none;}.cls-1,.cls-2,.cls-4,.cls-5{stroke:#00abf5;stroke-miterlimit:10;}.cls-2{stroke-width:0.5px;}.cls-3{fill:#00abf5;}.cls-4{fill:#fff;stroke-linecap:round;stroke-dasharray:0.5 8;}.cls-5{stroke-width:0.25px;}.cls-6{opacity:0.58;}.cls-7{opacity:0.41;}.cls-8{opacity:0.34;}.cls-9{opacity:0.35;}.cls-10{opacity:0.22;}.cls-11{opacity:0.48;}</style></defs><title>ticket</title><g id="Layer_2" data-name="Layer 2"><g id="Layer_1-2" data-name="Layer 1"><path class="cls-1" d="M.5,20.87V68.68a5.06,5.06,0,0,0,5,5H130a5.06,5.06,0,0,0,5-5V20.87Z"/><path class="cls-1" d="M135,5.54a5.06,5.06,0,0,0-5-5H5.54a5.06,5.06,0,0,0-5,5V20.87H135Z"/><path class="cls-2" d="M10.19,67.61h-1v2.8H6.6V61.7h4.65a2.9,2.9,0,0,1,3.13,3,2.82,2.82,0,0,1-1.57,2.64l1.58,3.08h-3Zm.65-3.72H9.23v1.53h1.61a.77.77,0,1,0,0-1.53Z"/><path class="cls-3" d="M14.59,61.7h2.79l-.33,5.47H14.94ZM16,67.77a1.39,1.39,0,1,1-1.39,1.4A1.41,1.41,0,0,1,16,67.77Z"/><path class="cls-2" d="M22.22,61.55a4.51,4.51,0,1,1,0,9,4.51,4.51,0,1,1,0-9Zm0,2.33a2.18,2.18,0,1,0,2.09,2.18A2.05,2.05,0,0,0,22.22,63.88Z"/><path class="cls-3" d="M129.12,6.56l-.27-1.65c-.09-.52-.3-1-.45-1s-.3.44-.3,1v.43a1,1,0,0,1-1,1h-.52V7.51h1.71a.79.79,0,0,0,.8-1"/><path class="cls-3" d="M125.25,5.17h-5.46V4.93c0-.53-.13-1-.29-1s-.37.43-.46,1l-.27,1.65a.79.79,0,0,0,.81,1h1.61a1.45,1.45,0,0,0,.47-.07.6.6,0,0,1-.59.49h-2.26a.6.6,0,0,1-.58-.7l.23-1.38a.6.6,0,0,0-.59-.69H106.6a.59.59,0,0,0-.54.35l-2.12,3.23a.15.15,0,0,0,0,.18l.4.48a.16.16,0,0,0,.21,0L106,8.3v6.9a.59.59,0,0,0,.59.6h3.2a.6.6,0,0,0,.6-.6V12.8a.59.59,0,0,1,.59-.6h8a.59.59,0,0,1,.59.6v2.4a.6.6,0,0,0,.6.6h3.2a.59.59,0,0,0,.59-.6V12.62h-1.69a1,1,0,0,1-1-1V10a1,1,0,0,1,.39-.77v2a1,1,0,0,0,1,1h2.62a1,1,0,0,0,1-1v-5a1,1,0,0,0-1-1"/><path class="cls-3" d="M129.3,4.57a.62.62,0,0,1,1.24,0,.62.62,0,0,1-1.24,0Zm1.09,0a.44.44,0,0,0-.46-.48.44.44,0,0,0-.47.48.47.47,0,1,0,.93,0Zm-.67-.31h.22c.11,0,.22,0,.22.19a.18.18,0,0,1-.14.17l.14.25H130l-.13-.24h-.06v.24h-.12V4.26Zm.22.28c.06,0,.1,0,.1-.09s-.06-.08-.1-.08h-.11v.17Z"/><line class="cls-4" x1="100.29" y1="20.88" x2="100.29" y2="73.62"/><path class="cls-3" d="M12.57,10.71H9.46l-.68,3.43h-2L8.52,5.61h5.63l-.31,1.53H10.18L9.77,9.19h3.11Z"/><path class="cls-3" d="M15.36,14.14h-2l1.71-8.53h1.95Z"/><path class="cls-3" d="M19.33,10.87l-.65,3.27h-2l1.7-8.53h3.1a2.76,2.76,0,0,1,2,.7A1.94,1.94,0,0,1,24,8.17a2.55,2.55,0,0,1-.56,1.18,3,3,0,0,1-1.13.74,1.46,1.46,0,0,1,.9.77,2,2,0,0,1,.09,1.26l-.11.54a4.42,4.42,0,0,0-.06.76.86.86,0,0,0,.2.61l0,.11h-2a.8.8,0,0,1-.15-.63,6.09,6.09,0,0,1,.1-.87l.11-.51a1.28,1.28,0,0,0-.08-1,.87.87,0,0,0-.77-.31Zm.3-1.52h1.15A1.26,1.26,0,0,0,22,8.3a1.07,1.07,0,0,0-.11-.86.83.83,0,0,0-.73-.3H20.08Z"/><path class="cls-3" d="M28.77,12a.83.83,0,0,0-.15-.78,3.78,3.78,0,0,0-1-.58,5.4,5.4,0,0,1-2.07-1.18,1.81,1.81,0,0,1-.46-1.73,2.49,2.49,0,0,1,1.13-1.67,4,4,0,0,1,2.2-.59,2.93,2.93,0,0,1,2.08.7A1.88,1.88,0,0,1,31,8.1l0,0h-1.9a.92.92,0,0,0-.17-.82A1,1,0,0,0,28.12,7a1.15,1.15,0,0,0-.68.22.8.8,0,0,0-.37.51.66.66,0,0,0,.18.71,5.67,5.67,0,0,0,1.25.61,4.3,4.3,0,0,1,1.86,1.14,2,2,0,0,1,.36,1.8,2.5,2.5,0,0,1-1.13,1.7,4,4,0,0,1-2.19.57,3.66,3.66,0,0,1-2.19-.65,1.73,1.73,0,0,1-.6-2v0h1.9c-.09.43,0,.72.24.88a1.7,1.7,0,0,0,.94.24,1.23,1.23,0,0,0,.68-.21A.84.84,0,0,0,28.77,12Z"/><path class="cls-3" d="M38.07,7.14H36l-1.4,7h-2l1.4-7h-2l.31-1.53h6Z"/><path class="cls-3" d="M47.11,11.15v0a4.32,4.32,0,0,1-1.21,2.31,3.35,3.35,0,0,1-2.33.78,2.78,2.78,0,0,1-2.81-3.5L41.13,9a4.73,4.73,0,0,1,1.3-2.59,3.33,3.33,0,0,1,2.39-.91,2.89,2.89,0,0,1,2.23.84,2.69,2.69,0,0,1,.59,2.29v0H45.71a1.83,1.83,0,0,0-.1-1.23,1.06,1.06,0,0,0-1-.41,1.21,1.21,0,0,0-1,.54A3.47,3.47,0,0,0,43.09,9l-.36,1.79a2.3,2.3,0,0,0,.06,1.46.9.9,0,0,0,.9.51,1.24,1.24,0,0,0,1-.39,2.58,2.58,0,0,0,.55-1.2Z"/><path class="cls-3" d="M49.77,12.62h3.37l-.31,1.52H47.5l1.71-8.53h2Z"/><path class="cls-3" d="M58.26,12.49H55.91l-.77,1.65h-2l4.23-8.53h2.1l.83,8.53h-2ZM56.61,11h1.55L58,8.11h0Z"/><path class="cls-3" d="M65.54,12a.86.86,0,0,0-.15-.78,4.17,4.17,0,0,0-1-.58,5.25,5.25,0,0,1-2.07-1.18,1.81,1.81,0,0,1-.46-1.73A2.49,2.49,0,0,1,63,6.08a4,4,0,0,1,2.2-.59,2.93,2.93,0,0,1,2.08.7,1.9,1.9,0,0,1,.49,1.91l0,0h-1.9a.92.92,0,0,0-.17-.82A1,1,0,0,0,64.89,7a1.15,1.15,0,0,0-.68.22.8.8,0,0,0-.37.51.66.66,0,0,0,.18.71,5.44,5.44,0,0,0,1.25.61,4.19,4.19,0,0,1,1.85,1.14,2.06,2.06,0,0,1,.37,1.8,2.54,2.54,0,0,1-1.13,1.7,4,4,0,0,1-2.2.57A3.63,3.63,0,0,1,62,13.62a1.73,1.73,0,0,1-.6-2v0h1.9c-.09.43,0,.72.24.88a1.7,1.7,0,0,0,.94.24,1.26,1.26,0,0,0,.68-.21A.84.84,0,0,0,65.54,12Z"/><path class="cls-3" d="M72.51,12a.83.83,0,0,0-.14-.78,4.17,4.17,0,0,0-1-.58,5.25,5.25,0,0,1-2.07-1.18,1.81,1.81,0,0,1-.46-1.73A2.49,2.49,0,0,1,70,6.08a4,4,0,0,1,2.19-.59,2.94,2.94,0,0,1,2.09.7,1.9,1.9,0,0,1,.49,1.91l0,0H72.82a.9.9,0,0,0-.17-.82A1,1,0,0,0,71.87,7a1.15,1.15,0,0,0-.68.22.81.81,0,0,0-.38.51.68.68,0,0,0,.19.71,5.22,5.22,0,0,0,1.25.61A4.25,4.25,0,0,1,74.1,10.2a2.06,2.06,0,0,1,.37,1.8,2.54,2.54,0,0,1-1.13,1.7,4,4,0,0,1-2.2.57A3.66,3.66,0,0,1,69,13.62a1.73,1.73,0,0,1-.6-2l0,0h1.9c-.09.43,0,.72.24.88a1.7,1.7,0,0,0,.94.24,1.2,1.2,0,0,0,.67-.21A.77.77,0,0,0,72.51,12Z"/><path class="cls-5" d="M79.85,52.69H76.91l1.44-16.15h.39Zm-2.51-.4h2.09L78.52,39Z"/><polygon class="cls-5" points="79.76 36.92 77.33 36.9 77.33 36.49 79.76 36.51 79.76 36.92"/><polygon class="cls-5" points="80.2 37.74 76.9 37.72 76.9 37.31 80.2 37.33 80.2 37.74"/><polygon class="cls-5" points="77.26 52.63 76.99 52.35 79 50.44 77.33 50.44 77.33 50.05 79.98 50.05 77.26 52.63"/><rect class="cls-5" x="77.51" y="48.18" width="1.79" height="0.39"/><rect class="cls-5" x="77.65" y="46.42" width="1.59" height="0.39"/><rect class="cls-5" x="77.87" y="44.93" width="1.26" height="0.39"/><rect class="cls-5" x="77.91" y="43.27" width="1.14" height="0.39"/><rect class="cls-5" x="78.02" y="41.62" width="0.94" height="0.39"/><polygon class="cls-5" points="78.15 40.57 78.86 40.57 78.55 38.47 78.15 40.57"/><rect class="cls-5" x="78.24" y="49.84" width="0.39" height="3.04" transform="translate(-12.56 73.91) rotate(-47.14)"/><rect class="cls-5" x="77.13" y="49.07" width="2.49" height="0.39" transform="translate(-12.93 64.55) rotate(-41.66)"/><rect class="cls-5" x="78.33" y="48.13" width="0.39" height="2.43" transform="translate(-11.53 71.51) rotate(-45.97)"/><rect class="cls-5" x="78.28" y="46.33" width="0.39" height="2.28" transform="translate(-9.92 71.91) rotate(-46.62)"/><rect class="cls-5" x="77.32" y="47.28" width="2.21" height="0.39" transform="translate(-10.49 69.79) rotate(-45.28)"/><rect class="cls-5" x="78.33" y="44.94" width="0.39" height="1.88" transform="translate(-8.73 71.5) rotate(-46.66)"/><rect class="cls-5" x="77.52" y="45.68" width="1.79" height="0.39" transform="translate(-9.25 69.73) rotate(-45.55)"/><rect class="cls-5" x="78.34" y="43.39" width="0.39" height="1.77" transform="translate(-11.14 53.63) rotate(-35.37)"/><rect class="cls-5" x="77.57" y="42.47" width="1.73" height="0.39" transform="translate(3.18 90.73) rotate(-61.11)"/><polygon class="cls-5" points="77.95 45.24 77.63 45.01 78.72 43.5 77.9 42.01 78.24 41.82 79.19 43.53 77.95 45.24"/><rect class="cls-5" x="77.67" y="40.93" width="1.43" height="0.39" transform="translate(8.24 95.12) rotate(-65.28)"/><rect class="cls-5" x="78.31" y="40.43" width="0.39" height="1.41" transform="translate(-9.47 30.42) rotate(-20.71)"/><rect class="cls-5" x="79.4" y="37.32" width="0.88" height="1.75"/><rect class="cls-5" x="76.89" y="37.32" width="0.88" height="1.75"/><rect class="cls-5" x="43.42" y="54.04" width="7.81" height="0.87"/><path class="cls-5" d="M53.39,61.08a10.71,10.71,0,0,1-.2,1.57,13.1,13.1,0,0,1-1.33,3.68H44.2a13.45,13.45,0,0,1-1.34-3.68,11.82,11.82,0,0,1,1.34-8h7.66c.2.38.38.77.55,1.15a12.57,12.57,0,0,1,.8,2.63A10.56,10.56,0,0,1,53.39,61.08Z"/><path class="cls-5" d="M53.39,61.08H46.51a13.67,13.67,0,0,1,.91-5.26h5A11.82,11.82,0,0,1,53.39,61.08Z"/><path class="cls-5" d="M51,66.33H43.3a11.72,11.72,0,0,1,0-11.66H51A11.72,11.72,0,0,1,51,66.33Z"/><g class="cls-6"><path class="cls-5" d="M53.21,58.45s.09,2.22-.47,3a3.32,3.32,0,0,1-1,1l-1.87-7.8h2c.2.38.38.77.55,1.15A12.57,12.57,0,0,1,53.21,58.45Z"/></g><path class="cls-5" d="M51.67,62.65a13.45,13.45,0,0,1-1.34,3.68H42.67a13.41,13.41,0,0,1-1.33-3.68,11.82,11.82,0,0,1,1.33-8h7.66A11.82,11.82,0,0,1,51.67,62.65Z"/><g class="cls-7"><path class="cls-5" d="M50.72,61.08H42.28a13.68,13.68,0,0,1,.92-5.26h6.6A13.68,13.68,0,0,1,50.72,61.08Z"/></g><g class="cls-8"><path class="cls-5" d="M43.34,61.08H42.28a13.68,13.68,0,0,1,.92-5.26h1.06A13.88,13.88,0,0,0,43.34,61.08Z"/></g><rect class="cls-5" x="42.65" y="53.65" width="9.22" height="0.78" rx="0.39"/><rect class="cls-5" x="42.65" y="53.65" width="8.02" height="0.78" rx="0.39"/><g class="cls-9"><path class="cls-5" d="M53.19,62.65a13,13,0,0,1-.51,1.84,14.82,14.82,0,0,1-.82,1.84H42.67a14.82,14.82,0,0,1-.82-1.84,13,13,0,0,1-.51-1.84Z"/></g><g class="cls-9"><path class="cls-5" d="M52.68,64.49a14.82,14.82,0,0,1-.82,1.84H42.67a14.82,14.82,0,0,1-.82-1.84Z"/></g><rect class="cls-5" x="41.75" y="66.33" width="10.11" height="0.43"/><rect class="cls-5" x="41.75" y="66.33" width="8.58" height="0.43"/><rect class="cls-5" x="45.2" y="51.96" width="0.48" height="1.69"/><rect class="cls-5" x="47.79" y="51.96" width="0.48" height="1.69"/><rect class="cls-5" x="46.04" y="53.19" width="3.05" height="0.45"/><path class="cls-5" d="M46.69,52.94a7,7,0,0,1-2.4-.39c-2.07-.8-2.11-3.11-2-5.21a17.2,17.2,0,0,1,.37-2.89l.47.12a14.59,14.59,0,0,0-.35,2.8c-.12,2-.09,4.05,1.68,4.72a8.92,8.92,0,0,0,4.56.09l.12.46A10.42,10.42,0,0,1,46.69,52.94Z"/><rect class="cls-5" x="42.55" y="44.11" width="2.57" height="0.64"/><rect class="cls-5" x="42.27" y="44.25" width="0.37" height="0.39"/><rect class="cls-5" x="44.49" y="42.97" width="1.31" height="1.54"/><rect class="cls-5" x="45.53" y="43.61" width="0.72" height="0.42"/><g class="cls-10"><polygon class="cls-5" points="45.53 61.08 42.9 61.08 45.44 55.82 48.06 55.82 45.53 61.08"/></g><g class="cls-10"><polygon class="cls-5" points="46.7 61.08 46.13 61.08 48.66 55.82 49.23 55.82 46.7 61.08"/></g><rect class="cls-5" x="68.27" y="54.39" width="2.36" height="0.26"/><path class="cls-5" d="M71.29,56.52a4,4,0,0,1-.06.47,3.85,3.85,0,0,1-.41,1.11H68.51A4.16,4.16,0,0,1,68.1,57a3.59,3.59,0,0,1,.41-2.41h2.31a3.78,3.78,0,0,1,.17.35,4,4,0,0,1,.24.79A3.6,3.6,0,0,1,71.29,56.52Z"/><path class="cls-5" d="M71.29,56.52H69.2a4.24,4.24,0,0,1,.28-1.59H71A3.6,3.6,0,0,1,71.29,56.52Z"/><path class="cls-5" d="M70.55,58.11H68.23a3.58,3.58,0,0,1,0-3.53h2.32A3.58,3.58,0,0,1,70.55,58.11Z"/><g class="cls-11"><path class="cls-5" d="M71.23,55.72a2.08,2.08,0,0,1-.14.91,1,1,0,0,1-.32.31l-.56-2.36h.61a3.78,3.78,0,0,1,.17.35A4,4,0,0,1,71.23,55.72Z"/></g><path class="cls-5" d="M70.77,57a4.16,4.16,0,0,1-.41,1.11H68.05A3.85,3.85,0,0,1,67.64,57a3.53,3.53,0,0,1,.41-2.41h2.31A3.59,3.59,0,0,1,70.77,57Z"/><g class="cls-7"><path class="cls-5" d="M70.48,56.52H67.93a4.23,4.23,0,0,1,.27-1.59h2A4.24,4.24,0,0,1,70.48,56.52Z"/></g><g class="cls-8"><path class="cls-5" d="M68.25,56.52h-.32a4.23,4.23,0,0,1,.27-1.59h.33A4,4,0,0,0,68.25,56.52Z"/></g><path class="cls-5" d="M70.71,54.27H68.16a.12.12,0,0,0-.12.12h0a.12.12,0,0,0,.12.12h2.55a.12.12,0,0,0,.12-.12h0A.12.12,0,0,0,70.71,54.27Z"/><rect class="cls-5" x="68.04" y="54.27" width="2.42" height="0.24" rx="0.12"/><g class="cls-9"><path class="cls-5" d="M71.23,57a3.92,3.92,0,0,1-.16.56,4.46,4.46,0,0,1-.25.55H68.05a3.35,3.35,0,0,1-.25-.55,3.92,3.92,0,0,1-.16-.56Z"/></g><g class="cls-9"><path class="cls-5" d="M71.07,57.55a4.46,4.46,0,0,1-.25.55H68.05a3.35,3.35,0,0,1-.25-.55Z"/></g><rect class="cls-5" x="67.77" y="58.1" width="3.06" height="0.13"/><rect class="cls-5" x="67.77" y="58.1" width="2.59" height="0.13"/><rect class="cls-5" x="68.81" y="53.76" width="0.15" height="0.51"/><rect class="cls-5" x="69.59" y="53.76" width="0.15" height="0.51"/><rect class="cls-5" x="69.06" y="54.13" width="0.92" height="0.14"/><path class="cls-5" d="M69.26,54.05a2,2,0,0,1-.72-.11c-.63-.24-.64-.94-.61-1.58a6.47,6.47,0,0,1,.11-.87l.15,0a4.62,4.62,0,0,0-.11.85c0,.61,0,1.23.51,1.43a2.52,2.52,0,0,0,1.38,0L70,54A3.88,3.88,0,0,1,69.26,54.05Z"/><rect class="cls-5" x="68.01" y="51.39" width="0.78" height="0.19"/><rect class="cls-5" x="67.92" y="51.43" width="0.11" height="0.12"/><rect class="cls-5" x="68.6" y="51.04" width="0.4" height="0.47"/><rect class="cls-5" x="68.91" y="51.23" width="0.22" height="0.13"/><g class="cls-10"><polygon class="cls-5" points="68.91 56.52 68.11 56.52 68.88 54.93 69.67 54.93 68.91 56.52"/></g><g class="cls-10"><polygon class="cls-5" points="69.26 56.52 69.09 56.52 69.86 54.93 70.03 54.93 69.26 56.52"/></g><rect class="cls-5" x="74.68" y="47.63" width="0.9" height="0.12"/><path class="cls-5" d="M75.84,48.85a1.25,1.25,0,0,1-.07.26,1.51,1.51,0,0,1-.12.26H74.57l-.06-.13-.06-.13a.24.24,0,0,0,0-.08l0-.12s0,0,0-.06a1.69,1.69,0,0,1,.19-1.13h1.08A1.64,1.64,0,0,1,75.84,48.85Z"/><g class="cls-7"><path class="cls-5" d="M75.71,48.63H74.52a1.8,1.8,0,0,1,.13-.75h.93A2,2,0,0,1,75.71,48.63Z"/></g><g class="cls-8"><path class="cls-5" d="M74.67,48.63h-.15a1.8,1.8,0,0,1,.13-.75h.15A1.8,1.8,0,0,0,74.67,48.63Z"/></g><rect class="cls-5" x="74.57" y="47.58" width="1.13" height="0.11" rx="0.06"/><g class="cls-9"><path class="cls-5" d="M75.84,48.85a1.25,1.25,0,0,1-.07.26,1.51,1.51,0,0,1-.12.26H74.57l-.06-.13-.06-.13a.24.24,0,0,0,0-.08l0-.12s0,0,0-.06Z"/></g><g class="cls-9"><path class="cls-5" d="M75.77,49.11a1.51,1.51,0,0,1-.12.26H74.57l-.06-.13-.06-.13Z"/></g><rect class="cls-5" x="74.44" y="49.37" width="1.21" height="0.06"/><rect class="cls-5" x="74.93" y="47.34" width="0.07" height="0.24"/><rect class="cls-5" x="75.3" y="47.34" width="0.07" height="0.24"/><rect class="cls-5" x="75.05" y="47.51" width="0.43" height="0.06"/><path class="cls-5" d="M75.14,47.47a1,1,0,0,1-.34,0c-.29-.11-.3-.34-.28-.64a2.06,2.06,0,0,1,0-.41l.07,0a1.69,1.69,0,0,0,0,.39c0,.3,0,.48.23.58a1.34,1.34,0,0,0,.65,0l0,.06A1.17,1.17,0,0,1,75.14,47.47Z"/><rect class="cls-5" x="74.55" y="46.32" width="0.36" height="0.09"/><rect class="cls-5" x="74.51" y="46.34" width="0.05" height="0.05"/><rect class="cls-5" x="74.83" y="46.16" width="0.19" height="0.22"/><rect class="cls-5" x="74.98" y="46.25" width="0.1" height="0.06"/><g class="cls-10"><polygon class="cls-5" points="74.97 48.63 74.6 48.63 74.96 47.88 75.33 47.88 74.97 48.63"/></g><g class="cls-10"><polygon class="cls-5" points="75.14 48.63 75.06 48.63 75.42 47.88 75.5 47.88 75.14 48.63"/></g><rect class="cls-5" x="76.75" y="42.61" width="0.57" height="0.08"/><path class="cls-5" d="M77.49,43.39a.94.94,0,0,1,0,.16,1.3,1.3,0,0,1-.08.17h-.69a.2.2,0,0,0,0-.08l0-.09s0,0,0,0a.19.19,0,0,0,0-.07v0a1.15,1.15,0,0,1,.12-.72h.69A1,1,0,0,1,77.49,43.39Z"/><g class="cls-7"><path class="cls-5" d="M77.41,43.25h-.76a1.16,1.16,0,0,1,.08-.48h.6A1.34,1.34,0,0,1,77.41,43.25Z"/></g><g class="cls-8"><path class="cls-5" d="M76.74,43.25h-.09a1.16,1.16,0,0,1,.08-.48h.1A1.36,1.36,0,0,0,76.74,43.25Z"/></g><rect class="cls-5" x="76.68" y="42.58" width="0.72" height="0.07" rx="0.04"/><g class="cls-9"><path class="cls-5" d="M77.49,43.39a.94.94,0,0,1,0,.16,1.3,1.3,0,0,1-.08.17h-.69a.2.2,0,0,0,0-.08l0-.09s0,0,0,0a.19.19,0,0,0,0-.07v0Z"/></g><g class="cls-9"><path class="cls-5" d="M77.45,43.55a1.3,1.3,0,0,1-.08.17h-.69a.2.2,0,0,0,0-.08l0-.09Z"/></g><rect class="cls-5" x="76.6" y="43.72" width="0.77" height="0.04"/><rect class="cls-5" x="76.91" y="42.42" width="0.04" height="0.15"/><rect class="cls-5" x="77.15" y="42.42" width="0.04" height="0.15"/><rect class="cls-5" x="76.99" y="42.54" width="0.27" height="0.04"/><path class="cls-5" d="M77.05,42.51a.83.83,0,0,1-.22,0c-.18-.07-.19-.22-.18-.41a1.83,1.83,0,0,1,0-.26h0a1.08,1.08,0,0,0,0,.25c0,.19,0,.31.16.37a.87.87,0,0,0,.41,0v.05Z"/><rect class="cls-5" x="76.67" y="41.78" width="0.23" height="0.06"/><rect class="cls-5" x="76.65" y="41.79" width="0.03" height="0.03"/><rect class="cls-5" x="76.85" y="41.68" width="0.12" height="0.14"/><rect class="cls-5" x="76.94" y="41.73" width="0.07" height="0.04"/><g class="cls-10"><polygon class="cls-5" points="76.94 43.24 76.7 43.24 76.93 42.77 77.17 42.77 76.94 43.24"/></g><g class="cls-10"><polygon class="cls-5" points="77.05 43.24 77 43.24 77.22 42.77 77.28 42.77 77.05 43.24"/></g><rect class="cls-5" x="79.06" y="40.69" width="0.57" height="0.08" transform="translate(158.68 81.46) rotate(180)"/><path class="cls-5" d="M78.89,41.47a.94.94,0,0,0,0,.16,1.3,1.3,0,0,0,.08.17h.69a.2.2,0,0,1,0-.08l0-.09s0,0,0-.05,0,0,0-.07v0a1.15,1.15,0,0,0-.12-.72H79A1,1,0,0,0,78.89,41.47Z"/><g class="cls-7"><path class="cls-5" d="M79,41.33h.76a1.16,1.16,0,0,0-.08-.48h-.6A1.61,1.61,0,0,0,79,41.33Z"/></g><g class="cls-8"><path class="cls-5" d="M79.64,41.33h.09a1.16,1.16,0,0,0-.08-.48h-.1A1.36,1.36,0,0,1,79.64,41.33Z"/></g><rect class="cls-5" x="78.98" y="40.66" width="0.72" height="0.07" rx="0.04" transform="translate(158.67 81.38) rotate(-180)"/><g class="cls-9"><path class="cls-5" d="M78.89,41.47a.94.94,0,0,0,0,.16,1.3,1.3,0,0,0,.08.17h.69a.2.2,0,0,1,0-.08l0-.09s0,0,0-.05,0,0,0-.07v0Z"/></g><g class="cls-9"><path class="cls-5" d="M78.93,41.63a1.3,1.3,0,0,0,.08.17h.69a.2.2,0,0,1,0-.08l0-.09Z"/></g><rect class="cls-5" x="79.01" y="41.8" width="0.77" height="0.04" transform="translate(158.79 83.64) rotate(180)"/><rect class="cls-5" x="79.43" y="40.5" width="0.04" height="0.15" transform="translate(158.9 81.16) rotate(180)"/><rect class="cls-5" x="79.19" y="40.5" width="0.04" height="0.15" transform="translate(158.43 81.16) rotate(180)"/><rect class="cls-5" x="79.12" y="40.62" width="0.27" height="0.04" transform="translate(158.51 81.27) rotate(180)"/><path class="cls-5" d="M79.33,40.59a1.59,1.59,0,0,1-.22,0v0a.87.87,0,0,0,.41,0c.16-.06.17-.18.16-.37a1.08,1.08,0,0,0,0-.25h0a1.83,1.83,0,0,1,0,.26c0,.19,0,.34-.18.41A.83.83,0,0,1,79.33,40.59Z"/><rect class="cls-5" x="79.48" y="39.86" width="0.23" height="0.06" transform="translate(159.18 79.78) rotate(180)"/><rect class="cls-5" x="79.7" y="39.87" width="0.03" height="0.03" transform="translate(159.43 79.78) rotate(180)"/><rect class="cls-5" x="79.41" y="39.76" width="0.12" height="0.14" transform="translate(158.95 79.65) rotate(180)"/><rect class="cls-5" x="79.37" y="39.81" width="0.07" height="0.04" transform="translate(158.81 79.67) rotate(180)"/><g class="cls-10"><polygon class="cls-5" points="79.44 41.33 79.68 41.33 79.45 40.85 79.21 40.85 79.44 41.33"/></g><g class="cls-10"><polygon class="cls-5" points="79.33 41.33 79.39 41.33 79.16 40.85 79.11 40.85 79.33 41.33"/></g><rect class="cls-5" x="79.29" y="45.07" width="0.67" height="0.09" transform="translate(159.26 90.23) rotate(180)"/><path class="cls-5" d="M79.1,46a1.46,1.46,0,0,0,.05.2,1.07,1.07,0,0,0,.09.19H80s0-.07,0-.1l0-.09a.14.14,0,0,1,0-.06s0-.06,0-.09,0,0,0-.05a1.2,1.2,0,0,0-.14-.84h-.8A1.2,1.2,0,0,0,79.1,46Z"/><g class="cls-7"><path class="cls-5" d="M79.2,45.81h.88a1.56,1.56,0,0,0-.09-.56h-.7A1.37,1.37,0,0,0,79.2,45.81Z"/></g><g class="cls-8"><path class="cls-5" d="M80,45.81h.11a1.56,1.56,0,0,0-.09-.56h-.12A1.38,1.38,0,0,1,80,45.81Z"/></g><rect class="cls-5" x="79.2" y="45.03" width="0.84" height="0.08" rx="0.04" transform="translate(159.24 90.13) rotate(180)"/><g class="cls-9"><path class="cls-5" d="M79.1,46a1.46,1.46,0,0,0,.05.2,1.07,1.07,0,0,0,.09.19H80s0-.07,0-.1l0-.09a.14.14,0,0,1,0-.06s0-.06,0-.09,0,0,0-.05Z"/></g><g class="cls-9"><path class="cls-5" d="M79.15,46.17a1.07,1.07,0,0,0,.09.19H80s0-.07,0-.1l0-.09Z"/></g><rect class="cls-5" x="79.24" y="46.36" width="0.9" height="0.05" transform="translate(159.37 92.76) rotate(180)"/><rect class="cls-5" x="79.73" y="44.85" width="0.05" height="0.18" transform="translate(159.5 89.87) rotate(180)"/><rect class="cls-5" x="79.45" y="44.85" width="0.05" height="0.18" transform="translate(158.96 89.87) rotate(180)"/><rect class="cls-5" x="79.37" y="44.98" width="0.32" height="0.05" transform="translate(159.05 90) rotate(180)"/><path class="cls-5" d="M79.62,45a1.33,1.33,0,0,1-.26,0v-.05a.94.94,0,0,0,.48,0c.19-.07.19-.2.18-.42a1.57,1.57,0,0,0,0-.3H80a1.8,1.8,0,0,1,0,.31c0,.22,0,.39-.21.47A.73.73,0,0,1,79.62,45Z"/><rect class="cls-5" x="79.78" y="44.1" width="0.27" height="0.07" transform="translate(159.84 88.26) rotate(180)"/><rect class="cls-5" x="80.04" y="44.11" width="0.04" height="0.04" transform="translate(160.13 88.26) rotate(180)"/><rect class="cls-5" x="79.71" y="43.98" width="0.14" height="0.16" transform="translate(159.56 88.12) rotate(180)"/><rect class="cls-5" x="79.66" y="44.04" width="0.08" height="0.04" transform="translate(159.4 88.13) rotate(180)"/><g class="cls-10"><polygon class="cls-5" points="79.74 45.81 80.02 45.81 79.75 45.25 79.47 45.25 79.74 45.81"/></g><g class="cls-10"><polygon class="cls-5" points="79.62 45.81 79.68 45.81 79.41 45.25 79.35 45.25 79.62 45.81"/></g><rect class="cls-5" x="79.75" y="48.68" width="0.92" height="0.13" transform="translate(160.42 97.48) rotate(180)"/><path class="cls-5" d="M79.48,49.92a1.34,1.34,0,0,0,.07.27,1.59,1.59,0,0,0,.12.27h1.11l.06-.14a.69.69,0,0,0,0-.13l0-.08A.53.53,0,0,0,81,50a.64.64,0,0,0,0-.07,1.76,1.76,0,0,0-.19-1.15H79.67A1.7,1.7,0,0,0,79.48,49.92Z"/><g class="cls-7"><path class="cls-5" d="M79.61,49.7h1.22a2,2,0,0,0-.13-.76h-1A2,2,0,0,0,79.61,49.7Z"/></g><g class="cls-8"><path class="cls-5" d="M80.68,49.7h.15a2,2,0,0,0-.13-.76h-.15A2,2,0,0,1,80.68,49.7Z"/></g><rect class="cls-5" x="79.62" y="48.62" width="1.16" height="0.11" rx="0.06" transform="translate(160.4 97.36) rotate(-180)"/><g class="cls-9"><path class="cls-5" d="M79.48,49.92a1.34,1.34,0,0,0,.07.27,1.59,1.59,0,0,0,.12.27h1.11l.06-.14a.69.69,0,0,0,0-.13l0-.08A.53.53,0,0,0,81,50a.64.64,0,0,0,0-.07Z"/></g><g class="cls-9"><path class="cls-5" d="M79.55,50.19a1.59,1.59,0,0,0,.12.27h1.11l.06-.14a.69.69,0,0,0,0-.13Z"/></g><rect class="cls-5" x="79.67" y="50.46" width="1.24" height="0.06" transform="translate(160.58 100.97) rotate(180)"/><rect class="cls-5" x="80.34" y="48.38" width="0.07" height="0.24" transform="translate(160.75 97) rotate(180)"/><rect class="cls-5" x="79.97" y="48.38" width="0.07" height="0.24" transform="translate(160 97) rotate(180)"/><rect class="cls-5" x="79.85" y="48.56" width="0.44" height="0.07" transform="translate(160.14 97.18) rotate(180)"/><path class="cls-5" d="M80.2,48.52a1.9,1.9,0,0,1-.36,0l0-.07a1.25,1.25,0,0,0,.66,0c.25-.1.26-.29.24-.59a3.35,3.35,0,0,0-.05-.4l.07,0s0,.15,0,.42,0,.54-.29.65A.82.82,0,0,1,80.2,48.52Z"/><rect class="cls-5" x="80.42" y="47.34" width="0.37" height="0.09" transform="translate(161.22 94.78) rotate(180)"/><rect class="cls-5" x="80.78" y="47.36" width="0.05" height="0.06" transform="translate(161.62 94.78) rotate(180)"/><rect class="cls-5" x="80.32" y="47.18" width="0.19" height="0.22" transform="translate(160.84 94.58) rotate(180)"/><rect class="cls-5" x="80.26" y="47.27" width="0.1" height="0.06" transform="translate(160.62 94.6) rotate(180)"/><g class="cls-10"><polygon class="cls-5" points="80.36 49.7 80.74 49.7 80.38 48.94 80 48.94 80.36 49.7"/></g><g class="cls-10"><polygon class="cls-5" points="80.19 49.7 80.28 49.7 79.91 48.94 79.83 48.94 80.19 49.7"/></g><rect class="cls-5" x="79.86" y="53.35" width="1.33" height="0.18" transform="translate(161.05 106.88) rotate(180)"/><path class="cls-5" d="M79.47,55.14a2.72,2.72,0,0,0,.11.38,3.29,3.29,0,0,0,.17.39h1.6l.09-.2c0-.06,0-.12.08-.19a.36.36,0,0,1,0-.11c0-.06,0-.12,0-.18a.29.29,0,0,0,0-.09,2.46,2.46,0,0,0-.27-1.66h-1.6A2.47,2.47,0,0,0,79.47,55.14Z"/><g class="cls-7"><path class="cls-5" d="M79.67,54.81h1.76a3,3,0,0,0-.19-1.09H79.86A2.79,2.79,0,0,0,79.67,54.81Z"/></g><g class="cls-8"><path class="cls-5" d="M81.21,54.81h.22a3,3,0,0,0-.19-1.09H81A3,3,0,0,1,81.21,54.81Z"/></g><rect class="cls-5" x="79.68" y="53.27" width="1.67" height="0.16" rx="0.08" transform="translate(161.03 106.69) rotate(180)"/><g class="cls-9"><path class="cls-5" d="M79.47,55.14a2.72,2.72,0,0,0,.11.38,3.29,3.29,0,0,0,.17.39h1.6l.09-.2c0-.06,0-.12.08-.19a.36.36,0,0,1,0-.11c0-.06,0-.12,0-.18a.29.29,0,0,0,0-.09Z"/></g><g class="cls-9"><path class="cls-5" d="M79.58,55.52a3.29,3.29,0,0,0,.17.39h1.6l.09-.2c0-.06,0-.12.08-.19Z"/></g><rect class="cls-5" x="79.75" y="55.91" width="1.79" height="0.09" transform="translate(161.29 111.9) rotate(180)"/><rect class="cls-5" x="80.72" y="52.91" width="0.1" height="0.35" transform="translate(161.54 106.18) rotate(180)"/><rect class="cls-5" x="80.18" y="52.91" width="0.1" height="0.35" transform="translate(160.46 106.18) rotate(180)"/><rect class="cls-5" x="80.01" y="53.17" width="0.63" height="0.09" transform="translate(160.66 106.44) rotate(180)"/><path class="cls-5" d="M80.51,53.12a2.49,2.49,0,0,1-.51-.06l0-.1a1.83,1.83,0,0,0,1,0c.37-.14.38-.41.35-.84a3.39,3.39,0,0,0-.07-.58l.1,0a4,4,0,0,1,.07.61c0,.44,0,.77-.41.94A1.45,1.45,0,0,1,80.51,53.12Z"/><rect class="cls-5" x="80.84" y="51.42" width="0.53" height="0.13" transform="translate(162.21 102.98) rotate(180)"/><rect class="cls-5" x="81.35" y="51.45" width="0.08" height="0.08" transform="translate(162.78 102.98) rotate(180)"/><rect class="cls-5" x="80.69" y="51.19" width="0.27" height="0.32" transform="translate(161.66 102.69) rotate(180)"/><rect class="cls-5" x="80.6" y="51.32" width="0.15" height="0.09" transform="translate(161.35 102.72) rotate(180)"/><g class="cls-10"><polygon class="cls-5" points="80.75 54.81 81.3 54.81 80.77 53.72 80.22 53.72 80.75 54.81"/></g><g class="cls-10"><polygon class="cls-5" points="80.51 54.81 80.63 54.81 80.1 53.72 79.98 53.72 80.51 54.81"/></g><rect class="cls-5" x="80.57" y="57.16" width="2.13" height="0.29" transform="translate(163.27 114.6) rotate(180)"/><path class="cls-5" d="M79.94,60a3.62,3.62,0,0,0,.18.62,4.06,4.06,0,0,0,.27.61H83L83.1,61c0-.1.09-.2.12-.3s0-.13.07-.19a2.29,2.29,0,0,0,.07-.28s0-.1,0-.15A4,4,0,0,0,83,57.37H80.39A4,4,0,0,0,79.94,60Z"/><g class="cls-7"><path class="cls-5" d="M80.26,59.51h2.82a4.55,4.55,0,0,0-.31-1.76h-2.2A4.55,4.55,0,0,0,80.26,59.51Z"/></g><g class="cls-8"><path class="cls-5" d="M82.73,59.51h.35a4.55,4.55,0,0,0-.31-1.76h-.35A4.74,4.74,0,0,1,82.73,59.51Z"/></g><rect class="cls-5" x="80.28" y="57.02" width="2.68" height="0.26" rx="0.13" transform="translate(163.23 114.31) rotate(180)"/><g class="cls-9"><path class="cls-5" d="M79.94,60a3.62,3.62,0,0,0,.18.62,4.06,4.06,0,0,0,.27.61H83L83.1,61c0-.1.09-.2.12-.3s0-.13.07-.19a2.29,2.29,0,0,0,.07-.28s0-.1,0-.15Z"/></g><g class="cls-9"><path class="cls-5" d="M80.12,60.65a4.06,4.06,0,0,0,.27.61H83L83.1,61c0-.1.09-.2.12-.3Z"/></g><rect class="cls-5" x="80.39" y="61.26" width="2.87" height="0.14" transform="translate(163.65 122.67) rotate(180)"/><rect class="cls-5" x="81.95" y="56.46" width="0.16" height="0.56" transform="translate(164.05 113.48) rotate(180)"/><rect class="cls-5" x="81.08" y="56.46" width="0.16" height="0.56" transform="translate(162.32 113.48) rotate(180)"/><rect class="cls-5" x="80.81" y="56.87" width="1.02" height="0.15" transform="translate(162.63 113.9) rotate(180)"/><path class="cls-5" d="M81.61,56.79a3.23,3.23,0,0,1-.82-.1l0-.16a2.81,2.81,0,0,0,1.52,0c.58-.23.6-.66.56-1.35a4,4,0,0,0-.12-.94l.16,0a5.15,5.15,0,0,1,.12,1c0,.72,0,1.25-.66,1.51A2.27,2.27,0,0,1,81.61,56.79Z"/><rect class="cls-5" x="82.13" y="54.07" width="0.86" height="0.21" transform="translate(165.13 108.35) rotate(180)"/><rect class="cls-5" x="82.96" y="54.11" width="0.12" height="0.13" transform="translate(166.05 108.36) rotate(180)"/><rect class="cls-5" x="81.9" y="53.69" width="0.44" height="0.52" transform="translate(164.25 107.89) rotate(180)"/><rect class="cls-5" x="81.75" y="53.9" width="0.24" height="0.14" transform="translate(163.75 107.94) rotate(180)"/><g class="cls-10"><polygon class="cls-5" points="82 59.51 82.87 59.51 82.03 57.75 81.15 57.75 82 59.51"/></g><g class="cls-10"><polygon class="cls-5" points="81.61 59.51 81.8 59.51 80.95 57.75 80.76 57.75 81.61 59.51"/></g><rect class="cls-5" x="72.04" y="51" width="1.39" height="0.16"/><path class="cls-5" d="M73.81,52.25a1.33,1.33,0,0,1,0,.28,2.05,2.05,0,0,1-.24.65H72.18a2.05,2.05,0,0,1-.24-.65,2.12,2.12,0,0,1,.24-1.42h1.36l.1.2a2.26,2.26,0,0,1,.14.47A1.86,1.86,0,0,1,73.81,52.25Z"/><path class="cls-5" d="M73.81,52.25H72.59a2.62,2.62,0,0,1,.16-.94h.89A2.11,2.11,0,0,1,73.81,52.25Z"/><path class="cls-5" d="M73.38,53.18H72a2.07,2.07,0,0,1,0-2.07h1.36A2.07,2.07,0,0,1,73.38,53.18Z"/><g class="cls-11"><path class="cls-5" d="M73.78,51.78a1.23,1.23,0,0,1-.08.54.54.54,0,0,1-.19.18l-.33-1.39h.36l.1.2A2.26,2.26,0,0,1,73.78,51.78Z"/></g><path class="cls-5" d="M73.51,52.53a2.05,2.05,0,0,1-.24.65H71.91a2.05,2.05,0,0,1-.24-.65,2.12,2.12,0,0,1,.24-1.42h1.36A2.12,2.12,0,0,1,73.51,52.53Z"/><g class="cls-7"><path class="cls-5" d="M73.34,52.25h-1.5a2.42,2.42,0,0,1,.16-.94h1.18A2.62,2.62,0,0,1,73.34,52.25Z"/></g><g class="cls-8"><path class="cls-5" d="M72,52.25h-.19a2.42,2.42,0,0,1,.16-.94h.19A2.42,2.42,0,0,0,72,52.25Z"/></g><path class="cls-5" d="M73.48,50.93H72a.07.07,0,0,0-.07.07h0a.07.07,0,0,0,.07.07h1.51a.08.08,0,0,0,.07-.07h0A.08.08,0,0,0,73.48,50.93Z"/><rect class="cls-5" x="71.9" y="50.93" width="1.43" height="0.14" rx="0.07"/><g class="cls-9"><path class="cls-5" d="M73.78,52.53a2,2,0,0,1-.09.33,1.87,1.87,0,0,1-.15.32H71.91a1.87,1.87,0,0,1-.15-.32,2,2,0,0,1-.09-.33Z"/></g><g class="cls-9"><path class="cls-5" d="M73.69,52.86a1.87,1.87,0,0,1-.15.32H71.91a1.87,1.87,0,0,1-.15-.32Z"/></g><rect class="cls-5" x="71.74" y="53.18" width="1.8" height="0.08"/><rect class="cls-5" x="71.74" y="53.18" width="1.53" height="0.08"/><rect class="cls-5" x="72.36" y="50.63" width="0.09" height="0.3"/><rect class="cls-5" x="72.82" y="50.63" width="0.09" height="0.3"/><rect class="cls-5" x="72.51" y="50.85" width="0.54" height="0.08"/><path class="cls-5" d="M72.62,50.8a1.23,1.23,0,0,1-.42-.07c-.37-.14-.38-.55-.36-.93a2.07,2.07,0,0,1,.07-.51l.08,0a3.3,3.3,0,0,0-.06.5c0,.36,0,.72.3.84a1.65,1.65,0,0,0,.81,0l0,.08A2.15,2.15,0,0,1,72.62,50.8Z"/><rect class="cls-5" x="71.88" y="49.23" width="0.46" height="0.11"/><rect class="cls-5" x="71.83" y="49.25" width="0.07" height="0.07"/><rect class="cls-5" x="72.23" y="49.03" width="0.23" height="0.27"/><rect class="cls-5" x="72.42" y="49.14" width="0.13" height="0.07"/><g class="cls-10"><polygon class="cls-5" points="72.42 52.25 71.95 52.25 72.4 51.31 72.87 51.31 72.42 52.25"/></g><g class="cls-10"><polygon class="cls-5" points="72.62 52.25 72.52 52.25 72.97 51.31 73.07 51.31 72.62 52.25"/></g><rect class="cls-5" x="83.77" y="61.71" width="3.86" height="0.53" transform="translate(171.41 123.94) rotate(180)"/><path class="cls-5" d="M82.64,66.91A6.43,6.43,0,0,0,83,68a8.39,8.39,0,0,0,.5,1.12h4.63c.1-.19.19-.38.27-.56s.16-.37.23-.56.08-.23.11-.34a4.67,4.67,0,0,0,.14-.5l.06-.28a7.06,7.06,0,0,0-.81-4.82H83.45A7.06,7.06,0,0,0,82.64,66.91Z"/><g class="cls-7"><path class="cls-5" d="M83.21,66h5.11a8.37,8.37,0,0,0-.56-3.19h-4A8.37,8.37,0,0,0,83.21,66Z"/></g><g class="cls-8"><path class="cls-5" d="M87.68,66h.64a8.37,8.37,0,0,0-.56-3.19h-.64A8.37,8.37,0,0,1,87.68,66Z"/></g><rect class="cls-5" x="83.24" y="61.47" width="4.85" height="0.47" rx="0.24" transform="translate(171.34 123.41) rotate(180)"/><g class="cls-9"><path class="cls-5" d="M82.64,66.91A6.43,6.43,0,0,0,83,68a8.39,8.39,0,0,0,.5,1.12h4.63c.1-.19.19-.38.27-.56s.16-.37.23-.56.08-.23.11-.34a4.67,4.67,0,0,0,.14-.5l.06-.28Z"/></g><g class="cls-9"><path class="cls-5" d="M83,68a8.39,8.39,0,0,0,.5,1.12h4.63c.1-.19.19-.38.27-.56s.16-.37.23-.56Z"/></g><rect class="cls-5" x="83.45" y="69.15" width="5.19" height="0.26" transform="translate(172.09 138.55) rotate(180)"/><rect class="cls-5" x="86.26" y="60.45" width="0.29" height="1.02" transform="translate(172.82 121.92) rotate(180)"/><rect class="cls-5" x="84.69" y="60.45" width="0.29" height="1.02" transform="translate(169.68 121.92) rotate(180)"/><rect class="cls-5" x="84.2" y="61.2" width="1.84" height="0.27" transform="translate(170.25 122.66) rotate(180)"/><path class="cls-5" d="M85.65,61a6.61,6.61,0,0,1-1.49-.18l.08-.28a5.41,5.41,0,0,0,2.76,0c1-.41,1.09-1.19,1-2.44a9.79,9.79,0,0,0-.21-1.7l.28-.07a9.14,9.14,0,0,1,.23,1.75c.07,1.3,0,2.26-1.21,2.73A4.09,4.09,0,0,1,85.65,61Z"/><rect class="cls-5" x="86.61" y="56.12" width="1.55" height="0.39" transform="translate(174.76 112.62) rotate(180)"/><rect class="cls-5" x="88.1" y="56.2" width="0.23" height="0.23" transform="translate(176.43 112.63) rotate(180)"/><rect class="cls-5" x="86.19" y="55.43" width="0.79" height="0.93" transform="translate(173.17 111.79) rotate(180)"/><rect class="cls-5" x="85.91" y="55.81" width="0.44" height="0.25" transform="translate(172.27 111.88) rotate(180)"/><g class="cls-10"><polygon class="cls-5" points="86.36 65.97 87.94 65.97 86.41 62.78 84.82 62.78 86.36 65.97"/></g><g class="cls-10"><polygon class="cls-5" points="85.65 65.97 85.99 65.97 84.46 62.78 84.11 62.78 85.65 65.97"/></g><path class="cls-5" d="M1.07,21.61c2.31,1.27,5.63,3.08,9.62,5.22s8.68,4.6,13.72,7.19,10.44,5.28,15.91,7.87c2.73,1.29,5.47,2.55,8.2,3.75S54,48,56.6,49c1.33.5,2.64,1,3.94,1.38a38.52,38.52,0,0,0,3.88,1,13.93,13.93,0,0,0,1.91.27,6.15,6.15,0,0,0,1,0,4.12,4.12,0,0,0,.48-.05l.23,0h0l.06,0,.11,0A10.59,10.59,0,0,0,71.43,50a11.62,11.62,0,0,0,2.39-2.23,14.8,14.8,0,0,0,1.61-2.46,18.63,18.63,0,0,0,1-2.36,19.59,19.59,0,0,0,.65-2.1,24.34,24.34,0,0,0,.58-3c.08-.7.1-1.08.1-1.08s0,.38-.12,1.08a24,24,0,0,1-.62,3c-.17.64-.39,1.33-.67,2.08a19.55,19.55,0,0,1-1.06,2.33,14.2,14.2,0,0,1-1.63,2.41,11.57,11.57,0,0,1-2.38,2.17,10.6,10.6,0,0,1-3.16,1.44l-.11,0h-.1a.93.93,0,0,1-.22,0,3.44,3.44,0,0,1-.45,0,7.13,7.13,0,0,1-.92,0,15.72,15.72,0,0,1-1.87-.29A38.69,38.69,0,0,1,60.66,50c-1.29-.43-2.59-.91-3.9-1.43-2.63-1-5.31-2.2-8-3.43s-5.43-2.53-8.14-3.86c-5.41-2.66-10.77-5.43-15.77-8.08S15.21,28,11.25,25.81c-3.08-1.7-5.75-3.2-7.87-4.39H.71Z"/><path class="cls-5" d="M44.26,29.15c1.91,1.54,3.86,3,5.81,4.48s3.91,2.78,5.87,4a46,46,0,0,0,5.85,3.16,19.1,19.1,0,0,0,2.92,1c.25.06.49.12.74.16s.24,0,.36.06l.36,0c.48.05,1,.09,1.41.11a14.29,14.29,0,0,0,2.65-.12,10.89,10.89,0,0,0,2.33-.57,9.3,9.3,0,0,0,3.29-2,8.68,8.68,0,0,0,1.55-1.95,5.57,5.57,0,0,0,.3-.58l.09-.21L77.7,37a5.16,5.16,0,0,1-.31.57,8.72,8.72,0,0,1-1.58,1.91,9.26,9.26,0,0,1-3.3,1.94,11.24,11.24,0,0,1-2.3.52,15,15,0,0,1-2.62.07c-.45,0-.92-.08-1.39-.14l-.35,0-.36-.07-.7-.16a19.41,19.41,0,0,1-2.86-1,45.68,45.68,0,0,1-5.75-3.23c-1.92-1.25-3.85-2.64-5.77-4.09s-3.83-3-5.71-4.56c-2.83-2.37-5.6-4.8-8.23-7.19H35.13C38,24,41.11,26.61,44.26,29.15Z"/><path class="cls-5" d="M96.23,21.75c0,1.76-.06,4.27-.17,7.28s-.27,6.52-.58,10.26c-.16,1.87-.36,3.81-.64,5.75-.14,1-.31,2-.51,2.92-.1.49-.21,1-.34,1.45s-.28,1-.44,1.4a8.71,8.71,0,0,1-1.45,2.51,6.61,6.61,0,0,1-2.23,1.77,6.48,6.48,0,0,1-2.73.65,7.14,7.14,0,0,1-2.72-.46,6,6,0,0,1-2.23-1.46,4.61,4.61,0,0,1-.4-.5c-.06-.09-.12-.18-.17-.27l-.08-.15-.06-.14a8.7,8.7,0,0,1-.43-1.21c-.23-.83-.4-1.65-.54-2.45s-.25-1.57-.35-2.32c-.2-1.49-.34-2.87-.44-4.09s-.19-2.28-.25-3.16c-.12-1.76-.16-2.76-.16-2.76s0,1,.1,2.76c0,.88.09,1.95.18,3.17s.19,2.61.35,4.11q.12,1.13.3,2.34c.13.8.28,1.64.49,2.48a9,9,0,0,0,.42,1.27l.07.16.08.15a1.92,1.92,0,0,0,.18.31,4.63,4.63,0,0,0,.43.56,6.19,6.19,0,0,0,2.35,1.6,7.63,7.63,0,0,0,2.89.56,7.11,7.11,0,0,0,5.42-2.52,9.62,9.62,0,0,0,1.6-2.66,19.77,19.77,0,0,0,.88-2.94c.23-1,.42-2,.58-2.95.33-2,.57-3.91.77-5.79.4-3.76.64-7.28.81-10.3s.27-5.54.33-7.3v-.36H96.23Z"/><path class="cls-5" d="M90.14,26.54c0,1.65,0,3.35,0,5.09s0,3.49-.09,5.24-.15,3.51-.35,5.22q-.08.64-.18,1.26c-.08.42-.17.82-.28,1.22a8.81,8.81,0,0,1-.4,1.16,5.5,5.5,0,0,1-.57,1,4,4,0,0,1-.35.46,3,3,0,0,1-.42.38,2.66,2.66,0,0,1-1,.51,3,3,0,0,1-1.07.1,4.25,4.25,0,0,1-1-.26,5.46,5.46,0,0,1-1.75-1.18,6.18,6.18,0,0,1-1.18-1.6,17.18,17.18,0,0,1-1.21-3.36c-.27-1-.45-2-.57-2.71s-.19-1.36-.24-1.78-.06-.63-.06-.63,0,.22,0,.64.07,1,.16,1.78.23,1.7.46,2.75a16.78,16.78,0,0,0,1.1,3.47,6.61,6.61,0,0,0,1.21,1.73,5.68,5.68,0,0,0,1.86,1.31,4.21,4.21,0,0,0,1.18.33,3.6,3.6,0,0,0,1.26-.09,3.44,3.44,0,0,0,1.17-.57,4.06,4.06,0,0,0,.49-.44c.15-.16.29-.33.42-.5A7,7,0,0,0,89.44,46a10.69,10.69,0,0,0,.46-1.23c.12-.42.23-.85.31-1.27s.16-.87.22-1.3c.23-1.74.36-3.51.46-5.27s.15-3.53.19-5.27.06-3.45.07-5.11,0-3.5,0-5.11H90C90.08,23,90.11,24.76,90.14,26.54Z"/><path class="cls-3" d="M108.63,64.3v-1h15.3v1Z"/><path class="cls-3" d="M108.63,59.11v-1h15.31v1Z"/><path class="cls-3" d="M108.63,42.53v-1h15.3v1Z"/><path class="cls-3" d="M123.93,45.72v1h-15.3v-1Z"/><path class="cls-3" d="M123.93,44.07h-1.69c-.59,0-1.18,0-1.78,0h-8.59l-1.74,0-1.34,0c-.14,0-.18,0-.17-.18s0-.54,0-.83h15.31Z"/><path class="cls-3" d="M108.63,55.19v-.74h15.3v.74Z"/><path class="cls-3" d="M108.62,51.26v-.57s0-.1,0-.17h15.3v.74Z"/><path class="cls-3" d="M108.63,62.91v-.73h15.3v.73Z"/><path class="cls-3" d="M108.64,32.4l0-.23h17.21v.23Z"/><path class="cls-3" d="M108.63,65.07v-.23h17.2v.23Z"/><path class="cls-3" d="M125.84,31.41v.23H108.63v-.23Z"/><path class="cls-3" d="M125.83,48.75V49h-17.2v-.23Z"/><path class="cls-3" d="M108.63,48.23V48h17.2v.23Z"/><path class="cls-3" d="M125.83,65.6v.23h-17.2V65.6Z"/><path class="cls-3" d="M108.63,59.88v-.23h15.3v.23Z"/><path class="cls-3" d="M108.62,56v-.23h15.31V56Z"/><path class="cls-3" d="M108.63,41v-.23h15.3V41Z"/><path class="cls-3" d="M123.93,34.71v.23h-15.3v-.23Z"/><path class="cls-3" d="M123.93,60.78V61H108.64v-.23Z"/><path class="cls-3" d="M108.63,40v-.24h15.3V40Z"/><path class="cls-3" d="M123.93,39v.24h-15.3V39Z"/><path class="cls-3" d="M108.64,49.74c0-.24,0-.24.18-.24h15.11l0,.23Z"/><path class="cls-3" d="M108.63,37.47v-.23h15.29a.43.43,0,0,1,0,.11.57.57,0,0,1,0,.12Z"/><path class="cls-3" d="M108.63,47.48v-.24h15.29c0,.24,0,.24-.17.24H108.63Z"/><path class="cls-3" d="M123.93,35.72V36h-15.1c-.17,0-.26,0-.19-.24Z"/><path class="cls-3" d="M108.63,53.16v-.22h15.3s0,.06,0,.1a.57.57,0,0,1,0,.12Z"/><path class="cls-3" d="M108.63,33.92v-.23h15.3v.23Z"/><path class="cls-3" d="M123.94,52.17v.22H108.63s0-.07,0-.1,0-.07,0-.12Z"/><path class="cls-3" d="M123.93,57.34h-15.3V57.1h15.11C123.92,57.09,124,57.15,123.93,57.34Z"/><path class="cls-3" d="M108.63,45.06v-.23h15.3v.23Z"/></g></g></svg>