<?xml version="1.0" encoding="utf-8"?>
<!-- Generator: Adobe Illustrator 22.1.0, SVG Export Plug-In . SVG Version: 6.00 Build 0)  -->
<svg version="1.1" id="Layer_1" xmlns="http://www.w3.org/2000/svg" xmlns:xlink="http://www.w3.org/1999/xlink" x="0px" y="0px"
	 viewBox="0 0 396.6 144.1" style="enable-background:new 0 0 396.6 144.1;" xml:space="preserve">
<style type="text/css">
	.st0{fill:#0F0F0F;}
</style>
<g>
	<path class="st0" d="M180.1,0c-1.1,0-2.1,0.9-2.1,2.1v140c0,1.1,0.9,2.1,2.1,2.1s2.1-0.9,2.1-2.1V2.1C182.1,0.9,181.2,0,180.1,0z"
		/>
	<path class="st0" d="M71.5,78.8c20.2-1.8,36-18.7,36-39.3C107.6,17.7,89.9,0,68.1,0h-66C0.9,0,0,0.9,0,2.1v140
		c0,1.1,0.9,2.1,2.1,2.1s2.1-0.9,2.1-2.1V79h62.8l36.8,64.1c0.4,0.6,1,1,1.8,1c0.4,0,0.7-0.1,1-0.3c1-0.6,1.3-1.8,0.8-2.8L71.5,78.8
		z M68.1,74.8C68.1,74.8,68.1,74.8,68.1,74.8l-64,0V4.1h64c19.5,0,35.4,15.9,35.4,35.4C103.5,59,87.6,74.8,68.1,74.8
		C68.1,74.8,68.1,74.8,68.1,74.8z"/>
	<path class="st0" d="M324.6,0c-39.7,0-72,32.3-72,72c0,39.7,32.3,72,72,72s72-32.3,72-72C396.6,32.3,364.3,0,324.6,0z M324.6,4.1
		c37.5,0,67.9,30.5,67.9,67.9S362.1,140,324.6,140s-67.9-30.5-67.9-67.9S287.1,4.1,324.6,4.1z"/>
</g>
</svg>
