<?xml version="1.0" encoding="utf-8"?>
<!-- Generator: Adobe Illustrator 22.1.0, SVG Export Plug-In . SVG Version: 6.00 Build 0)  -->
<svg version="1.1" id="Capa_1" xmlns="http://www.w3.org/2000/svg" xmlns:xlink="http://www.w3.org/1999/xlink" x="0px" y="0px"
	 viewBox="0 0 507.3200073 507.3200073" style="enable-background:new 0 0 507.3200073 507.3200073;" xml:space="preserve">
<style type="text/css">
	.st0{fill:url(#SVGID_1_);}
</style>
<g>
	<g>
		<linearGradient id="SVGID_1_" gradientUnits="userSpaceOnUse" x1="55.1930046" y1="447.1970215" x2="443.1930237" y2="59.19701">
			<stop  offset="0" style="stop-color:#00FFFF"/>
			<stop  offset="1" style="stop-color:#6EFF92"/>
		</linearGradient>
		<path class="st0" d="M341.6600037,333.6640015h-200c-2.121994,0-4.1560059,0.8439941-5.6560059,2.3439941l-96,96
			l11.3120003,11.3120117l93.6560059-93.6560059h187.8879852c-1.6640015,9.4960022-6.8880005,24-23.2000122,24h-88v16h88
			c31.6400146,0,40-31.3999939,40-48C349.6600037,337.2460022,346.0780029,333.6640015,341.6600037,333.6640015z M443.3160095,280
			c-3.1239929-3.1229858-8.1879883-3.1229858-11.3120117,0l-72,72l11.3120117,11.3120117l65.7120056-65.70401
			c10.8320007,14.368988,8.6319885,34.6820068-5.0239868,46.3999939l-93.6560059,93.6560059H173.6600037
			c-2.121994,0-4.1560059,0.8439941-5.6560059,2.3439941l-56,56l11.3119965,11.3120117l53.6559906-53.6560059h164.6880188
			c2.1229858-0.0029907,4.1570129-0.848999,5.6560059-2.3519897l96-96
			C473.1080017,325.5280151,456.3399963,293.0239868,443.3160095,280z M448.0039978,64.0080032l-93.6560059,93.6559982H166.4600067
			c1.6640015-9.4960022,6.8880005-24,23.1999969-24h88v-16h-88c-31.6399994,0-40,31.3999939-40,48c0,4.4179993,3.5820007,8,8,8h200
			c2.1220093,0,4.1560059-0.8439941,5.6560059-2.3439941l96-96L448.0039978,64.0080032z M376.0039978,0l-53.6560059,53.6640015
			H157.6600037c-2.0950012,0.0019989-4.1060028,0.8269997-5.6000061,2.2960014l-97.8399963,96.0479889
			c-10.1569977,9.2510071-15.9960022,22.3179932-16.1119995,36.0559998
			c1.0089989,14.8990021,7.4309998,28.9150085,18.0559998,39.4080048c1.4850006,1.4060059,3.4510002,2.1909943,5.4959984,2.1920013
			c2.1220016,0,4.156002-0.8439941,5.656002-2.3439941l72.0000076-72l-11.3119965-11.3119965l-65.8320007,65.8239899
			c-4.8030014-6.371994-7.6090012-14.0249939-8.0639992-21.9920044c0.2439995-9.3800049,4.362999-18.2389984,11.3760033-24.4720001
			l95.4479904-93.7040024h164.7279968c2.1220093,0,4.1560059-0.8440018,5.6560059-2.3440018l56-56L376.0039978,0z
			 M480.0039978,96.0080032L362.3479919,213.6640015H176.9720001l18.3439941-18.3439941l-11.3119965-11.3119965l-32,32
			c-3.1230011,3.1239929-3.1230011,8.1880035,0,11.3119965l32,32l11.3119965-11.3119965l-18.3439941-18.3439941h188.6880035
			c2.1220093,0,4.1560059-0.8439941,5.6560059-2.3439941l120-120L480.0039978,96.0080032z M355.3160095,280.0079956l-32-32
			l-11.3120117,11.3120117l18.3439941,18.3439941H141.6600037c-2.121994,0-4.1560059,0.8439941-5.6560059,2.3439941l-120,120
			l11.3120003,11.3120117l117.6560059-117.6560059h185.3760223l-18.3439941,18.3439941l11.3120117,11.3120117l32-32
			C358.4389954,288.1960144,358.4389954,283.1319885,355.3160095,280.0079956z"/>
	</g>
</g>
</svg>
