<?xml version="1.0" encoding="utf-8"?>
<!-- Generator: Adobe Illustrator 22.1.0, SVG Export Plug-In . SVG Version: 6.00 Build 0)  -->
<svg version="1.1" id="Layer_1" xmlns="http://www.w3.org/2000/svg" xmlns:xlink="http://www.w3.org/1999/xlink" x="0px" y="0px"
	 viewBox="0 0 1218 944" style="enable-background:new 0 0 1218 944;" xml:space="preserve">
<style type="text/css">
	.st0{fill:#333333;}
	.st1{fill:#1A1A1A;}
	.st2{fill:#B2151B;}
	.st3{fill:#BDB319;}
	.st4{fill:#00BF00;}
</style>
<g>
	<image style="overflow:visible;opacity:0.75;" width="1218" height="944" xlink:href="502B26ECEE64CC67.png" >
	</image>
	<g>
		<path class="st0" d="M1161,898.2000122H57c-6.5999985,0-12-5.4000244-12-12V57.7999992c0-6.5999985,5.4000015-12,12-12h1104
			c6.5999756,0,12,5.4000015,12,12v828.4000244C1173,892.7999878,1167.5999756,898.2000122,1161,898.2000122z"/>
	</g>
</g>
<path class="st1" d="M45,116.1999969V57.7999992c0-6.5999985,5.4000015-12,12-12h1104c6.5999756,0,12,5.4000015,12,12v58.3999977"/>
<circle class="st2" cx="86.5" cy="80.5" r="12.5"/>
<circle class="st3" cx="129.5" cy="80.5" r="12.5"/>
<circle class="st4" cx="172.5" cy="80.5" r="12.5"/>
</svg>
